<?xml version="1.0" encoding="utf-8"?>
<!-- Generator: Adobe Illustrator 16.0.0, SVG Export Plug-In . SVG Version: 6.00 Build 0)  -->
<!DOCTYPE svg PUBLIC "-//W3C//DTD SVG 1.1//EN" "http://www.w3.org/Graphics/SVG/1.1/DTD/svg11.dtd">
<svg version="1.1" id="Layer_1" xmlns="http://www.w3.org/2000/svg" xmlns:xlink="http://www.w3.org/1999/xlink" x="0px" y="0px"
	 width="150px" height="40px" viewBox="0 0 150 40" enable-background="new 0 0 150 40" xml:space="preserve">
<g>
	<path fill="#231F20" d="M19.007,10.135c-0.305-1.314-1.05-2.233-2.234-2.757c-0.663-0.286-1.398-0.431-2.208-0.431
		c-1.551,0-2.825,0.584-3.822,1.753c-0.997,1.169-1.496,2.927-1.496,5.274c0,2.365,0.54,4.039,1.62,5.021
		c1.08,0.981,2.308,1.472,3.685,1.472c1.35,0,2.457-0.387,3.319-1.163c0.862-0.774,1.393-1.789,1.593-3.044h-4.456v-3.214h8.021
		v10.334h-2.665l-0.405-2.403c-0.776,0.911-1.472,1.553-2.091,1.924c-1.063,0.65-2.37,0.975-3.92,0.975
		c-2.552,0-4.643-0.881-6.271-2.648c-1.698-1.775-2.548-4.205-2.548-7.286c0-3.116,0.857-5.615,2.573-7.495
		c1.716-1.881,3.985-2.82,6.808-2.82c2.446,0,4.413,0.62,5.899,1.862c1.485,1.24,2.336,2.789,2.555,4.644L19.007,10.135
		L19.007,10.135z"/>
	<path fill="#231F20" d="M30.399,7.444h-3.775V4.008h3.775V7.444z M26.623,9.143h3.775v14.24h-3.775V9.143z"/>
	<path fill="#231F20" d="M41.049,4.08c0.905,0.374,1.635,1.063,2.192,2.064v-2.05h3.633v13.509c0,1.837-0.309,3.223-0.928,4.156
		c-1.063,1.602-3.102,2.402-6.114,2.402c-1.821,0-3.306-0.357-4.456-1.07c-1.149-0.715-1.785-1.781-1.906-3.202h4.049
		c0.105,0.436,0.274,0.75,0.51,0.941c0.399,0.341,1.075,0.509,2.025,0.509c1.341,0,2.238-0.448,2.692-1.346
		c0.296-0.575,0.444-1.541,0.444-2.901v-0.915c-0.358,0.61-0.741,1.068-1.15,1.371c-0.741,0.567-1.704,0.85-2.887,0.85
		c-1.83,0-3.291-0.643-4.384-1.928s-1.64-3.024-1.64-5.22c0-2.116,0.527-3.896,1.579-5.337c1.053-1.441,2.545-2.162,4.476-2.162
		C39.897,3.753,40.519,3.862,41.049,4.08z M42.318,14.291c0.599-0.658,0.897-1.706,0.897-3.143c0-1.35-0.283-2.377-0.852-3.083
		c-0.569-0.707-1.33-1.059-2.284-1.059c-1.302,0-2.199,0.614-2.693,1.842c-0.261,0.653-0.39,1.459-0.39,2.417
		c0,0.828,0.139,1.563,0.417,2.208c0.502,1.203,1.404,1.803,2.706,1.803C40.986,15.276,41.719,14.948,42.318,14.291z"/>
	<path fill="#2483C5" d="M53.726,23.383h-4.676l6.193-9.81L49.35,4.126h4.808l3.435,6.272l3.53-6.272h4.651l-5.892,9.29l6.257,9.968
		h-4.887l-3.659-6.566L53.726,23.383z"/>
	<g>
		<path fill="#2483C5" d="M5.366,27.877h6.177v1.521H7.165v1.992h3.837v1.506H7.165v3.633H5.366V27.877z"/>
		<path fill="#2483C5" d="M14.541,30.123v3.861c0,0.363,0.043,0.637,0.13,0.822c0.152,0.324,0.45,0.488,0.894,0.488
			c0.57,0,0.96-0.23,1.171-0.693c0.109-0.252,0.164-0.582,0.164-0.994v-3.484h1.699v6.406h-1.629v-0.908
			c-0.016,0.023-0.054,0.08-0.116,0.178c-0.063,0.1-0.137,0.186-0.224,0.26c-0.261,0.234-0.514,0.395-0.758,0.48
			c-0.245,0.086-0.531,0.129-0.859,0.129c-0.946,0-1.582-0.34-1.91-1.021c-0.185-0.377-0.275-0.932-0.275-1.662v-3.863h1.713V30.123
			z"/>
		<path fill="#2483C5" d="M19.855,31.375V30.18h0.893v-1.785h1.658v1.785h1.041v1.195h-1.041v3.385c0,0.262,0.033,0.426,0.1,0.49
			c0.067,0.063,0.271,0.098,0.612,0.098c0.051,0,0.104,0,0.161-0.002c0.058-0.004,0.113-0.008,0.168-0.012v1.254l-0.793,0.027
			c-0.793,0.027-1.333-0.109-1.623-0.412c-0.187-0.191-0.282-0.488-0.282-0.887v-3.941H19.855L19.855,31.375z"/>
		<path fill="#2483C5" d="M26.481,30.123v3.861c0,0.363,0.043,0.637,0.128,0.822c0.151,0.324,0.451,0.488,0.895,0.488
			c0.569,0,0.96-0.23,1.169-0.693c0.109-0.252,0.165-0.582,0.165-0.994v-3.484h1.698v6.406h-1.626v-0.908
			c-0.016,0.023-0.055,0.08-0.117,0.178c-0.063,0.1-0.137,0.186-0.223,0.26c-0.261,0.234-0.514,0.395-0.759,0.48
			c-0.244,0.086-0.531,0.129-0.859,0.129c-0.944,0-1.582-0.34-1.91-1.021c-0.185-0.377-0.275-0.932-0.275-1.662v-3.863h1.716V30.123
			z"/>
		<path fill="#2483C5" d="M36.012,29.973c0.022,0.002,0.07,0.004,0.144,0.008v1.717c-0.105-0.012-0.199-0.02-0.281-0.023
			s-0.148-0.006-0.199-0.006c-0.674,0-1.127,0.219-1.358,0.66c-0.129,0.246-0.194,0.625-0.194,1.139v3.063h-1.687v-6.406h1.598
			v1.115c0.259-0.428,0.484-0.719,0.676-0.875c0.314-0.262,0.721-0.393,1.223-0.393C35.963,29.971,35.991,29.971,36.012,29.973z"/>
		<path fill="#2483C5" d="M41.602,30.252c0.447,0.199,0.815,0.516,1.106,0.947c0.264,0.381,0.433,0.82,0.511,1.326
			c0.045,0.293,0.063,0.719,0.055,1.271h-4.667c0.026,0.643,0.25,1.094,0.67,1.352c0.256,0.162,0.563,0.242,0.924,0.242
			c0.381,0,0.692-0.1,0.932-0.295c0.129-0.105,0.244-0.254,0.343-0.441h1.71c-0.046,0.379-0.252,0.768-0.622,1.16
			c-0.573,0.621-1.376,0.932-2.411,0.932c-0.852,0-1.604-0.262-2.256-0.787c-0.652-0.527-0.977-1.379-0.977-2.564
			c0-1.111,0.294-1.961,0.883-2.553c0.588-0.594,1.353-0.889,2.292-0.889C40.652,29.953,41.156,30.053,41.602,30.252z
			 M39.096,31.699c-0.236,0.244-0.386,0.574-0.446,0.99h2.885c-0.03-0.443-0.18-0.781-0.446-1.012
			c-0.268-0.229-0.598-0.344-0.994-0.344C39.665,31.334,39.333,31.453,39.096,31.699z"/>
		<path fill="#2483C5" d="M53.387,35.744c-0.54,0.668-1.362,1.002-2.463,1.002c-1.102,0-1.922-0.334-2.462-1.002
			c-0.541-0.666-0.812-1.471-0.812-2.41c0-0.922,0.27-1.723,0.812-2.4c0.54-0.678,1.361-1.016,2.462-1.016
			c1.1,0,1.922,0.338,2.463,1.016c0.541,0.678,0.811,1.479,0.811,2.4C54.197,34.273,53.927,35.078,53.387,35.744z M52.046,34.82
			c0.262-0.35,0.395-0.844,0.395-1.486c0-0.641-0.133-1.135-0.395-1.482c-0.262-0.346-0.638-0.518-1.128-0.518
			c-0.489,0-0.867,0.172-1.131,0.518c-0.264,0.348-0.396,0.842-0.396,1.482c0,0.643,0.132,1.137,0.396,1.486
			c0.264,0.348,0.642,0.521,1.131,0.521C51.408,35.342,51.784,35.168,52.046,34.82z"/>
		<path fill="#2483C5" d="M58.337,27.787c0.087,0.006,0.204,0.014,0.353,0.025v1.361c-0.095-0.01-0.252-0.02-0.474-0.025
			c-0.221-0.004-0.373,0.043-0.458,0.148c-0.085,0.104-0.127,0.219-0.127,0.344c0,0.127,0,0.305,0,0.539h1.099v1.186H57.63v5.164
			h-1.663v-5.164h-0.941V30.18h0.917v-0.41c0-0.684,0.116-1.156,0.347-1.416c0.243-0.385,0.828-0.576,1.758-0.576
			C58.154,27.777,58.25,27.779,58.337,27.787z"/>
		<path fill="#2483C5" d="M64.931,27.865l1.142,4.963l0.249,1.377l0.251-1.35l0.978-4.99h1.911l1.03,4.959l0.263,1.381l0.268-1.326
			l1.155-5.014h1.843l-2.438,8.664H69.85l-1.046-5.066l-0.306-1.676l-0.306,1.676l-1.045,5.066h-1.681l-2.457-8.664H64.931
			L64.931,27.865z"/>
		<path fill="#2483C5" d="M80.398,35.744c-0.539,0.668-1.362,1.002-2.463,1.002s-1.921-0.334-2.462-1.002
			c-0.542-0.666-0.812-1.471-0.812-2.41c0-0.922,0.27-1.723,0.812-2.4c0.541-0.678,1.361-1.016,2.462-1.016s1.924,0.338,2.463,1.016
			s0.812,1.479,0.812,2.4C81.21,34.273,80.938,35.078,80.398,35.744z M79.058,34.82c0.264-0.35,0.395-0.844,0.395-1.486
			c0-0.641-0.131-1.135-0.395-1.482c-0.262-0.346-0.639-0.518-1.129-0.518c-0.488,0-0.865,0.172-1.131,0.518
			c-0.266,0.348-0.396,0.842-0.396,1.482c0,0.643,0.132,1.137,0.396,1.486c0.264,0.348,0.641,0.521,1.131,0.521
			S78.796,35.168,79.058,34.82z"/>
		<path fill="#2483C5" d="M86.257,29.973c0.021,0.002,0.069,0.006,0.143,0.008v1.717c-0.105-0.012-0.198-0.02-0.281-0.023
			c-0.082-0.004-0.149-0.006-0.199-0.006c-0.676,0-1.129,0.219-1.359,0.66c-0.129,0.246-0.194,0.625-0.194,1.139v3.063h-1.688
			v-6.406h1.601v1.115c0.257-0.428,0.483-0.719,0.674-0.875c0.314-0.262,0.723-0.393,1.224-0.393
			C86.207,29.971,86.234,29.971,86.257,29.973z"/>
		<path fill="#2483C5" d="M87.653,27.895h1.647v4.672l2.112-2.416h2.083L91.2,32.539l2.384,3.99h-2.038l-1.553-2.738l-0.692,0.723
			v2.016h-1.647V27.895L87.653,27.895z"/>
		<path fill="#2483C5" d="M104.239,32.779c-0.507,0.424-1.231,0.633-2.174,0.633h-1.803v3.117h-1.798v-8.664h3.72
			c0.858,0,1.54,0.223,2.051,0.668c0.509,0.447,0.767,1.141,0.767,2.078C105.002,31.635,104.745,32.355,104.239,32.779z
			 M102.856,29.658c-0.229-0.193-0.548-0.289-0.962-0.289h-1.632v2.551h1.632c0.414,0,0.732-0.102,0.962-0.311
			c0.232-0.207,0.346-0.537,0.346-0.988S103.089,29.85,102.856,29.658z"/>
		<path fill="#2483C5" d="M108.315,36.529h-1.676v-8.664h1.676V36.529z"/>
		<path fill="#2483C5" d="M112.775,32.633c0.312-0.041,0.534-0.088,0.669-0.148c0.242-0.1,0.36-0.26,0.36-0.477
			c0-0.262-0.09-0.441-0.275-0.543c-0.185-0.1-0.456-0.15-0.814-0.15c-0.401,0-0.685,0.098-0.85,0.295
			c-0.12,0.145-0.198,0.342-0.24,0.588h-1.617c0.037-0.561,0.194-1.02,0.475-1.383c0.442-0.563,1.207-0.844,2.289-0.844
			c0.706,0,1.331,0.137,1.878,0.416c0.547,0.277,0.821,0.803,0.821,1.574v2.938c0,0.205,0.003,0.453,0.014,0.742
			c0.01,0.219,0.043,0.369,0.098,0.447s0.138,0.143,0.249,0.193v0.248h-1.824c-0.05-0.129-0.086-0.252-0.105-0.365
			c-0.021-0.113-0.036-0.242-0.047-0.389c-0.232,0.252-0.501,0.465-0.804,0.643c-0.362,0.207-0.774,0.309-1.231,0.309
			c-0.582,0-1.065-0.164-1.445-0.496c-0.383-0.33-0.57-0.799-0.57-1.406c0-0.789,0.305-1.357,0.917-1.711
			c0.336-0.191,0.827-0.33,1.479-0.41L112.775,32.633z M113.798,33.412c-0.104,0.068-0.213,0.123-0.322,0.164
			s-0.26,0.078-0.45,0.113l-0.383,0.07c-0.355,0.064-0.614,0.141-0.768,0.23c-0.265,0.152-0.396,0.391-0.396,0.713
			c0,0.285,0.08,0.492,0.242,0.619c0.161,0.127,0.356,0.191,0.588,0.191c0.364,0,0.701-0.105,1.011-0.318
			c0.309-0.209,0.469-0.596,0.479-1.158v-0.625H113.798z"/>
		<path fill="#2483C5" d="M116.563,31.375V30.18h0.895v-1.785h1.655v1.785h1.042v1.195h-1.042v3.385c0,0.262,0.033,0.426,0.103,0.49
			c0.066,0.064,0.27,0.098,0.608,0.098c0.053,0,0.107,0,0.164-0.002c0.057-0.004,0.113-0.008,0.167-0.012v1.254l-0.795,0.027
			c-0.79,0.027-1.331-0.109-1.621-0.412c-0.188-0.191-0.281-0.488-0.281-0.887v-3.943h-0.895V31.375z"/>
		<path fill="#2483C5" d="M124.169,27.787c0.085,0.006,0.204,0.014,0.354,0.025v1.361c-0.096-0.01-0.253-0.02-0.473-0.025
			c-0.223-0.004-0.376,0.043-0.461,0.148c-0.082,0.104-0.126,0.219-0.126,0.344c0,0.127,0,0.305,0,0.539h1.1v1.186h-1.1v5.164
			h-1.662v-5.164h-0.941V30.18h0.917v-0.41c0-0.684,0.116-1.156,0.347-1.416c0.244-0.385,0.83-0.576,1.759-0.576
			C123.987,27.777,124.083,27.779,124.169,27.787z"/>
		<path fill="#2483C5" d="M131.16,35.744c-0.541,0.668-1.361,1.002-2.464,1.002c-1.1,0-1.921-0.334-2.462-1.002
			c-0.54-0.666-0.813-1.471-0.813-2.41c0-0.922,0.272-1.723,0.813-2.4c0.541-0.678,1.362-1.016,2.462-1.016
			c1.103,0,1.923,0.338,2.464,1.016c0.539,0.678,0.812,1.479,0.812,2.4C131.97,34.273,131.699,35.078,131.16,35.744z M129.818,34.82
			c0.262-0.35,0.396-0.844,0.396-1.486c0-0.641-0.134-1.135-0.396-1.482c-0.263-0.346-0.638-0.518-1.128-0.518
			s-0.865,0.172-1.133,0.518c-0.263,0.348-0.395,0.842-0.395,1.482c0,0.643,0.132,1.137,0.395,1.486
			c0.266,0.348,0.643,0.521,1.133,0.521S129.556,35.168,129.818,34.82z"/>
		<path fill="#2483C5" d="M137.019,29.973c0.021,0.002,0.069,0.006,0.143,0.008v1.717c-0.107-0.012-0.201-0.02-0.282-0.023
			c-0.083-0.004-0.149-0.006-0.201-0.006c-0.673,0-1.126,0.219-1.357,0.66c-0.128,0.246-0.193,0.625-0.193,1.139v3.063h-1.688
			v-6.406h1.601v1.115c0.257-0.428,0.483-0.719,0.674-0.875c0.313-0.262,0.721-0.393,1.226-0.393
			C136.969,29.971,136.994,29.971,137.019,29.973z"/>
		<path fill="#2483C5" d="M146.427,30.146c0.274,0.109,0.523,0.301,0.747,0.576c0.181,0.223,0.302,0.498,0.366,0.822
			c0.035,0.217,0.057,0.531,0.057,0.947l-0.013,4.037h-1.718v-4.078c0-0.242-0.037-0.441-0.115-0.602
			c-0.148-0.295-0.422-0.445-0.821-0.445c-0.464,0-0.782,0.193-0.959,0.578c-0.089,0.203-0.135,0.447-0.135,0.732v3.816h-1.688
			v-3.816c0-0.379-0.039-0.656-0.115-0.826c-0.144-0.309-0.42-0.465-0.831-0.465c-0.477,0-0.798,0.156-0.963,0.465
			c-0.089,0.176-0.135,0.439-0.135,0.787v3.855h-1.698v-6.395h1.629v0.934c0.209-0.332,0.402-0.568,0.586-0.711
			c0.326-0.25,0.747-0.377,1.267-0.377c0.489,0,0.883,0.109,1.187,0.324c0.242,0.201,0.427,0.457,0.55,0.768
			c0.22-0.375,0.493-0.65,0.819-0.828c0.344-0.176,0.729-0.264,1.151-0.264C145.873,29.98,146.149,30.037,146.427,30.146z"/>
	</g>
	<g>
		<path fill="#231F20" d="M78.146,23.393c-0.937,0.395-1.884,0.592-2.837,0.592c-1.506,0-2.861-0.262-4.063-0.787
			c-1.204-0.521-2.217-1.244-3.044-2.162c-0.826-0.917-1.46-1.996-1.9-3.235c-0.441-1.24-0.661-2.576-0.661-4.009
			c0-1.468,0.22-2.832,0.661-4.09c0.44-1.258,1.074-2.354,1.9-3.292c0.826-0.937,1.841-1.671,3.044-2.203
			c1.203-0.532,2.557-0.799,4.063-0.799c1.01,0,1.987,0.152,2.933,0.455c0.946,0.302,1.8,0.749,2.562,1.336
			c0.763,0.587,1.39,1.312,1.886,2.176c0.496,0.862,0.8,1.854,0.909,2.974h-4.131C79.21,9.247,78.714,8.421,77.98,7.87
			c-0.734-0.551-1.626-0.827-2.673-0.827c-0.974,0-1.799,0.188-2.479,0.564c-0.679,0.377-1.23,0.881-1.652,1.515
			c-0.421,0.634-0.729,1.355-0.923,2.162c-0.192,0.808-0.289,1.644-0.289,2.506c0,0.827,0.096,1.63,0.289,2.411
			c0.192,0.78,0.5,1.482,0.923,2.107c0.423,0.625,0.974,1.125,1.652,1.501c0.68,0.377,1.505,0.564,2.479,0.564
			c1.434,0,2.538-0.362,3.319-1.087c0.779-0.726,1.234-1.776,1.363-3.155h-4.353V12.91h8.266v10.629h-2.756l-0.44-2.229
			C79.936,22.305,79.081,22.998,78.146,23.393z"/>
		<path fill="#231F20" d="M91.011,3.877v19.666h-3.913V3.877H91.011z"/>
		<path fill="#231F20" d="M94.177,13.338c0.349-0.928,0.846-1.717,1.488-2.37c0.643-0.651,1.414-1.157,2.313-1.515
			c0.901-0.358,1.91-0.538,3.03-0.538s2.135,0.18,3.045,0.538c0.907,0.358,1.686,0.863,2.327,1.515
			c0.643,0.652,1.139,1.441,1.487,2.37c0.349,0.927,0.523,1.959,0.523,3.098c0,1.139-0.173,2.166-0.523,3.084
			c-0.349,0.918-0.845,1.704-1.487,2.354c-0.642,0.654-1.418,1.154-2.327,1.502c-0.91,0.348-1.925,0.525-3.045,0.525
			s-2.129-0.178-3.03-0.525c-0.899-0.348-1.67-0.848-2.313-1.502c-0.643-0.65-1.14-1.436-1.488-2.354
			c-0.349-0.918-0.522-1.947-0.522-3.084C93.654,15.298,93.827,14.266,94.177,13.338z M97.73,18.104
			c0.111,0.541,0.299,1.027,0.564,1.46c0.266,0.432,0.621,0.776,1.062,1.034c0.439,0.256,0.991,0.386,1.651,0.386
			s1.216-0.129,1.664-0.386c0.451-0.258,0.809-0.602,1.077-1.034c0.265-0.431,0.452-0.918,0.564-1.46
			c0.109-0.542,0.164-1.098,0.164-1.667c0-0.569-0.056-1.129-0.164-1.681c-0.112-0.551-0.3-1.038-0.564-1.459
			c-0.269-0.421-0.626-0.766-1.077-1.033c-0.448-0.266-1.004-0.399-1.664-0.399c-0.661,0-1.212,0.134-1.651,0.399
			c-0.442,0.267-0.796,0.612-1.062,1.033c-0.266,0.422-0.453,0.908-0.564,1.459c-0.111,0.552-0.165,1.112-0.165,1.681
			C97.565,17.006,97.619,17.561,97.73,18.104z"/>
		<path fill="#231F20" d="M114.835,3.877v7.161h0.055c0.477-0.733,1.124-1.271,1.942-1.611c0.815-0.34,1.665-0.511,2.548-0.511
			c0.715,0,1.421,0.147,2.12,0.441c0.697,0.294,1.326,0.744,1.886,1.349c0.561,0.606,1.015,1.382,1.363,2.328
			s0.524,2.071,0.524,3.375c0,1.303-0.174,2.428-0.524,3.373c-0.349,0.946-0.803,1.72-1.363,2.328
			c-0.561,0.605-1.188,1.057-1.886,1.348c-0.699,0.295-1.406,0.443-2.12,0.443c-1.048,0-1.983-0.166-2.812-0.496
			c-0.825-0.33-1.45-0.893-1.873-1.682h-0.055v1.816h-3.719V3.877H114.835z M121.17,14.701c-0.127-0.551-0.33-1.036-0.606-1.46
			c-0.276-0.421-0.619-0.757-1.033-1.004c-0.413-0.248-0.913-0.373-1.501-0.373c-0.569,0-1.065,0.125-1.488,0.373
			s-0.771,0.583-1.046,1.004c-0.276,0.424-0.479,0.91-0.606,1.46c-0.128,0.551-0.193,1.129-0.193,1.736
			c0,0.587,0.065,1.157,0.193,1.707c0.128,0.551,0.33,1.038,0.606,1.46c0.274,0.422,0.623,0.756,1.046,1.005
			c0.423,0.248,0.919,0.373,1.488,0.373c0.587,0,1.088-0.125,1.501-0.373c0.414-0.249,0.757-0.583,1.033-1.005
			c0.276-0.423,0.479-0.909,0.606-1.46c0.128-0.55,0.193-1.119,0.193-1.707C121.363,15.831,121.298,15.252,121.17,14.701z"/>
		<path fill="#231F20" d="M128.275,11.396c0.404-0.606,0.918-1.092,1.543-1.46c0.624-0.367,1.325-0.628,2.107-0.784
			c0.78-0.156,1.563-0.234,2.354-0.234c0.716,0,1.441,0.052,2.176,0.153c0.734,0.102,1.405,0.299,2.011,0.591
			c0.606,0.293,1.102,0.702,1.488,1.226c0.386,0.523,0.577,1.217,0.577,2.08v7.41c0,0.643,0.037,1.258,0.111,1.846
			c0.074,0.586,0.203,1.029,0.386,1.322h-3.967c-0.072-0.221-0.133-0.445-0.178-0.676c-0.048-0.23-0.078-0.463-0.097-0.701
			c-0.624,0.641-1.359,1.094-2.204,1.35s-1.707,0.385-2.588,0.385c-0.68,0-1.314-0.082-1.901-0.25
			c-0.587-0.164-1.102-0.422-1.543-0.77s-0.784-0.789-1.033-1.324c-0.247-0.531-0.371-1.163-0.371-1.898
			c0-0.808,0.142-1.474,0.426-1.997c0.285-0.523,0.653-0.941,1.102-1.253c0.451-0.313,0.966-0.546,1.544-0.703
			c0.577-0.155,1.161-0.279,1.746-0.372c0.59-0.091,1.168-0.164,1.738-0.221c0.568-0.054,1.074-0.138,1.516-0.248
			c0.439-0.11,0.788-0.271,1.046-0.482c0.257-0.21,0.375-0.518,0.356-0.922c0-0.423-0.068-0.758-0.205-1.005
			c-0.139-0.248-0.323-0.44-0.551-0.579c-0.23-0.138-0.496-0.229-0.801-0.276c-0.302-0.045-0.628-0.068-0.977-0.068
			c-0.771,0-1.378,0.165-1.817,0.495c-0.442,0.332-0.698,0.883-0.771,1.652h-3.912C127.643,12.765,127.873,12.001,128.275,11.396z
			 M136.002,16.919c-0.248,0.082-0.515,0.151-0.799,0.207c-0.285,0.054-0.582,0.101-0.896,0.137
			c-0.312,0.038-0.625,0.083-0.937,0.14c-0.295,0.054-0.583,0.128-0.867,0.219c-0.285,0.092-0.534,0.215-0.743,0.372
			c-0.212,0.156-0.382,0.354-0.51,0.591c-0.129,0.239-0.194,0.543-0.194,0.91c0,0.349,0.065,0.643,0.194,0.881
			c0.128,0.239,0.303,0.428,0.522,0.566c0.222,0.137,0.478,0.233,0.771,0.29c0.293,0.055,0.595,0.082,0.908,0.082
			c0.771,0,1.369-0.131,1.79-0.387c0.422-0.255,0.733-0.564,0.937-0.921c0.202-0.358,0.325-0.721,0.372-1.088
			c0.045-0.367,0.069-0.661,0.069-0.881v-1.46C136.456,16.722,136.249,16.835,136.002,16.919z"/>
		<path fill="#231F20" d="M147.584,3.877v19.666h-3.911V3.877H147.584z"/>
	</g>
</g>
</svg>
