<?xml version="1.0" encoding="utf-8"?>
<!-- Generator: Adobe Illustrator 16.0.0, SVG Export Plug-In . SVG Version: 6.00 Build 0)  -->
<!DOCTYPE svg PUBLIC "-//W3C//DTD SVG 1.1//EN" "http://www.w3.org/Graphics/SVG/1.1/DTD/svg11.dtd">
<svg version="1.1" id="Layer_1" xmlns="http://www.w3.org/2000/svg" xmlns:xlink="http://www.w3.org/1999/xlink" x="0px" y="0px"
	 width="512px" height="512px" viewBox="0 0 512 512" enable-background="new 0 0 512 512" xml:space="preserve">
<g display="none">
	<path display="inline" fill="#1D89C2" d="M419.397,332.157h-297.57c-1.607,0-2.912-1.303-2.912-2.918v-174.26
		c0-1.607,1.304-2.911,2.912-2.911h297.57c1.607,0,2.924,1.304,2.924,2.911v174.26C422.321,330.854,421.005,332.157,419.397,332.157
		 M124.732,326.331h291.754V157.897H124.732V326.331z"/>
	<path display="inline" fill="#1D89C2" d="M444.857,157.891H96.336c-1.608,0-2.912-1.304-2.912-2.912v-25.08
		c0-1.614,1.304-2.915,2.912-2.915h348.521c1.607,0,2.912,1.301,2.912,2.915v25.08C447.77,156.587,446.465,157.891,444.857,157.891
		 M99.261,152.068h342.678v-19.257H99.261V152.068z"/>
	<path display="inline" fill="#1D89C2" d="M349.45,305.432h-20.89c-1.607,0-2.924-1.304-2.924-2.917V196.406
		c0-1.614,1.316-2.925,2.924-2.925h20.89c1.607,0,2.912,1.311,2.912,2.925v106.108C352.362,304.128,351.058,305.432,349.45,305.432
		 M331.466,299.605h15.072V199.315h-15.072V299.605z"/>
	<path display="inline" fill="#1D89C2" d="M315.25,305.432h-20.897c-1.601,0-2.905-1.304-2.905-2.917v-92.976
		c0-1.615,1.305-2.919,2.905-2.919h20.897c1.607,0,2.91,1.304,2.91,2.919v92.976C318.16,304.128,316.857,305.432,315.25,305.432
		 M297.278,299.605h15.066v-87.149h-15.066V299.605z"/>
	<path display="inline" fill="#1D89C2" d="M281.072,305.432h-20.896c-1.613,0-2.918-1.304-2.918-2.917v-80.168
		c0-1.607,1.305-2.918,2.918-2.918h20.896c1.609,0,2.912,1.311,2.912,2.918v80.168C283.984,304.128,282.682,305.432,281.072,305.432
		 M263.089,299.605h15.059v-74.35h-15.059V299.605z"/>
	<path display="inline" fill="#1D89C2" d="M246.872,305.432h-20.896c-1.621,0-2.911-1.304-2.911-2.917V240.16
		c0-1.607,1.291-2.918,2.911-2.918h20.896c1.608,0,2.906,1.311,2.906,2.918v62.355C249.777,304.128,248.479,305.432,246.872,305.432
		 M228.888,299.605h15.065v-56.53h-15.065V299.605z"/>
	<path display="inline" fill="#1D89C2" d="M212.67,305.432h-20.896c-1.607,0-2.912-1.304-2.912-2.917v-43.799
		c0-1.613,1.305-2.918,2.912-2.918h20.896c1.608,0,2.912,1.305,2.912,2.918v43.799C215.582,304.128,214.278,305.432,212.67,305.432
		 M194.693,299.605h15.053v-37.971h-15.053V299.605z"/>
	<path display="inline" fill="#1D89C2" d="M363.655,318.364H177.576c-1.614,0-2.912-1.303-2.912-2.91
		c0-1.615,1.298-2.916,2.912-2.916h186.079c1.607,0,2.912,1.301,2.912,2.916C366.567,317.062,365.263,318.364,363.655,318.364"/>
	<path display="inline" fill="#1D89C2" d="M191.826,243.113c-1.197,0-2.311-0.738-2.742-1.931c-0.544-1.504,0.241-3.178,1.76-3.723
		c0.778-0.285,78.619-28.618,112.757-68.365c1.057-1.219,2.879-1.361,4.107-0.31c1.216,1.044,1.354,2.89,0.312,4.102
		c-35.146,40.921-111.961,68.884-115.214,70.051C192.49,243.056,192.154,243.113,191.826,243.113"/>
	<path display="inline" fill="#1D89C2" d="M305.406,191.719c-1.614,0-2.919-1.304-2.919-2.918v-14.395l-13.527,0.07h-0.013
		c-1.601,0-2.898-1.289-2.912-2.896c0-1.602,1.291-2.925,2.9-2.931l16.457-0.076c0.899,0.044,1.508,0.304,2.063,0.849
		c0.546,0.544,0.861,1.288,0.861,2.06v17.319C308.317,190.415,307.014,191.719,305.406,191.719"/>
	<path display="inline" fill="#1D89C2" d="M281.928,132.808H259.31c-1.607,0-2.911-1.301-2.911-2.909v-17.73
		c0-7.849,6.368-14.24,14.191-14.24c7.856,0,14.25,6.391,14.25,14.24v17.73C284.84,131.507,283.535,132.808,281.928,132.808
		 M262.223,126.981h16.793v-14.813c0-4.64-3.779-8.419-8.426-8.419c-4.615,0-8.367,3.779-8.367,8.419V126.981z"/>
	<path display="inline" fill="#1D89C2" d="M407.984,442.409c-1.607,0-2.905-1.305-2.905-2.912V426.08
		c0-10.46-8.508-18.964-18.966-18.964h-31.574c-10.456,0-18.964,8.504-18.964,18.964v13.417c0,1.607-1.304,2.912-2.912,2.912
		c-1.607,0-2.912-1.305-2.912-2.912V426.08c0-13.676,11.115-24.797,24.788-24.797h31.574c13.661,0,24.783,11.121,24.783,24.797
		v13.417C410.896,441.104,409.592,442.409,407.984,442.409 M304.419,442.409c-1.621,0-2.919-1.305-2.919-2.912V426.08
		c0-10.46-8.501-18.964-18.958-18.964h-31.569c-10.457,0-18.971,8.504-18.971,18.964v13.417c0,1.607-1.305,2.912-2.912,2.912
		c-1.608,0-2.912-1.305-2.912-2.912V426.08c0-13.676,11.123-24.797,24.795-24.797h31.569c13.673,0,24.788,11.121,24.788,24.797
		v13.417C307.33,441.104,306.026,442.409,304.419,442.409 M208.568,442.409c-1.614,0-2.918-1.305-2.918-2.912V426.08
		c0-10.46-8.501-18.964-18.952-18.964H155.11c-10.451,0-18.958,8.504-18.958,18.964v13.417c0,1.607-1.298,2.912-2.912,2.912
		c-1.608,0-2.912-1.305-2.912-2.912V426.08c0-13.676,11.128-24.797,24.782-24.797h31.587c13.667,0,24.782,11.121,24.782,24.797
		v13.417C211.48,441.104,210.176,442.409,208.568,442.409 M369.77,397.503c-12.919,0-23.44-10.494-23.44-23.396
		c0-12.926,10.521-23.437,23.44-23.437c12.926,0,23.446,10.511,23.446,23.437C393.216,387.009,382.695,397.503,369.77,397.503
		 M352.211,375.592c0.771,8.998,8.355,16.089,17.559,16.089c9.71,0,17.617-7.882,17.617-17.573c0-0.674-0.031-1.323-0.107-1.975
		c-5.166,0.465-10.11-0.817-14.382-3.47C367.649,374.192,359.92,376.876,352.211,375.592 M352.703,369.765
		c6.653,1.279,13.345-1.386,17.357-6.76c0.482-0.643,1.185-1.052,1.969-1.146c0.779-0.11,1.576,0.128,2.189,0.62
		c3.236,2.593,7.439,3.929,11.389,3.915c-2.874-5.857-8.887-9.902-15.838-9.902C361.561,356.491,354.642,362.144,352.703,369.765
		 M266.203,397.503c-12.92,0-23.44-10.494-23.44-23.396c0-12.926,10.52-23.437,23.44-23.437c10.724,0,19.795,7.238,22.567,17.084
		c0.063,0.174,0.114,0.345,0.151,0.525c0.014,0.061,0.025,0.117,0.038,0.187c0.443,1.804,0.684,3.697,0.684,5.641
		C289.644,387.009,279.13,397.503,266.203,397.503 M248.65,375.586c0.753,9.004,8.343,16.095,17.553,16.095
		c9.717,0,17.616-7.882,17.616-17.573c0-0.668-0.036-1.323-0.112-1.975c-5.077,0.452-10.078-0.823-14.339-3.476
		C264.121,374.127,256.36,376.883,248.65,375.586 M249.131,369.758c6.729,1.312,13.452-1.464,17.42-6.753
		c0.462-0.643,1.171-1.052,1.962-1.146c0.747-0.11,1.57,0.128,2.184,0.62c3.26,2.621,7.033,3.915,11.344,3.915
		c-2.867-5.857-8.887-9.902-15.838-9.902C257.981,356.491,251.068,362.137,249.131,369.758 M170.36,397.503
		c-12.926,0-23.446-10.494-23.446-23.396c0-12.926,10.521-23.437,23.446-23.437c12.919,0,23.434,10.511,23.434,23.437
		C193.793,387.009,183.279,397.503,170.36,397.503 M152.8,375.586c0.753,9.004,8.343,16.095,17.56,16.095
		c9.71,0,17.61-7.882,17.61-17.573c0-0.674-0.038-1.323-0.114-1.975c-5.159,0.465-10.115-0.817-14.382-3.47
		C168.246,374.186,160.592,376.876,152.8,375.586 M153.275,369.765c6.761,1.292,13.363-1.398,17.376-6.76
		c0.469-0.643,1.177-1.052,1.95-1.146c0.798-0.11,1.595,0.128,2.203,0.62c3.228,2.593,7.419,3.929,11.381,3.915
		c-2.861-5.857-8.881-9.902-15.825-9.902C162.137,356.491,155.218,362.144,153.275,369.765"/>
</g>
<g display="none">
	<g display="inline">
		<path fill="#1D89C2" d="M386.16,366.742h-42.088c-1.424,0-2.587-1.156-2.587-2.582V150.514c0-1.423,1.163-2.584,2.587-2.584
			h42.088c1.424,0,2.587,1.161,2.587,2.584V364.16C388.747,365.586,387.584,366.742,386.16,366.742 M346.654,361.581h36.93v-208.48
			h-36.93V361.581z"/>
		<path fill="#1D89C2" d="M330.041,366.742h-42.104c-1.424,0-2.582-1.156-2.582-2.582V177c0-1.421,1.158-2.58,2.582-2.58h42.104
			c1.429,0,2.582,1.159,2.582,2.58V364.16C332.623,365.586,331.47,366.742,330.041,366.742 M290.514,361.581h36.94V179.586h-36.94
			V361.581z"/>
		<path fill="#1D89C2" d="M273.9,366.742h-42.098c-1.423,0-2.582-1.156-2.582-2.582V202.742c0-1.421,1.159-2.582,2.582-2.582H273.9
			c1.429,0,2.582,1.161,2.582,2.582V364.16C276.482,365.586,275.329,366.742,273.9,366.742 M234.389,361.581h36.935V205.327h-36.935
			V361.581z"/>
		<path fill="#1D89C2" d="M217.776,366.742h-42.109c-1.423,0-2.577-1.156-2.577-2.582V238.615c0-1.42,1.153-2.574,2.577-2.574
			h42.109c1.423,0,2.576,1.153,2.576,2.574V364.16C220.353,365.586,219.2,366.742,217.776,366.742 M178.249,361.581h36.94V241.202
			h-36.94V361.581z"/>
		<path fill="#1D89C2" d="M161.636,366.742h-42.104c-1.423,0-2.577-1.156-2.577-2.582v-88.133c0-1.426,1.153-2.584,2.577-2.584
			h42.104c1.429,0,2.582,1.158,2.582,2.584v88.133C164.218,365.586,163.064,366.742,161.636,366.742 M122.114,361.581h36.94v-82.974
			h-36.94V361.581z"/>
		<path fill="#1D89C2" d="M407.22,379.988H98.493c-1.429,0-2.582-1.158-2.582-2.579c0-1.431,1.153-2.584,2.582-2.584H407.22
			c1.424,0,2.577,1.153,2.577,2.584C409.797,378.83,408.644,379.988,407.22,379.988"/>
		<path fill="#1D89C2" d="M110.94,244.727c-1.06,0-2.047-0.655-2.421-1.707c-0.488-1.343,0.208-2.821,1.548-3.299
			c1.387-0.501,138.867-50.514,199.282-120.901c0.94-1.091,2.562-1.208,3.637-0.281c1.086,0.925,1.205,2.556,0.281,3.642
			c-61.31,71.431-200.063,121.891-201.455,122.392C111.527,244.675,111.236,244.727,110.94,244.727"/>
	</g>
	<path display="inline" fill="#1D89C2" d="M310.597,154.358h-0.011c-1.418-0.005-2.57-1.159-2.57-2.58l0.03-27.862l-26.332,0.12
		h-0.011c-1.418,0-2.576-1.148-2.576-2.574c-0.011-1.421,1.143-2.58,2.566-2.59l28.914-0.127c0.551-0.055,1.351,0.265,1.839,0.75
		c0.483,0.488,0.759,1.143,0.759,1.829l-0.031,30.459C313.168,153.205,312.016,154.358,310.597,154.358"/>
</g>
<g>
	<path fill="#1D89C2" d="M408.654,422.47H89.513c-0.986,0-1.896-0.522-2.4-1.355c-5.324-8.819-8.141-18.956-8.141-29.345
		c0-3.215,0.285-6.537,0.849-9.889c4.796-27.3,28.388-47.1,56.11-47.1c7.41,0,14.577,1.382,21.346,4.123
		c5.788-18.006,22.451-30.309,41.615-30.309c16.366,0,31.157,9.055,38.681,23.383c7.796-6.365,17.47-9.82,27.627-9.82
		c11.309,0,22.219,4.431,30.349,12.257c13.62-13.4,32.143-21.019,51.261-21.019c40.272,0,73.034,32.758,73.034,73.025
		c0,12.069-3.02,24.031-8.724,34.573C410.626,421.898,409.694,422.47,408.654,422.47 M91.119,416.859h315.848
		c4.759-9.365,7.267-19.848,7.267-30.438c0-37.183-30.241-67.434-67.424-67.434c-18.554,0-36.494,7.784-49.217,21.357
		c-0.529,0.568-1.272,0.889-2.044,0.889h-0.019c-0.784-0.012-1.526-0.346-2.057-0.924c-7.243-7.984-17.542-12.565-28.273-12.565
		c-9.984,0-19.438,3.848-26.61,10.817c-0.667,0.654-1.605,0.928-2.515,0.737c-0.909-0.181-1.663-0.808-2.019-1.667
		c-5.961-14.232-19.765-23.439-35.163-23.439c-17.679,0-32.922,12.024-37.063,29.233c-0.196,0.815-0.755,1.504-1.515,1.872
		c-0.767,0.356-1.652,0.356-2.413,0c-6.894-3.269-14.286-4.915-21.97-4.915c-24.994,0-46.269,17.846-50.583,42.437
		c-0.511,3.03-0.767,6.037-0.767,8.949C84.581,400.613,86.833,409.254,91.119,416.859"/>
	<path fill="#1D89C2" d="M320.163,385.149H82.584c-1.545,0-2.799-1.26-2.799-2.805c0-1.556,1.254-2.805,2.799-2.805h237.579
		c1.551,0,2.805,1.249,2.805,2.805C322.968,383.89,321.714,385.149,320.163,385.149"/>
	<path fill="#1D89C2" d="M285.904,293.676c-9.877,0-20.579-1.138-31.799-3.381c-1.112-0.227-1.979-1.091-2.199-2.199
		c-7.944-39.724-1.871-70.963,17.561-90.354c13.881-13.879,33.576-20.918,58.54-20.918c9.87,0,20.567,1.129,31.816,3.364
		c1.112,0.226,1.974,1.091,2.199,2.199c7.88,39.735,1.807,70.969-17.561,90.351C330.568,286.631,310.863,293.676,285.904,293.676
		 M257.035,285.156c10.196,1.93,19.896,2.916,28.869,2.916c23.419,0,41.794-6.492,54.594-19.295
		c17.691-17.703,23.349-46.522,16.384-83.446c-10.202-1.928-19.908-2.903-28.875-2.903c-23.426,0-41.782,6.486-54.583,19.278
		C255.674,219.42,250.022,248.245,257.035,285.156"/>
	<path fill="#1D89C2" d="M225.569,294.397h-0.006c-17.364,0-31.074-4.914-40.736-14.621c-13.507-13.483-17.75-35.16-12.277-62.659
		c0.22-1.114,1.087-1.991,2.199-2.208c7.743-1.533,15.124-2.321,21.934-2.321c17.34,0,31.044,4.9,40.725,14.568
		c13.525,13.516,17.774,35.198,12.3,62.726c-0.219,1.109-1.093,1.977-2.205,2.197C239.765,293.62,232.379,294.397,225.569,294.397
		 M177.689,220.056c-4.552,24.695-0.731,43.955,11.107,55.771c8.575,8.611,20.948,12.973,36.767,12.979h0.006
		c5.907,0,12.29-0.63,18.998-1.866c4.559-24.711,0.725-43.983-11.112-55.818C221.641,219.343,202.328,215.528,177.689,220.056"/>
	<path fill="#1D89C2" d="M254.659,290.345c-0.703,0-1.397-0.262-1.95-0.771c-1.105-1.076-1.147-2.847-0.072-3.962l70.104-73.12
		c1.063-1.12,2.841-1.138,3.952-0.086c1.117,1.073,1.158,2.849,0.09,3.97l-70.116,73.105
		C256.125,290.06,255.389,290.345,254.659,290.345"/>
	<path fill="#1D89C2" d="M250.059,328.907c-1.552,0-2.805-1.255-2.805-2.806V164.909c0-1.545,1.253-2.799,2.805-2.799
		c1.545,0,2.8,1.254,2.8,2.799v161.193C252.858,327.652,251.604,328.907,250.059,328.907"/>
	<path fill="#1D89C2" d="M298.044,245.085c-1.444,0-2.661-1.12-2.787-2.578l-3.269-39.999c-0.124-1.54,1.022-2.895,2.567-3.02
		c1.528-0.145,2.895,1.022,3.014,2.564l3.269,40.002c0.124,1.539-1.017,2.897-2.562,3.024
		C298.199,245.08,298.121,245.085,298.044,245.085"/>
	<path fill="#1D89C2" d="M271.237,273.094c-1.354,0-2.544-0.98-2.764-2.359c-0.243-1.526,0.797-2.965,2.323-3.203l43.024-6.81
		c1.492-0.244,2.966,0.8,3.198,2.332c0.243,1.527-0.797,2.957-2.324,3.206l-43.019,6.799
		C271.529,273.082,271.38,273.094,271.237,273.094"/>
	<path fill="#1D89C2" d="M246.963,292.141c-0.737,0-1.475-0.292-2.022-0.872l-48.377-50.414c-1.07-1.114-1.034-2.885,0.077-3.963
		c1.117-1.063,2.894-1.034,3.963,0.086l48.378,50.417c1.07,1.115,1.034,2.886-0.083,3.961
		C248.354,291.872,247.657,292.141,246.963,292.141"/>
	<path fill="#1D89C2" d="M193.277,263.057c-1.135,0-2.193-0.686-2.615-1.812c-0.558-1.445,0.178-3.066,1.623-3.617l17.845-6.753
		c1.457-0.553,3.061,0.189,3.613,1.637c0.547,1.441-0.185,3.066-1.628,3.601l-17.845,6.771
		C193.943,262.997,193.609,263.057,193.277,263.057"/>
	<path fill="#1D89C2" d="M230.941,275.424c-0.066,0-0.131,0-0.19-0.006c-1.539-0.099-2.722-1.429-2.609-2.969l1.742-26.79
		c0.095-1.551,1.432-2.712,2.972-2.603c1.545,0.092,2.715,1.428,2.614,2.969l-1.74,26.784
		C233.632,274.285,232.403,275.424,230.941,275.424"/>
	<path fill="#1D89C2" d="M250.059,167.708c-22.309,0-40.457-18.143-40.457-40.463c0-22.33,18.148-40.499,40.457-40.499
		c22.314,0,40.468,18.169,40.468,40.499C290.526,149.565,272.373,167.708,250.059,167.708 M250.059,92.344
		c-19.218,0-34.854,15.659-34.854,34.901c0,19.227,15.635,34.865,34.854,34.865c19.225,0,34.859-15.638,34.859-34.865
		C284.918,108.003,269.283,92.344,250.059,92.344"/>
	<path fill="#1D89C2" d="M144.815,188.16c-7.101,0-12.877-5.792-12.877-12.916c0-7.102,5.776-12.878,12.877-12.878
		c7.12,0,12.925,5.776,12.925,12.878C157.74,182.368,151.935,188.16,144.815,188.16 M144.815,167.975
		c-4.017,0-7.279,3.263-7.279,7.269c0,4.026,3.263,7.312,7.279,7.312c4.029,0,7.315-3.286,7.315-7.312
		C152.13,171.238,148.844,167.975,144.815,167.975"/>
	<path fill="#1D89C2" d="M351.486,145.391c-7.102,0-12.883-5.791-12.883-12.91c0-7.101,5.781-12.872,12.883-12.872
		c7.118,0,12.925,5.771,12.925,12.872C364.411,139.6,358.604,145.391,351.486,145.391 M351.486,125.207
		c-4.018,0-7.28,3.262-7.28,7.273c0,4.026,3.263,7.306,7.28,7.306c4.035,0,7.315-3.28,7.315-7.306
		C358.802,128.469,355.521,125.207,351.486,125.207"/>
</g>
</svg>
