<?xml version="1.0" encoding="utf-8"?>
<!-- Generator: Adobe Illustrator 16.0.0, SVG Export Plug-In . SVG Version: 6.00 Build 0)  -->
<!DOCTYPE svg PUBLIC "-//W3C//DTD SVG 1.1//EN" "http://www.w3.org/Graphics/SVG/1.1/DTD/svg11.dtd">
<svg version="1.1" id="Layer_1" xmlns="http://www.w3.org/2000/svg" xmlns:xlink="http://www.w3.org/1999/xlink" x="0px" y="0px"
	 width="512px" height="512px" viewBox="0 0 512 512" enable-background="new 0 0 512 512" xml:space="preserve">
<g display="none">
	<path display="inline" fill="#1D89C2" d="M419.397,332.157h-297.57c-1.607,0-2.912-1.303-2.912-2.918v-174.26
		c0-1.607,1.304-2.911,2.912-2.911h297.57c1.607,0,2.924,1.304,2.924,2.911v174.26C422.321,330.854,421.005,332.157,419.397,332.157
		 M124.732,326.331h291.754V157.897H124.732V326.331z"/>
	<path display="inline" fill="#1D89C2" d="M444.857,157.891H96.336c-1.608,0-2.912-1.304-2.912-2.912v-25.08
		c0-1.614,1.304-2.915,2.912-2.915h348.521c1.607,0,2.912,1.301,2.912,2.915v25.08C447.77,156.587,446.465,157.891,444.857,157.891
		 M99.261,152.068h342.678v-19.257H99.261V152.068z"/>
	<path display="inline" fill="#1D89C2" d="M349.45,305.432h-20.89c-1.607,0-2.924-1.304-2.924-2.917V196.406
		c0-1.614,1.316-2.925,2.924-2.925h20.89c1.607,0,2.912,1.311,2.912,2.925v106.108C352.362,304.128,351.058,305.432,349.45,305.432
		 M331.466,299.605h15.072V199.315h-15.072V299.605z"/>
	<path display="inline" fill="#1D89C2" d="M315.25,305.432h-20.897c-1.601,0-2.905-1.304-2.905-2.917v-92.976
		c0-1.615,1.305-2.919,2.905-2.919h20.897c1.607,0,2.91,1.304,2.91,2.919v92.976C318.16,304.128,316.857,305.432,315.25,305.432
		 M297.278,299.605h15.066v-87.149h-15.066V299.605z"/>
	<path display="inline" fill="#1D89C2" d="M281.072,305.432h-20.896c-1.613,0-2.918-1.304-2.918-2.917v-80.168
		c0-1.607,1.305-2.918,2.918-2.918h20.896c1.609,0,2.912,1.311,2.912,2.918v80.168C283.984,304.128,282.682,305.432,281.072,305.432
		 M263.089,299.605h15.059v-74.35h-15.059V299.605z"/>
	<path display="inline" fill="#1D89C2" d="M246.872,305.432h-20.896c-1.621,0-2.911-1.304-2.911-2.917V240.16
		c0-1.607,1.291-2.918,2.911-2.918h20.896c1.608,0,2.906,1.311,2.906,2.918v62.355C249.777,304.128,248.479,305.432,246.872,305.432
		 M228.888,299.605h15.065v-56.53h-15.065V299.605z"/>
	<path display="inline" fill="#1D89C2" d="M212.67,305.432h-20.896c-1.607,0-2.912-1.304-2.912-2.917v-43.799
		c0-1.613,1.305-2.918,2.912-2.918h20.896c1.608,0,2.912,1.305,2.912,2.918v43.799C215.582,304.128,214.278,305.432,212.67,305.432
		 M194.693,299.605h15.053v-37.971h-15.053V299.605z"/>
	<path display="inline" fill="#1D89C2" d="M363.655,318.364H177.576c-1.614,0-2.912-1.303-2.912-2.91
		c0-1.615,1.298-2.916,2.912-2.916h186.079c1.607,0,2.912,1.301,2.912,2.916C366.567,317.062,365.263,318.364,363.655,318.364"/>
	<path display="inline" fill="#1D89C2" d="M191.826,243.113c-1.197,0-2.311-0.738-2.742-1.931c-0.544-1.504,0.241-3.178,1.76-3.723
		c0.778-0.285,78.619-28.618,112.757-68.365c1.057-1.219,2.879-1.361,4.107-0.31c1.216,1.044,1.354,2.89,0.312,4.102
		c-35.146,40.921-111.961,68.884-115.214,70.051C192.49,243.056,192.154,243.113,191.826,243.113"/>
	<path display="inline" fill="#1D89C2" d="M305.406,191.719c-1.614,0-2.919-1.304-2.919-2.918v-14.395l-13.527,0.07h-0.013
		c-1.601,0-2.898-1.289-2.912-2.896c0-1.602,1.291-2.925,2.9-2.931l16.457-0.076c0.899,0.044,1.508,0.304,2.063,0.849
		c0.546,0.544,0.861,1.288,0.861,2.06v17.319C308.317,190.415,307.014,191.719,305.406,191.719"/>
	<path display="inline" fill="#1D89C2" d="M281.928,132.808H259.31c-1.607,0-2.911-1.301-2.911-2.909v-17.73
		c0-7.849,6.368-14.24,14.191-14.24c7.856,0,14.25,6.391,14.25,14.24v17.73C284.84,131.507,283.535,132.808,281.928,132.808
		 M262.223,126.981h16.793v-14.813c0-4.64-3.779-8.419-8.426-8.419c-4.615,0-8.367,3.779-8.367,8.419V126.981z"/>
	<path display="inline" fill="#1D89C2" d="M407.984,442.409c-1.607,0-2.905-1.305-2.905-2.912V426.08
		c0-10.46-8.508-18.964-18.966-18.964h-31.574c-10.456,0-18.964,8.504-18.964,18.964v13.417c0,1.607-1.304,2.912-2.912,2.912
		c-1.607,0-2.912-1.305-2.912-2.912V426.08c0-13.676,11.115-24.797,24.788-24.797h31.574c13.661,0,24.783,11.121,24.783,24.797
		v13.417C410.896,441.104,409.592,442.409,407.984,442.409 M304.419,442.409c-1.621,0-2.919-1.305-2.919-2.912V426.08
		c0-10.46-8.501-18.964-18.958-18.964h-31.569c-10.457,0-18.971,8.504-18.971,18.964v13.417c0,1.607-1.305,2.912-2.912,2.912
		c-1.608,0-2.912-1.305-2.912-2.912V426.08c0-13.676,11.123-24.797,24.795-24.797h31.569c13.673,0,24.788,11.121,24.788,24.797
		v13.417C307.33,441.104,306.026,442.409,304.419,442.409 M208.568,442.409c-1.614,0-2.918-1.305-2.918-2.912V426.08
		c0-10.46-8.501-18.964-18.952-18.964H155.11c-10.451,0-18.958,8.504-18.958,18.964v13.417c0,1.607-1.298,2.912-2.912,2.912
		c-1.608,0-2.912-1.305-2.912-2.912V426.08c0-13.676,11.128-24.797,24.782-24.797h31.587c13.667,0,24.782,11.121,24.782,24.797
		v13.417C211.48,441.104,210.176,442.409,208.568,442.409 M369.77,397.503c-12.919,0-23.44-10.494-23.44-23.396
		c0-12.926,10.521-23.437,23.44-23.437c12.926,0,23.446,10.511,23.446,23.437C393.216,387.009,382.695,397.503,369.77,397.503
		 M352.211,375.592c0.771,8.998,8.355,16.089,17.559,16.089c9.71,0,17.617-7.882,17.617-17.573c0-0.674-0.031-1.323-0.107-1.975
		c-5.166,0.465-10.11-0.817-14.382-3.47C367.649,374.192,359.92,376.876,352.211,375.592 M352.703,369.765
		c6.653,1.279,13.345-1.386,17.357-6.76c0.482-0.643,1.185-1.052,1.969-1.146c0.779-0.11,1.576,0.128,2.189,0.62
		c3.236,2.593,7.439,3.929,11.389,3.915c-2.874-5.857-8.887-9.902-15.838-9.902C361.561,356.491,354.642,362.144,352.703,369.765
		 M266.203,397.503c-12.92,0-23.44-10.494-23.44-23.396c0-12.926,10.52-23.437,23.44-23.437c10.724,0,19.795,7.238,22.567,17.084
		c0.063,0.174,0.114,0.345,0.151,0.525c0.014,0.061,0.025,0.117,0.038,0.187c0.443,1.804,0.684,3.697,0.684,5.641
		C289.644,387.009,279.13,397.503,266.203,397.503 M248.65,375.586c0.753,9.004,8.343,16.095,17.553,16.095
		c9.717,0,17.616-7.882,17.616-17.573c0-0.668-0.036-1.323-0.112-1.975c-5.077,0.452-10.078-0.823-14.339-3.476
		C264.121,374.127,256.36,376.883,248.65,375.586 M249.131,369.758c6.729,1.312,13.452-1.464,17.42-6.753
		c0.462-0.643,1.171-1.052,1.962-1.146c0.747-0.11,1.57,0.128,2.184,0.62c3.26,2.621,7.033,3.915,11.344,3.915
		c-2.867-5.857-8.887-9.902-15.838-9.902C257.981,356.491,251.068,362.137,249.131,369.758 M170.36,397.503
		c-12.926,0-23.446-10.494-23.446-23.396c0-12.926,10.521-23.437,23.446-23.437c12.919,0,23.434,10.511,23.434,23.437
		C193.793,387.009,183.279,397.503,170.36,397.503 M152.8,375.586c0.753,9.004,8.343,16.095,17.56,16.095
		c9.71,0,17.61-7.882,17.61-17.573c0-0.674-0.038-1.323-0.114-1.975c-5.159,0.465-10.115-0.817-14.382-3.47
		C168.246,374.186,160.592,376.876,152.8,375.586 M153.275,369.765c6.761,1.292,13.363-1.398,17.376-6.76
		c0.469-0.643,1.177-1.052,1.95-1.146c0.798-0.11,1.595,0.128,2.203,0.62c3.228,2.593,7.419,3.929,11.381,3.915
		c-2.861-5.857-8.881-9.902-15.825-9.902C162.137,356.491,155.218,362.144,153.275,369.765"/>
</g>
<g>
	<g>
		<path fill="#1D89C2" d="M386.16,366.742h-42.088c-1.424,0-2.587-1.156-2.587-2.582V150.514c0-1.423,1.163-2.584,2.587-2.584
			h42.088c1.424,0,2.587,1.161,2.587,2.584V364.16C388.747,365.586,387.584,366.742,386.16,366.742 M346.654,361.581h36.93v-208.48
			h-36.93V361.581z"/>
		<path fill="#1D89C2" d="M330.041,366.742h-42.104c-1.424,0-2.582-1.156-2.582-2.582V177c0-1.421,1.158-2.58,2.582-2.58h42.104
			c1.429,0,2.582,1.159,2.582,2.58V364.16C332.623,365.586,331.47,366.742,330.041,366.742 M290.514,361.581h36.94V179.586h-36.94
			V361.581z"/>
		<path fill="#1D89C2" d="M273.9,366.742h-42.098c-1.423,0-2.582-1.156-2.582-2.582V202.742c0-1.421,1.159-2.582,2.582-2.582H273.9
			c1.429,0,2.582,1.161,2.582,2.582V364.16C276.482,365.586,275.329,366.742,273.9,366.742 M234.389,361.581h36.935V205.327h-36.935
			V361.581z"/>
		<path fill="#1D89C2" d="M217.776,366.742h-42.109c-1.423,0-2.577-1.156-2.577-2.582V238.615c0-1.42,1.153-2.574,2.577-2.574
			h42.109c1.423,0,2.576,1.153,2.576,2.574V364.16C220.353,365.586,219.2,366.742,217.776,366.742 M178.249,361.581h36.94V241.202
			h-36.94V361.581z"/>
		<path fill="#1D89C2" d="M161.636,366.742h-42.104c-1.423,0-2.577-1.156-2.577-2.582v-88.133c0-1.426,1.153-2.584,2.577-2.584
			h42.104c1.429,0,2.582,1.158,2.582,2.584v88.133C164.218,365.586,163.064,366.742,161.636,366.742 M122.114,361.581h36.94v-82.974
			h-36.94V361.581z"/>
		<path fill="#1D89C2" d="M407.22,379.988H98.493c-1.429,0-2.582-1.158-2.582-2.579c0-1.431,1.153-2.584,2.582-2.584H407.22
			c1.424,0,2.577,1.153,2.577,2.584C409.797,378.83,408.644,379.988,407.22,379.988"/>
		<path fill="#1D89C2" d="M110.94,244.727c-1.06,0-2.047-0.655-2.421-1.707c-0.488-1.343,0.208-2.821,1.548-3.299
			c1.387-0.501,138.867-50.514,199.282-120.901c0.94-1.091,2.562-1.208,3.637-0.281c1.086,0.925,1.205,2.556,0.281,3.642
			c-61.31,71.431-200.063,121.891-201.455,122.392C111.527,244.675,111.236,244.727,110.94,244.727"/>
	</g>
	<path fill="#1D89C2" d="M310.597,154.358h-0.011c-1.418-0.005-2.57-1.159-2.57-2.58l0.03-27.862l-26.332,0.12h-0.011
		c-1.418,0-2.576-1.148-2.576-2.574c-0.011-1.421,1.143-2.58,2.566-2.59l28.914-0.127c0.551-0.055,1.351,0.265,1.839,0.75
		c0.483,0.488,0.759,1.143,0.759,1.829l-0.031,30.459C313.168,153.205,312.016,154.358,310.597,154.358"/>
</g>
</svg>
