<?xml version="1.0" encoding="utf-8"?>
<!-- Generator: Adobe Illustrator 16.0.0, SVG Export Plug-In . SVG Version: 6.00 Build 0)  -->
<!DOCTYPE svg PUBLIC "-//W3C//DTD SVG 1.1//EN" "http://www.w3.org/Graphics/SVG/1.1/DTD/svg11.dtd">
<svg version="1.1" id="Layer_1" xmlns="http://www.w3.org/2000/svg" xmlns:xlink="http://www.w3.org/1999/xlink" x="0px" y="0px"
	 width="512px" height="512px" viewBox="0 0 512 512" enable-background="new 0 0 512 512" xml:space="preserve">
<g display="none">
	<path display="inline" fill="#1D89C2" d="M419.397,332.157h-297.57c-1.607,0-2.912-1.303-2.912-2.918v-174.26
		c0-1.607,1.304-2.911,2.912-2.911h297.57c1.607,0,2.924,1.304,2.924,2.911v174.26C422.321,330.854,421.005,332.157,419.397,332.157
		 M124.732,326.331h291.754V157.897H124.732V326.331z"/>
	<path display="inline" fill="#1D89C2" d="M444.857,157.891H96.336c-1.608,0-2.912-1.304-2.912-2.912v-25.08
		c0-1.614,1.304-2.915,2.912-2.915h348.521c1.607,0,2.912,1.301,2.912,2.915v25.08C447.77,156.587,446.465,157.891,444.857,157.891
		 M99.261,152.068h342.678v-19.257H99.261V152.068z"/>
	<path display="inline" fill="#1D89C2" d="M349.45,305.432h-20.89c-1.607,0-2.924-1.304-2.924-2.917V196.406
		c0-1.614,1.316-2.925,2.924-2.925h20.89c1.607,0,2.912,1.311,2.912,2.925v106.108C352.362,304.128,351.058,305.432,349.45,305.432
		 M331.466,299.605h15.072V199.315h-15.072V299.605z"/>
	<path display="inline" fill="#1D89C2" d="M315.25,305.432h-20.897c-1.601,0-2.905-1.304-2.905-2.917v-92.976
		c0-1.615,1.305-2.919,2.905-2.919h20.897c1.607,0,2.91,1.304,2.91,2.919v92.976C318.16,304.128,316.857,305.432,315.25,305.432
		 M297.278,299.605h15.066v-87.149h-15.066V299.605z"/>
	<path display="inline" fill="#1D89C2" d="M281.072,305.432h-20.896c-1.613,0-2.918-1.304-2.918-2.917v-80.168
		c0-1.607,1.305-2.918,2.918-2.918h20.896c1.609,0,2.912,1.311,2.912,2.918v80.168C283.984,304.128,282.682,305.432,281.072,305.432
		 M263.089,299.605h15.059v-74.35h-15.059V299.605z"/>
	<path display="inline" fill="#1D89C2" d="M246.872,305.432h-20.896c-1.621,0-2.911-1.304-2.911-2.917V240.16
		c0-1.607,1.291-2.918,2.911-2.918h20.896c1.608,0,2.906,1.311,2.906,2.918v62.355C249.777,304.128,248.479,305.432,246.872,305.432
		 M228.888,299.605h15.065v-56.53h-15.065V299.605z"/>
	<path display="inline" fill="#1D89C2" d="M212.67,305.432h-20.896c-1.607,0-2.912-1.304-2.912-2.917v-43.799
		c0-1.613,1.305-2.918,2.912-2.918h20.896c1.608,0,2.912,1.305,2.912,2.918v43.799C215.582,304.128,214.278,305.432,212.67,305.432
		 M194.693,299.605h15.053v-37.971h-15.053V299.605z"/>
	<path display="inline" fill="#1D89C2" d="M363.655,318.364H177.576c-1.614,0-2.912-1.303-2.912-2.91
		c0-1.615,1.298-2.916,2.912-2.916h186.079c1.607,0,2.912,1.301,2.912,2.916C366.567,317.062,365.263,318.364,363.655,318.364"/>
	<path display="inline" fill="#1D89C2" d="M191.826,243.113c-1.197,0-2.311-0.738-2.742-1.931c-0.544-1.504,0.241-3.178,1.76-3.723
		c0.778-0.285,78.619-28.618,112.757-68.365c1.057-1.219,2.879-1.361,4.107-0.31c1.216,1.044,1.354,2.89,0.312,4.102
		c-35.146,40.921-111.961,68.884-115.214,70.051C192.49,243.056,192.154,243.113,191.826,243.113"/>
	<path display="inline" fill="#1D89C2" d="M305.406,191.719c-1.614,0-2.919-1.304-2.919-2.918v-14.395l-13.527,0.07h-0.013
		c-1.601,0-2.898-1.289-2.912-2.896c0-1.602,1.291-2.925,2.9-2.931l16.457-0.076c0.899,0.044,1.508,0.304,2.063,0.849
		c0.546,0.544,0.861,1.288,0.861,2.06v17.319C308.317,190.415,307.014,191.719,305.406,191.719"/>
	<path display="inline" fill="#1D89C2" d="M281.928,132.808H259.31c-1.607,0-2.911-1.301-2.911-2.909v-17.73
		c0-7.849,6.368-14.24,14.191-14.24c7.856,0,14.25,6.391,14.25,14.24v17.73C284.84,131.507,283.535,132.808,281.928,132.808
		 M262.223,126.981h16.793v-14.813c0-4.64-3.779-8.419-8.426-8.419c-4.615,0-8.367,3.779-8.367,8.419V126.981z"/>
	<path display="inline" fill="#1D89C2" d="M407.984,442.409c-1.607,0-2.905-1.305-2.905-2.912V426.08
		c0-10.46-8.508-18.964-18.966-18.964h-31.574c-10.456,0-18.964,8.504-18.964,18.964v13.417c0,1.607-1.304,2.912-2.912,2.912
		c-1.607,0-2.912-1.305-2.912-2.912V426.08c0-13.676,11.115-24.797,24.788-24.797h31.574c13.661,0,24.783,11.121,24.783,24.797
		v13.417C410.896,441.104,409.592,442.409,407.984,442.409 M304.419,442.409c-1.621,0-2.919-1.305-2.919-2.912V426.08
		c0-10.46-8.501-18.964-18.958-18.964h-31.569c-10.457,0-18.971,8.504-18.971,18.964v13.417c0,1.607-1.305,2.912-2.912,2.912
		c-1.608,0-2.912-1.305-2.912-2.912V426.08c0-13.676,11.123-24.797,24.795-24.797h31.569c13.673,0,24.788,11.121,24.788,24.797
		v13.417C307.33,441.104,306.026,442.409,304.419,442.409 M208.568,442.409c-1.614,0-2.918-1.305-2.918-2.912V426.08
		c0-10.46-8.501-18.964-18.952-18.964H155.11c-10.451,0-18.958,8.504-18.958,18.964v13.417c0,1.607-1.298,2.912-2.912,2.912
		c-1.608,0-2.912-1.305-2.912-2.912V426.08c0-13.676,11.128-24.797,24.782-24.797h31.587c13.667,0,24.782,11.121,24.782,24.797
		v13.417C211.48,441.104,210.176,442.409,208.568,442.409 M369.77,397.503c-12.919,0-23.44-10.494-23.44-23.396
		c0-12.926,10.521-23.437,23.44-23.437c12.926,0,23.446,10.511,23.446,23.437C393.216,387.009,382.695,397.503,369.77,397.503
		 M352.211,375.592c0.771,8.998,8.355,16.089,17.559,16.089c9.71,0,17.617-7.882,17.617-17.573c0-0.674-0.031-1.323-0.107-1.975
		c-5.166,0.465-10.11-0.817-14.382-3.47C367.649,374.192,359.92,376.876,352.211,375.592 M352.703,369.765
		c6.653,1.279,13.345-1.386,17.357-6.76c0.482-0.643,1.185-1.052,1.969-1.146c0.779-0.11,1.576,0.128,2.189,0.62
		c3.236,2.593,7.439,3.929,11.389,3.915c-2.874-5.857-8.887-9.902-15.838-9.902C361.561,356.491,354.642,362.144,352.703,369.765
		 M266.203,397.503c-12.92,0-23.44-10.494-23.44-23.396c0-12.926,10.52-23.437,23.44-23.437c10.724,0,19.795,7.238,22.567,17.084
		c0.063,0.174,0.114,0.345,0.151,0.525c0.014,0.061,0.025,0.117,0.038,0.187c0.443,1.804,0.684,3.697,0.684,5.641
		C289.644,387.009,279.13,397.503,266.203,397.503 M248.65,375.586c0.753,9.004,8.343,16.095,17.553,16.095
		c9.717,0,17.616-7.882,17.616-17.573c0-0.668-0.036-1.323-0.112-1.975c-5.077,0.452-10.078-0.823-14.339-3.476
		C264.121,374.127,256.36,376.883,248.65,375.586 M249.131,369.758c6.729,1.312,13.452-1.464,17.42-6.753
		c0.462-0.643,1.171-1.052,1.962-1.146c0.747-0.11,1.57,0.128,2.184,0.62c3.26,2.621,7.033,3.915,11.344,3.915
		c-2.867-5.857-8.887-9.902-15.838-9.902C257.981,356.491,251.068,362.137,249.131,369.758 M170.36,397.503
		c-12.926,0-23.446-10.494-23.446-23.396c0-12.926,10.521-23.437,23.446-23.437c12.919,0,23.434,10.511,23.434,23.437
		C193.793,387.009,183.279,397.503,170.36,397.503 M152.8,375.586c0.753,9.004,8.343,16.095,17.56,16.095
		c9.71,0,17.61-7.882,17.61-17.573c0-0.674-0.038-1.323-0.114-1.975c-5.159,0.465-10.115-0.817-14.382-3.47
		C168.246,374.186,160.592,376.876,152.8,375.586 M153.275,369.765c6.761,1.292,13.363-1.398,17.376-6.76
		c0.469-0.643,1.177-1.052,1.95-1.146c0.798-0.11,1.595,0.128,2.203,0.62c3.228,2.593,7.419,3.929,11.381,3.915
		c-2.861-5.857-8.881-9.902-15.825-9.902C162.137,356.491,155.218,362.144,153.275,369.765"/>
</g>
<g display="none">
	<g display="inline">
		<path fill="#1D89C2" d="M386.16,366.742h-42.088c-1.424,0-2.587-1.156-2.587-2.582V150.514c0-1.423,1.163-2.584,2.587-2.584
			h42.088c1.424,0,2.587,1.161,2.587,2.584V364.16C388.747,365.586,387.584,366.742,386.16,366.742 M346.654,361.581h36.93v-208.48
			h-36.93V361.581z"/>
		<path fill="#1D89C2" d="M330.041,366.742h-42.104c-1.424,0-2.582-1.156-2.582-2.582V177c0-1.421,1.158-2.58,2.582-2.58h42.104
			c1.429,0,2.582,1.159,2.582,2.58V364.16C332.623,365.586,331.47,366.742,330.041,366.742 M290.514,361.581h36.94V179.586h-36.94
			V361.581z"/>
		<path fill="#1D89C2" d="M273.9,366.742h-42.098c-1.423,0-2.582-1.156-2.582-2.582V202.742c0-1.421,1.159-2.582,2.582-2.582H273.9
			c1.429,0,2.582,1.161,2.582,2.582V364.16C276.482,365.586,275.329,366.742,273.9,366.742 M234.389,361.581h36.935V205.327h-36.935
			V361.581z"/>
		<path fill="#1D89C2" d="M217.776,366.742h-42.109c-1.423,0-2.577-1.156-2.577-2.582V238.615c0-1.42,1.153-2.574,2.577-2.574
			h42.109c1.423,0,2.576,1.153,2.576,2.574V364.16C220.353,365.586,219.2,366.742,217.776,366.742 M178.249,361.581h36.94V241.202
			h-36.94V361.581z"/>
		<path fill="#1D89C2" d="M161.636,366.742h-42.104c-1.423,0-2.577-1.156-2.577-2.582v-88.133c0-1.426,1.153-2.584,2.577-2.584
			h42.104c1.429,0,2.582,1.158,2.582,2.584v88.133C164.218,365.586,163.064,366.742,161.636,366.742 M122.114,361.581h36.94v-82.974
			h-36.94V361.581z"/>
		<path fill="#1D89C2" d="M407.22,379.988H98.493c-1.429,0-2.582-1.158-2.582-2.579c0-1.431,1.153-2.584,2.582-2.584H407.22
			c1.424,0,2.577,1.153,2.577,2.584C409.797,378.83,408.644,379.988,407.22,379.988"/>
		<path fill="#1D89C2" d="M110.94,244.727c-1.06,0-2.047-0.655-2.421-1.707c-0.488-1.343,0.208-2.821,1.548-3.299
			c1.387-0.501,138.867-50.514,199.282-120.901c0.94-1.091,2.562-1.208,3.637-0.281c1.086,0.925,1.205,2.556,0.281,3.642
			c-61.31,71.431-200.063,121.891-201.455,122.392C111.527,244.675,111.236,244.727,110.94,244.727"/>
	</g>
	<path display="inline" fill="#1D89C2" d="M310.597,154.358h-0.011c-1.418-0.005-2.57-1.159-2.57-2.58l0.03-27.862l-26.332,0.12
		h-0.011c-1.418,0-2.576-1.148-2.576-2.574c-0.011-1.421,1.143-2.58,2.566-2.59l28.914-0.127c0.551-0.055,1.351,0.265,1.839,0.75
		c0.483,0.488,0.759,1.143,0.759,1.829l-0.031,30.459C313.168,153.205,312.016,154.358,310.597,154.358"/>
</g>
<g display="none">
	<path display="inline" fill="#1D89C2" d="M408.654,422.47H89.513c-0.986,0-1.896-0.522-2.4-1.355
		c-5.324-8.819-8.141-18.956-8.141-29.345c0-3.215,0.285-6.537,0.849-9.889c4.796-27.3,28.388-47.1,56.11-47.1
		c7.41,0,14.577,1.382,21.346,4.123c5.788-18.006,22.451-30.309,41.615-30.309c16.366,0,31.157,9.055,38.681,23.383
		c7.796-6.365,17.47-9.82,27.627-9.82c11.309,0,22.219,4.431,30.349,12.257c13.62-13.4,32.143-21.019,51.261-21.019
		c40.272,0,73.034,32.758,73.034,73.025c0,12.069-3.02,24.031-8.724,34.573C410.626,421.898,409.694,422.47,408.654,422.47
		 M91.119,416.859h315.848c4.759-9.365,7.267-19.848,7.267-30.438c0-37.183-30.241-67.434-67.424-67.434
		c-18.554,0-36.494,7.784-49.217,21.357c-0.529,0.568-1.272,0.889-2.044,0.889h-0.019c-0.784-0.012-1.526-0.346-2.057-0.924
		c-7.243-7.984-17.542-12.565-28.273-12.565c-9.984,0-19.438,3.848-26.61,10.817c-0.667,0.654-1.605,0.928-2.515,0.737
		c-0.909-0.181-1.663-0.808-2.019-1.667c-5.961-14.232-19.765-23.439-35.163-23.439c-17.679,0-32.922,12.024-37.063,29.233
		c-0.196,0.815-0.755,1.504-1.515,1.872c-0.767,0.356-1.652,0.356-2.413,0c-6.894-3.269-14.286-4.915-21.97-4.915
		c-24.994,0-46.269,17.846-50.583,42.437c-0.511,3.03-0.767,6.037-0.767,8.949C84.581,400.613,86.833,409.254,91.119,416.859"/>
	<path display="inline" fill="#1D89C2" d="M320.163,385.149H82.584c-1.545,0-2.799-1.26-2.799-2.805
		c0-1.556,1.254-2.805,2.799-2.805h237.579c1.551,0,2.805,1.249,2.805,2.805C322.968,383.89,321.714,385.149,320.163,385.149"/>
	<path display="inline" fill="#1D89C2" d="M285.904,293.676c-9.877,0-20.579-1.138-31.799-3.381
		c-1.112-0.227-1.979-1.091-2.199-2.199c-7.944-39.724-1.871-70.963,17.561-90.354c13.881-13.879,33.576-20.918,58.54-20.918
		c9.87,0,20.567,1.129,31.816,3.364c1.112,0.226,1.974,1.091,2.199,2.199c7.88,39.735,1.807,70.969-17.561,90.351
		C330.568,286.631,310.863,293.676,285.904,293.676 M257.035,285.156c10.196,1.93,19.896,2.916,28.869,2.916
		c23.419,0,41.794-6.492,54.594-19.295c17.691-17.703,23.349-46.522,16.384-83.446c-10.202-1.928-19.908-2.903-28.875-2.903
		c-23.426,0-41.782,6.486-54.583,19.278C255.674,219.42,250.022,248.245,257.035,285.156"/>
	<path display="inline" fill="#1D89C2" d="M225.569,294.397h-0.006c-17.364,0-31.074-4.914-40.736-14.621
		c-13.507-13.483-17.75-35.16-12.277-62.659c0.22-1.114,1.087-1.991,2.199-2.208c7.743-1.533,15.124-2.321,21.934-2.321
		c17.34,0,31.044,4.9,40.725,14.568c13.525,13.516,17.774,35.198,12.3,62.726c-0.219,1.109-1.093,1.977-2.205,2.197
		C239.765,293.62,232.379,294.397,225.569,294.397 M177.689,220.056c-4.552,24.695-0.731,43.955,11.107,55.771
		c8.575,8.611,20.948,12.973,36.767,12.979h0.006c5.907,0,12.29-0.63,18.998-1.866c4.559-24.711,0.725-43.983-11.112-55.818
		C221.641,219.343,202.328,215.528,177.689,220.056"/>
	<path display="inline" fill="#1D89C2" d="M254.659,290.345c-0.703,0-1.397-0.262-1.95-0.771c-1.105-1.076-1.147-2.847-0.072-3.962
		l70.104-73.12c1.063-1.12,2.841-1.138,3.952-0.086c1.117,1.073,1.158,2.849,0.09,3.97l-70.116,73.105
		C256.125,290.06,255.389,290.345,254.659,290.345"/>
	<path display="inline" fill="#1D89C2" d="M250.059,328.907c-1.552,0-2.805-1.255-2.805-2.806V164.909
		c0-1.545,1.253-2.799,2.805-2.799c1.545,0,2.8,1.254,2.8,2.799v161.193C252.858,327.652,251.604,328.907,250.059,328.907"/>
	<path display="inline" fill="#1D89C2" d="M298.044,245.085c-1.444,0-2.661-1.12-2.787-2.578l-3.269-39.999
		c-0.124-1.54,1.022-2.895,2.567-3.02c1.528-0.145,2.895,1.022,3.014,2.564l3.269,40.002c0.124,1.539-1.017,2.897-2.562,3.024
		C298.199,245.08,298.121,245.085,298.044,245.085"/>
	<path display="inline" fill="#1D89C2" d="M271.237,273.094c-1.354,0-2.544-0.98-2.764-2.359c-0.243-1.526,0.797-2.965,2.323-3.203
		l43.024-6.81c1.492-0.244,2.966,0.8,3.198,2.332c0.243,1.527-0.797,2.957-2.324,3.206l-43.019,6.799
		C271.529,273.082,271.38,273.094,271.237,273.094"/>
	<path display="inline" fill="#1D89C2" d="M246.963,292.141c-0.737,0-1.475-0.292-2.022-0.872l-48.377-50.414
		c-1.07-1.114-1.034-2.885,0.077-3.963c1.117-1.063,2.894-1.034,3.963,0.086l48.378,50.417c1.07,1.115,1.034,2.886-0.083,3.961
		C248.354,291.872,247.657,292.141,246.963,292.141"/>
	<path display="inline" fill="#1D89C2" d="M193.277,263.057c-1.135,0-2.193-0.686-2.615-1.812c-0.558-1.445,0.178-3.066,1.623-3.617
		l17.845-6.753c1.457-0.553,3.061,0.189,3.613,1.637c0.547,1.441-0.185,3.066-1.628,3.601l-17.845,6.771
		C193.943,262.997,193.609,263.057,193.277,263.057"/>
	<path display="inline" fill="#1D89C2" d="M230.941,275.424c-0.066,0-0.131,0-0.19-0.006c-1.539-0.099-2.722-1.429-2.609-2.969
		l1.742-26.79c0.095-1.551,1.432-2.712,2.972-2.603c1.545,0.092,2.715,1.428,2.614,2.969l-1.74,26.784
		C233.632,274.285,232.403,275.424,230.941,275.424"/>
	<path display="inline" fill="#1D89C2" d="M250.059,167.708c-22.309,0-40.457-18.143-40.457-40.463
		c0-22.33,18.148-40.499,40.457-40.499c22.314,0,40.468,18.169,40.468,40.499C290.526,149.565,272.373,167.708,250.059,167.708
		 M250.059,92.344c-19.218,0-34.854,15.659-34.854,34.901c0,19.227,15.635,34.865,34.854,34.865
		c19.225,0,34.859-15.638,34.859-34.865C284.918,108.003,269.283,92.344,250.059,92.344"/>
	<path display="inline" fill="#1D89C2" d="M144.815,188.16c-7.101,0-12.877-5.792-12.877-12.916c0-7.102,5.776-12.878,12.877-12.878
		c7.12,0,12.925,5.776,12.925,12.878C157.74,182.368,151.935,188.16,144.815,188.16 M144.815,167.975
		c-4.017,0-7.279,3.263-7.279,7.269c0,4.026,3.263,7.312,7.279,7.312c4.029,0,7.315-3.286,7.315-7.312
		C152.13,171.238,148.844,167.975,144.815,167.975"/>
	<path display="inline" fill="#1D89C2" d="M351.486,145.391c-7.102,0-12.883-5.791-12.883-12.91c0-7.101,5.781-12.872,12.883-12.872
		c7.118,0,12.925,5.771,12.925,12.872C364.411,139.6,358.604,145.391,351.486,145.391 M351.486,125.207
		c-4.018,0-7.28,3.262-7.28,7.273c0,4.026,3.263,7.306,7.28,7.306c4.035,0,7.315-3.28,7.315-7.306
		C358.802,128.469,355.521,125.207,351.486,125.207"/>
</g>
<g display="none">
	<path display="inline" fill="#1D89C2" d="M298.557,352.48h-98.381c-1.485,0-2.681-1.205-2.681-2.688V285.16
		c-23.36-16.76-37.265-43.754-37.265-72.496c0-49.181,39.997-89.19,89.166-89.19c49.149,0,89.134,40.009,89.134,89.19
		c0,28.729-13.905,55.719-37.291,72.496v64.632C301.237,351.275,300.035,352.48,298.557,352.48 M202.857,347.11h93.018v-63.344
		c0-0.875,0.434-1.7,1.152-2.204c22.629-15.695,36.138-41.466,36.138-68.898c0-46.222-37.579-83.821-83.771-83.821
		c-46.21,0-83.803,37.599-83.803,83.821c0,27.452,13.502,53.203,36.113,68.898c0.718,0.504,1.152,1.329,1.152,2.204V347.11z"/>
	<path display="inline" fill="#1D89C2" d="M244.125,114.872c-1.479,0-2.682-1.199-2.682-2.682v-29.29
		c0-1.482,1.203-2.681,2.682-2.681c1.474,0,2.683,1.199,2.683,2.681v29.29C246.808,113.673,245.599,114.872,244.125,114.872"/>
	<path display="inline" fill="#1D89C2" d="M279.193,118.214c-0.232,0-0.472-0.031-0.705-0.088c-1.429-0.391-2.271-1.863-1.888-3.289
		l7.585-28.279c0.384-1.435,1.889-2.266,3.291-1.901c1.431,0.387,2.286,1.863,1.902,3.295l-7.598,28.27
		C281.453,117.434,280.377,118.214,279.193,118.214"/>
	<path display="inline" fill="#1D89C2" d="M312.229,130.546c-0.447,0-0.906-0.123-1.341-0.352c-1.278-0.749-1.712-2.386-0.982-3.664
		l14.629-25.396c0.743-1.281,2.387-1.722,3.67-0.991c1.285,0.746,1.719,2.385,0.989,3.666l-14.629,25.39
		C314.054,130.062,313.16,130.546,312.229,130.546"/>
	<path display="inline" fill="#1D89C2" d="M340.927,150.985c-0.68,0-1.379-0.258-1.901-0.787c-1.039-1.045-1.039-2.745,0-3.795
		l20.729-20.723c1.045-1.039,2.744-1.039,3.79,0c1.051,1.051,1.051,2.751,0,3.802l-20.717,20.716
		C342.306,150.727,341.625,150.985,340.927,150.985"/>
	<path display="inline" fill="#1D89C2" d="M150.095,157.809c-0.687,0-1.367-0.258-1.889-0.781l-20.691-20.729
		c-1.051-1.039-1.051-2.745,0-3.783c1.045-1.051,2.745-1.051,3.803,0l20.69,20.723c1.039,1.044,1.039,2.745,0,3.789
		C151.473,157.557,150.781,157.809,150.095,157.809"/>
	<path display="inline" fill="#1D89C2" d="M177.288,135.349c-0.919,0-1.813-0.479-2.31-1.335l-14.661-25.358
		c-0.736-1.281-0.302-2.924,0.976-3.66c1.297-0.756,2.921-0.309,3.664,0.972l14.654,25.358c0.749,1.278,0.314,2.928-0.969,3.664
		C178.219,135.232,177.747,135.349,177.288,135.349"/>
	<path display="inline" fill="#1D89C2" d="M209.366,120.726c-1.177,0-2.26-0.793-2.582-1.986l-7.597-28.27
		c-0.391-1.438,0.465-2.915,1.895-3.295c1.417-0.372,2.908,0.466,3.279,1.895l7.604,28.279c0.384,1.432-0.466,2.892-1.889,3.283
		C209.838,120.695,209.605,120.726,209.366,120.726"/>
	<path display="inline" fill="#1D89C2" d="M192.924,257.41c-0.919,0-1.813-0.484-2.31-1.34l-4.904-8.463
		c-0.673-1.145-0.396-2.616,0.629-3.448l13.377-10.637c-0.769-2.247-1.392-4.577-1.851-6.969l-16.901-2.543
		c-1.303-0.195-2.285-1.322-2.285-2.65v-9.741c0-1.341,0.982-2.455,2.285-2.663l16.901-2.521c0.472-2.417,1.083-4.756,1.838-6.981
		l-13.364-10.635c-1.026-0.831-1.303-2.294-0.642-3.439l4.916-8.479c0.661-1.139,2.064-1.63,3.305-1.146l15.881,6.26
		c1.542-1.778,3.242-3.475,5.105-5.093l-6.245-15.903c-0.498-1.237,0-2.634,1.14-3.311l8.473-4.875
		c1.139-0.664,2.606-0.381,3.437,0.658l10.632,13.344c2.197-0.768,4.532-1.394,6.943-1.863l2.531-16.902
		c0.2-1.315,1.327-2.282,2.643-2.282h9.788c1.328,0,2.462,0.966,2.656,2.282l2.55,16.902c2.405,0.469,4.727,1.095,6.963,1.863
		l10.606-13.344c0.831-1.039,2.284-1.322,3.443-0.658l8.466,4.875c1.152,0.677,1.63,2.074,1.152,3.311l-6.257,15.903
		c1.837,1.612,3.55,3.314,5.104,5.093l15.919-6.26c1.24-0.491,2.632,0,3.305,1.162l4.867,8.463c0.66,1.152,0.383,2.615-0.643,3.439
		l-13.351,10.629c0.779,2.304,1.403,4.649,1.85,6.987l16.877,2.521c1.315,0.208,2.284,1.321,2.284,2.662v9.742
		c0,1.328-0.969,2.455-2.284,2.65l-16.877,2.537c-0.446,2.315-1.07,4.654-1.862,6.975l13.363,10.637
		c1.025,0.832,1.303,2.293,0.643,3.448l-4.867,8.457c-0.673,1.154-2.064,1.654-3.305,1.154l-17.732-6.963
		c-1.365-0.54-2.052-2.108-1.516-3.479c0.547-1.38,2.102-2.063,3.493-1.508l15.566,6.108l2.562-4.447l-13.062-10.396
		c-0.906-0.743-1.246-1.98-0.837-3.074c1.247-3.212,2.115-6.466,2.575-9.657c0.17-1.174,1.089-2.096,2.259-2.263l16.519-2.489v-5.13
		l-16.519-2.468c-1.17-0.177-2.089-1.102-2.259-2.263c-0.473-3.242-1.328-6.49-2.575-9.656c-0.421-1.101-0.082-2.344,0.837-3.075
		l13.062-10.402l-2.562-4.466l-15.566,6.122c-1.108,0.444-2.349,0.098-3.085-0.818c-2.008-2.515-4.394-4.9-7.075-7.072
		c-0.919-0.734-1.24-1.983-0.818-3.072l6.131-15.542l-4.469-2.575l-10.355,13.068c-0.749,0.929-2.002,1.262-3.097,0.825
		c-3.016-1.187-6.258-2.055-9.655-2.584c-1.172-0.189-2.065-1.099-2.241-2.263l-2.494-16.514h-5.161l-2.474,16.514
		c-0.177,1.165-1.069,2.074-2.233,2.263c-3.432,0.535-6.674,1.397-9.626,2.577c-1.083,0.438-2.348,0.117-3.097-0.812l-10.393-13.074
		l-4.469,2.575l6.125,15.542c0.421,1.089,0.094,2.338-0.812,3.072c-2.707,2.184-5.08,4.563-7.076,7.066
		c-0.736,0.922-1.989,1.268-3.078,0.824l-15.548-6.122l-2.587,4.473l13.055,10.396c0.919,0.73,1.253,1.974,0.831,3.075
		c-1.171,2.984-2.027,6.254-2.568,9.675c-0.176,1.162-1.096,2.068-2.254,2.244l-16.524,2.468v5.13l16.524,2.489
		c1.158,0.167,2.078,1.07,2.254,2.231c0.529,3.383,1.397,6.645,2.568,9.689c0.422,1.094,0.088,2.331-0.831,3.074l-13.055,10.39
		l2.587,4.453l15.548-6.108c1.378-0.554,2.927,0.128,3.475,1.508c0.547,1.371-0.139,2.939-1.517,3.479l-17.682,6.963
		C193.591,257.348,193.258,257.41,192.924,257.41"/>
	<path display="inline" fill="#1D89C2" d="M311.234,301.952H187.498c-1.479,0-2.682-1.199-2.682-2.682s1.202-2.682,2.682-2.682
		h123.736c1.473,0,2.668,1.199,2.668,2.682S312.707,301.952,311.234,301.952"/>
	<path display="inline" fill="#1D89C2" d="M311.234,320.063H187.498c-1.479,0-2.682-1.205-2.682-2.688
		c0-1.476,1.202-2.682,2.682-2.682h123.736c1.473,0,2.668,1.206,2.668,2.682C313.902,318.857,312.707,320.063,311.234,320.063"/>
	<path display="inline" fill="#1D89C2" d="M311.234,336.561H187.498c-1.479,0-2.682-1.205-2.682-2.682
		c0-1.482,1.202-2.688,2.682-2.688h123.736c1.473,0,2.668,1.205,2.668,2.688C313.902,335.355,312.707,336.561,311.234,336.561"/>
	<path display="inline" fill="#1D89C2" d="M281.415,381.556h-64.111c-1.479,0-2.682-1.195-2.682-2.681v-29.079
		c0-1.489,1.202-2.682,2.682-2.682h64.111c1.48,0,2.689,1.192,2.689,2.682v29.079C284.104,380.36,282.896,381.556,281.415,381.556
		 M219.985,376.193h58.748v-23.716h-58.748V376.193z"/>
	<path display="inline" fill="#1D89C2" d="M259.661,406.738h-20.59c-1.479,0-2.682-1.205-2.682-2.682v-25.182
		c0-1.485,1.203-2.682,2.682-2.682h20.59c1.479,0,2.682,1.196,2.682,2.682v25.182C262.343,405.533,261.141,406.738,259.661,406.738
		 M241.752,401.368h15.222v-19.806h-15.222V401.368z"/>
</g>
<g display="none">
	<path display="inline" fill="#1D89C2" d="M129.501,422.053c-6.221,0-11.282-5.074-11.282-11.327c0-0.814,0.081-1.634,0.264-2.488
		c1.205-5.209,5.727-8.8,11.018-8.8c6.226,0,11.287,5.06,11.287,11.288c0,0.287,0,0.712-0.112,1.222
		C140.35,417.436,135.409,422.053,129.501,422.053 M129.501,405.024c-2.679,0-4.97,1.813-5.569,4.405
		c-0.08,0.425-0.134,0.859-0.134,1.296c0,3.223,2.509,5.747,5.704,5.747c3.031,0,5.469-2.277,5.667-5.3l2.831-0.447h-2.788
		C135.21,407.583,132.65,405.024,129.501,405.024"/>
	<path display="inline" fill="#1D89C2" d="M129.501,422.053c-6.221,0-11.282-5.074-11.282-11.327c0-0.814,0.081-1.634,0.264-2.488
		c1.205-5.209,5.727-8.8,11.018-8.8c6.226,0,11.287,5.06,11.287,11.288c0,0.287,0,0.712-0.112,1.222
		C140.35,417.436,135.409,422.053,129.501,422.053 M129.501,405.024c-2.679,0-4.97,1.813-5.569,4.405
		c-0.08,0.425-0.134,0.859-0.134,1.296c0,3.223,2.509,5.747,5.704,5.747c3.031,0,5.469-2.277,5.667-5.3l2.831-0.447h-2.788
		C135.21,407.583,132.65,405.024,129.501,405.024"/>
	<g display="inline">
		<path fill="#1D89C2" d="M382.842,414.178c-29.979,0-74.768-14.017-122.895-38.462c-0.936-0.47-1.526-1.438-1.521-2.488
			c0-1.056,0.597-2.02,1.526-2.49c9.263-4.68,18.284-9.556,26.818-14.499c24.824-14.34,48.328-30.422,67.978-46.532
			c1.193-0.964,2.949-0.792,3.924,0.385l0.447,0.55c16.438,13.524,29.848,26.676,39.862,39.07c0.476,0.585,0.693,1.342,0.597,2.088
			c-0.081,0.752-0.482,1.44-1.079,1.893c-1.422,1.067-2.242,2.719-2.242,4.509c0,4.278,5.007,7.283,8.982,4.76
			c0.637-0.401,1.394-0.539,2.127-0.367c0.724,0.166,1.354,0.619,1.744,1.262c9.464,15.395,11.724,28.276,6.538,37.259
			C410.613,409.785,399.567,414.178,382.842,414.178 M267.397,373.204c44.892,22.219,87.747,35.388,115.444,35.388
			c10.038,0,23.046-1.777,27.967-10.277c3.877-6.711,2.088-16.852-5.161-29.395c-1.182,0.406-2.397,0.613-3.637,0.613
			c-6.252,0-11.333-5.082-11.333-11.333c0-2.569,0.843-4.973,2.374-6.924c-9.429-11.339-21.761-23.325-36.696-35.681
			c-19.466,15.762-42.511,31.454-66.791,45.483C282.459,365.19,275.025,369.258,267.397,373.204"/>
		<path fill="#1D89C2" d="M402.011,369.527c-6.252,0-11.333-5.076-11.333-11.322c0-3.561,1.623-6.83,4.462-8.977
			c1.973-1.508,4.353-2.316,6.871-2.316c6.24,0,11.327,5.07,11.327,11.293c0,3.779-1.887,7.302-5.041,9.424
			C406.295,368.902,404.201,369.527,402.011,369.527 M402.011,352.498c-1.273,0-2.489,0.413-3.505,1.182
			c-1.428,1.079-2.248,2.73-2.248,4.525c0,4.273,5.007,7.278,8.977,4.755c1.554-1.043,2.522-2.834,2.522-4.755
			C407.757,355.058,405.177,352.498,402.011,352.498"/>
		<path fill="#1D89C2" d="M387.906,224.005c-6.246,0-11.328-5.064-11.328-11.282c0.047-6.274,5.129-11.299,11.328-11.299
			c6.224,0,11.282,5.07,11.282,11.299c0,0.448-0.034,0.849-0.092,1.291C398.414,219.767,393.602,224.005,387.906,224.005
			 M387.906,207.011c-3.148,0-5.729,2.536-5.752,5.644c0,3.212,2.58,5.759,5.752,5.759c2.874,0,5.294-2.123,5.639-4.939
			c0.034-0.315,0.068-0.516,0.068-0.751C393.613,209.575,391.05,207.011,387.906,207.011"/>
		<path fill="#1D89C2" d="M299.253,243.306h-70.599c-1.543,0-2.796-1.25-2.796-2.793v-9.733
			c-16.802-12.24-26.788-31.751-26.788-52.503c0-35.79,29.113-64.903,64.897-64.903c35.789,0,64.903,29.113,64.903,64.903
			c0,20.763-9.997,40.275-26.825,52.503v9.733C302.046,242.055,300.802,243.306,299.253,243.306 M231.444,237.719h65.021v-8.385
			c0-0.918,0.447-1.772,1.198-2.289c16.043-11.121,25.627-29.349,25.627-48.769c0-32.709-26.613-59.317-59.322-59.317
			c-32.704,0-59.317,26.607-59.317,59.317c0,19.409,9.567,37.648,25.595,48.769c0.746,0.517,1.198,1.371,1.198,2.289V237.719z"/>
		<path fill="#1D89C2" d="M299.253,279.543h-70.602c-1.537,0-2.791-1.251-2.791-2.788V265.33c0-1.548,1.253-2.793,2.791-2.793
			h70.602c1.549,0,2.799,1.245,2.799,2.793v11.425C302.052,278.292,300.802,279.543,299.253,279.543 M231.442,273.956h65.023v-5.839
			h-65.023V273.956z"/>
		<path fill="#1D89C2" d="M299.253,268.117h-70.602c-1.537,0-2.791-1.25-2.791-2.787v-11.884c0-1.549,1.253-2.799,2.791-2.799
			h70.602c1.549,0,2.799,1.25,2.799,2.799v11.884C302.052,266.867,300.802,268.117,299.253,268.117 M231.442,262.537h65.023v-6.298
			h-65.023V262.537z"/>
		<path fill="#1D89C2" d="M299.253,256.233h-70.602c-1.537,0-2.791-1.25-2.791-2.787v-12.934c0-1.543,1.253-2.794,2.791-2.794
			h70.602c1.549,0,2.799,1.25,2.799,2.794v12.934C302.052,254.983,300.802,256.233,299.253,256.233 M231.442,250.647h65.023v-7.342
			h-65.023V250.647z"/>
		<path fill="#1D89C2" d="M286.99,300.386h-46.034c-1.548,0-2.787-1.25-2.787-2.794v-20.837c0-1.549,1.239-2.799,2.787-2.799h46.034
			c1.537,0,2.787,1.25,2.787,2.799v20.837C289.777,299.136,288.527,300.386,286.99,300.386 M243.744,294.799h40.459v-15.256h-40.459
			V294.799z"/>
		<path fill="#1D89C2" d="M271.383,318.51h-14.814c-1.537,0-2.788-1.251-2.788-2.787v-18.131c0-1.537,1.251-2.793,2.788-2.793
			h14.814c1.544,0,2.795,1.256,2.795,2.793v18.131C274.178,317.259,272.927,318.51,271.383,318.51 M259.356,312.924h9.233v-12.538
			h-9.233V312.924z"/>
		<path fill="#1D89C2" d="M166.019,314.771c-0.623,0-1.239-0.2-1.747-0.619c-46.874-38.325-68.344-72.475-57.444-91.322
			c4.97-8.66,15.962-13.042,32.678-13.042c6.132,0,13.04,0.607,20.533,1.807c0.74,0.12,1.396,0.533,1.833,1.141
			c0.428,0.608,0.605,1.365,0.476,2.099c-0.066,0.345-0.089,0.688-0.089,1.067c0,3.167,2.579,5.748,5.75,5.748
			c2.689,0,4.992-1.847,5.609-4.491c0.163-0.728,0.617-1.359,1.25-1.749c0.639-0.396,1.411-0.517,2.133-0.333
			c15.804,3.877,32.982,9.683,51.078,17.247h0.576c1.537,0,2.787,1.25,2.787,2.793v33.726c0,1.411-1.043,2.58-2.4,2.764
			c-22.718,13.559-43.303,27.863-61.192,42.507C167.327,314.547,166.67,314.771,166.019,314.771 M139.506,215.362
			c-10.02,0-22.977,1.783-27.843,10.254c-9.01,15.578,12.309,47.96,54.396,82.776c17.742-14.362,37.788-28.23,59.801-41.388v-29.561
			c-16.885-7.055-32.948-12.55-47.791-16.342c-1.907,3.706-5.732,6.132-10.06,6.132c-5.974,0-10.878-4.646-11.305-10.502
			C150.45,215.821,144.674,215.362,139.506,215.362"/>
		<path fill="#1D89C2" d="M168.006,227.234c-6.249,0-11.33-5.082-11.33-11.333c0-0.716,0.06-1.365,0.172-2.03
			c1.021-5.403,5.715-9.303,11.158-9.303c6.243,0,11.331,5.082,11.331,11.333c0,0.77-0.089,1.572-0.273,2.449
			C177.849,223.598,173.309,227.234,168.006,227.234 M168.006,210.155c-2.767,0-5.151,1.984-5.667,4.719
			c-0.054,0.299-0.083,0.648-0.083,1.027c0,3.172,2.579,5.748,5.75,5.748c2.69,0,4.999-1.847,5.609-4.497
			c0.089-0.436,0.14-0.86,0.14-1.25C173.756,212.724,171.172,210.155,168.006,210.155"/>
		<path fill="#1D89C2" d="M299.253,279.543H286.99c-1.543,0-2.787-1.251-2.787-2.793c0-1.538,1.244-2.794,2.787-2.794h9.475v-44.622
			c0-0.918,0.453-1.778,1.198-2.289c16.043-11.121,25.622-29.354,25.622-48.769c0-32.709-26.603-59.317-59.317-59.317
			c-32.707,0-59.312,26.607-59.312,59.317c0,19.409,9.562,37.648,25.589,48.769c0.746,0.517,1.198,1.371,1.198,2.289v44.622h9.513
			c1.537,0,2.788,1.256,2.788,2.794c0,1.542-1.25,2.793-2.788,2.793h-12.303c-1.546,0-2.796-1.251-2.796-2.793v-45.971
			c-16.802-12.24-26.788-31.751-26.788-52.503c0-35.79,29.113-64.903,64.897-64.903c35.789,0,64.903,29.113,64.903,64.903
			c0,20.763-10.003,40.275-26.819,52.503v45.971C302.052,278.292,300.802,279.543,299.253,279.543"/>
		<path fill="#1D89C2" d="M121.173,411.598c-0.304,0-0.616-0.058-0.929-0.16c-6.272-2.203-10.789-5.69-13.43-10.348
			c-10.866-18.737,10.61-52.858,57.456-91.252c18.313-14.993,39.335-29.584,62.532-43.395c1.322-0.781,3.031-0.356,3.826,0.975
			c0.791,1.318,0.355,3.04-0.97,3.825c-22.959,13.668-43.756,28.093-61.803,42.873c-43.264,35.452-65.305,68.487-56.197,84.198
			c1.968,3.475,5.475,6.114,10.439,7.846c1.454,0.516,2.226,2.11,1.709,3.567C123.404,410.875,122.323,411.598,121.173,411.598"/>
		<path fill="#1D89C2" d="M139.613,414.167c-0.565,0-1.116-0.012-1.669-0.022c-1.537-0.022-2.764-1.303-2.735-2.84
			c0.028-1.52,1.273-2.735,2.79-2.735h0.051c28.598,0.344,74.173-13.611,121.898-37.838c9.263-4.669,18.29-9.55,26.824-14.487
			c24.824-14.346,48.328-30.428,67.978-46.532c43.154-35.331,65.156-68.334,56.06-84.089c-2.615-4.491-7.663-7.542-15.016-9.073
			c-1.52-0.327-2.483-1.795-2.168-3.31c0.316-1.514,1.795-2.455,3.304-2.167c8.959,1.881,15.257,5.827,18.709,11.747
			c10.869,18.824-10.575,52.916-57.354,91.218c-19.868,16.289-43.636,32.555-68.719,47.043c-8.625,4.989-17.739,9.917-27.089,14.637
			C214.877,399.874,169.159,414.167,139.613,414.167"/>
		<path fill="#1D89C2" d="M299.924,235.815c-1.106,0-2.15-0.666-2.587-1.754c-0.579-1.424,0.114-3.052,1.538-3.626
			c31.511-12.71,59.31-19.822,80.388-20.59c1.411,0.012,2.84,1.141,2.892,2.685c0.058,1.537-1.146,2.839-2.685,2.891
			c-20.143,0.733-48.022,7.903-78.502,20.188C300.629,235.746,300.272,235.815,299.924,235.815"/>
		<path fill="#1D89C2" d="M396.813,354.254c-0.813,0-1.617-0.362-2.168-1.044c-9.818-12.147-23.033-25.076-39.282-38.429
			c-1.193-0.986-1.359-2.741-0.385-3.934c0.976-1.193,2.742-1.365,3.924-0.379c16.541,13.588,30.03,26.79,40.08,39.242
			c0.975,1.199,0.78,2.953-0.413,3.923C398.053,354.047,397.433,354.254,396.813,354.254"/>
		<path fill="#1D89C2" d="M382.475,414.201c-29.021,0-73.024-13.341-122.521-38.485c-9.338-4.714-18.458-9.642-27.095-14.637
			c-25.159-14.539-48.875-30.766-68.586-46.928c-46.868-38.331-68.347-72.475-57.447-91.322
			c6.809-11.849,25.208-15.738,53.211-11.23c1.529,0.241,2.561,1.675,2.314,3.189c-0.241,1.531-1.704,2.581-3.194,2.317
			c-25.163-4.038-42.025-1.01-47.497,8.517c-9.133,15.79,12.908,48.85,56.154,84.209c19.481,15.974,42.939,32.021,67.832,46.406
			c8.557,4.949,17.574,9.83,26.825,14.499c72.371,36.747,136.133,48.615,148.338,27.577c4.096-7.089,1.87-18.004-6.446-31.545
			c-0.815-1.309-0.402-3.029,0.918-3.833c1.301-0.813,3.028-0.401,3.831,0.918c9.464,15.395,11.718,28.276,6.532,37.259
			C410.522,409.928,398.89,414.201,382.475,414.201"/>
		<path fill="#1D89C2" d="M227.518,237.902c-0.358,0-0.728-0.068-1.081-0.217c-18.012-7.56-35.098-13.341-50.773-17.195
			c-1.491-0.356-2.41-1.87-2.036-3.374c0.361-1.49,1.861-2.42,3.369-2.042c15.959,3.924,33.318,9.797,51.603,17.459
			c1.42,0.597,2.091,2.237,1.498,3.659C229.643,237.261,228.611,237.902,227.518,237.902"/>
		<path fill="#1D89C2" d="M260.165,108.911c-1.543,0-2.794-1.25-2.794-2.799V85.107c0-1.542,1.251-2.787,2.794-2.787
			s2.793,1.245,2.793,2.787v21.004C262.958,107.66,261.708,108.911,260.165,108.911"/>
		<path fill="#1D89C2" d="M285.407,111.342c-0.229,0-0.471-0.035-0.711-0.104c-1.491-0.39-2.381-1.915-1.985-3.407l5.393-20.349
			c0.396-1.48,1.938-2.386,3.418-1.973c1.49,0.39,2.374,1.921,1.984,3.413l-5.402,20.338
			C287.77,110.511,286.646,111.342,285.407,111.342"/>
		<path fill="#1D89C2" d="M309.135,120.209c-0.471,0-0.946-0.12-1.382-0.367c-1.343-0.762-1.802-2.472-1.038-3.808l10.455-18.25
			c0.769-1.343,2.473-1.79,3.809-1.033c1.343,0.757,1.807,2.467,1.032,3.808l-10.449,18.251
			C311.045,119.705,310.104,120.209,309.135,120.209"/>
		<path fill="#1D89C2" d="M212.201,123.651c-0.963,0-1.903-0.505-2.42-1.399l-10.501-18.216c-0.769-1.33-0.31-3.04,1.024-3.808
			c1.333-0.769,3.042-0.311,3.817,1.021l10.502,18.205c0.763,1.342,0.31,3.051-1.029,3.82
			C213.159,123.525,212.678,123.651,212.201,123.651"/>
		<path fill="#1D89C2" d="M235.215,113.143c-1.233,0-2.36-0.832-2.695-2.082l-5.397-20.297c-0.393-1.486,0.487-3.018,1.979-3.414
			c1.486-0.396,3.02,0.488,3.419,1.979l5.392,20.303c0.396,1.48-0.488,3.017-1.979,3.407
			C235.697,113.109,235.451,113.143,235.215,113.143"/>
		<path fill="#1D89C2" d="M223.42,211.244c-0.976,0-1.916-0.516-2.426-1.405l-3.464-6.068c-0.688-1.205-0.393-2.712,0.683-3.573
			l9.102-7.245c-0.43-1.313-0.78-2.627-1.058-3.928l-11.534-1.71c-1.368-0.201-2.378-1.382-2.378-2.764v-7.032
			c0-1.382,1.004-2.559,2.372-2.754l11.54-1.754c0.278-1.307,0.628-2.627,1.058-3.924l-9.102-7.25
			c-1.075-0.865-1.371-2.374-0.683-3.573l3.464-6.074c0.694-1.205,2.168-1.71,3.441-1.216l10.877,4.268
			c0.917-1.021,1.87-1.961,2.856-2.851l-4.256-10.846c-0.496-1.296,0.011-2.753,1.204-3.441l6.074-3.51
			c1.199-0.7,2.713-0.413,3.579,0.666l7.267,9.097c1.239-0.39,2.547-0.735,3.946-1.039l1.71-11.534
			c0.206-1.365,1.382-2.386,2.77-2.386h7.025c1.39,0,2.559,1.021,2.766,2.386l1.714,11.511c1.326,0.282,2.65,0.637,3.947,1.05
			l7.272-9.085c0.866-1.079,2.392-1.343,3.584-0.666l6.057,3.51c1.193,0.688,1.698,2.156,1.199,3.441l-4.25,10.84
			c0.999,0.895,1.939,1.835,2.845,2.845l10.853-4.256c1.278-0.505,2.741,0,3.43,1.205l3.515,6.08
			c0.689,1.193,0.396,2.713-0.682,3.579l-9.108,7.25c0.413,1.262,0.757,2.576,1.027,3.924l11.579,1.754
			c1.366,0.195,2.375,1.372,2.375,2.754v6.997c0,1.376-1.009,2.547-2.375,2.753l-11.579,1.755c-0.271,1.342-0.614,2.65-1.027,3.928
			l9.108,7.245c1.077,0.861,1.376,2.38,0.682,3.579l-3.515,6.074c-0.684,1.187-2.141,1.704-3.43,1.199l-12.722-4.978
			c-1.439-0.562-2.146-2.179-1.59-3.613c0.569-1.434,2.192-2.134,3.62-1.59l10.49,4.113l1.106-1.915l-8.786-6.986
			c-0.965-0.769-1.314-2.077-0.86-3.212c0.826-2.088,1.41-4.348,1.76-6.711c0.184-1.222,1.137-2.173,2.347-2.362l11.195-1.687
			v-2.179l-11.195-1.698c-1.21-0.183-2.163-1.141-2.347-2.351c-0.35-2.374-0.934-4.634-1.76-6.71
			c-0.454-1.141-0.104-2.443,0.86-3.212l8.786-6.992l-1.106-1.915l-10.485,4.113c-1.141,0.458-2.448,0.091-3.212-0.872
			c-1.433-1.818-3.068-3.453-4.853-4.841c-0.969-0.769-1.324-2.077-0.876-3.223l4.105-10.496l-1.903-1.102l-7.009,8.752
			c-0.752,0.94-2.03,1.29-3.161,0.861c-2.214-0.826-4.514-1.446-6.824-1.813c-1.199-0.201-2.141-1.148-2.313-2.353l-1.657-11.086
			h-2.22l-1.646,11.086c-0.178,1.182-1.095,2.129-2.265,2.341c-2.621,0.47-4.875,1.078-6.894,1.824
			c-1.13,0.429-2.404,0.068-3.167-0.861l-6.986-8.752l-1.921,1.113l4.112,10.484c0.448,1.146,0.092,2.455-0.872,3.211
			c-1.755,1.376-3.407,3.022-4.921,4.887c-0.757,0.94-2.048,1.284-3.178,0.838l-10.481-4.113l-1.087,1.909l8.792,6.998
			c0.958,0.769,1.308,2.065,0.864,3.2c-0.864,2.226-1.474,4.485-1.804,6.722c-0.176,1.21-1.133,2.168-2.343,2.351l-11.147,1.687
			v2.225l11.135,1.652c1.222,0.183,2.179,1.141,2.355,2.362c0.33,2.22,0.94,4.485,1.804,6.723c0.444,1.135,0.094,2.432-0.864,3.2
			l-8.792,6.992l1.082,1.903l10.487-4.107c1.417-0.544,3.051,0.156,3.613,1.59c0.563,1.434-0.149,3.051-1.583,3.613l-12.724,4.978
			C224.103,211.176,223.761,211.244,223.42,211.244"/>
		<path fill="#1D89C2" d="M308.383,243.306h-88.814c-1.537,0-2.791-1.25-2.791-2.799c0-1.538,1.253-2.788,2.791-2.788h88.814
			c1.538,0,2.789,1.25,2.789,2.788C311.172,242.055,309.921,243.306,308.383,243.306"/>
		<path fill="#1D89C2" d="M308.383,256.233h-88.814c-1.537,0-2.791-1.25-2.791-2.793c0-1.538,1.253-2.793,2.791-2.793h88.814
			c1.538,0,2.789,1.255,2.789,2.793C311.172,254.983,309.921,256.233,308.383,256.233"/>
		<path fill="#1D89C2" d="M308.383,268.117h-88.814c-1.537,0-2.791-1.25-2.791-2.793c0-1.537,1.253-2.793,2.791-2.793h88.814
			c1.538,0,2.789,1.256,2.789,2.793C311.172,266.867,309.921,268.117,308.383,268.117"/>
		<path fill="#1D89C2" d="M286.99,300.386h-15.607c-1.536,0-2.787-1.25-2.787-2.794c0-1.537,1.251-2.793,2.787-2.793h12.82v-15.256
			h-40.459v15.256h12.824c1.543,0,2.788,1.256,2.788,2.793c0,1.544-1.245,2.794-2.788,2.794h-15.612
			c-1.548,0-2.787-1.25-2.787-2.794v-20.837c0-1.549,1.239-2.799,2.787-2.799h46.034c1.537,0,2.787,1.25,2.787,2.799v20.837
			C289.777,299.136,288.527,300.386,286.99,300.386"/>
		<path fill="#1D89C2" d="M271.383,318.51h-14.814c-1.537,0-2.788-1.251-2.788-2.787v-18.131c0-1.537,1.251-2.793,2.788-2.793
			h14.814c1.544,0,2.795,1.256,2.795,2.793v18.131C274.178,317.259,272.927,318.51,271.383,318.51 M259.356,312.924h9.233v-12.538
			h-9.233V312.924z"/>
		<path fill="#1D89C2" d="M168.006,227.234c-6.249,0-11.33-5.082-11.33-11.333c0-0.716,0.06-1.365,0.172-2.03
			c1.021-5.403,5.715-9.303,11.158-9.303c6.243,0,11.331,5.082,11.331,11.333c0,0.77-0.089,1.572-0.273,2.449
			C177.849,223.598,173.309,227.234,168.006,227.234 M168.006,210.155c-2.767,0-5.151,1.984-5.667,4.719
			c-0.054,0.299-0.083,0.648-0.083,1.027c0,3.172,2.579,5.748,5.75,5.748c2.69,0,4.999-1.847,5.609-4.497
			c0.089-0.436,0.14-0.86,0.14-1.25C173.756,212.724,171.172,210.155,168.006,210.155"/>
		<path fill="#1D89C2" d="M402.011,369.527c-6.252,0-11.333-5.076-11.333-11.322c0-3.561,1.623-6.83,4.462-8.977
			c1.973-1.508,4.353-2.316,6.871-2.316c6.24,0,11.327,5.07,11.327,11.293c0,3.779-1.887,7.302-5.041,9.424
			C406.295,368.902,404.201,369.527,402.011,369.527 M402.011,352.498c-1.273,0-2.489,0.413-3.505,1.182
			c-1.428,1.079-2.248,2.73-2.248,4.525c0,4.273,5.007,7.278,8.977,4.755c1.554-1.043,2.522-2.834,2.522-4.755
			C407.757,355.058,405.177,352.498,402.011,352.498"/>
		<path fill="#1D89C2" d="M387.906,224.005c-6.246,0-11.328-5.064-11.328-11.282c0.047-6.274,5.129-11.299,11.328-11.299
			c6.224,0,11.282,5.07,11.282,11.299c0,0.448-0.034,0.849-0.092,1.291C398.414,219.767,393.602,224.005,387.906,224.005
			 M387.906,207.011c-3.148,0-5.729,2.536-5.752,5.644c0,3.212,2.58,5.759,5.752,5.759c2.874,0,5.294-2.123,5.639-4.939
			c0.034-0.315,0.068-0.516,0.068-0.751C393.613,209.575,391.05,207.011,387.906,207.011"/>
	</g>
</g>
<g>
	<path fill="#1D89C2" d="M315.465,350.431H173.393c-0.429,0-0.858-0.131-1.217-0.369c-36.848-24.385-58.85-65.287-58.85-109.416
		c0-72.308,58.815-131.138,131.098-131.138c72.318,0,131.138,58.83,131.138,131.138c0,44.115-22.008,85.021-58.875,109.416
		C316.323,350.3,315.904,350.431,315.465,350.431 M174.062,346.006h140.745c35.287-23.619,56.342-62.96,56.342-105.36
		c0-69.868-56.846-126.71-126.724-126.71c-69.844,0-126.669,56.842-126.669,126.71C117.755,283.06,138.791,322.401,174.062,346.006"
		/>
	<path fill="#1D89C2" d="M323.791,328.866H165.103c-1.217,0-2.21-0.987-2.21-2.212v-58.316c0-0.916,0.554-1.727,1.402-2.058
		l54.545-21.444c0.803-0.327,1.721-0.137,2.344,0.459l22.412,21.571l24.142-21.621c0.624-0.557,1.507-0.711,2.285-0.414
		l54.575,21.444c0.849,0.336,1.401,1.146,1.401,2.063v58.316C326,327.879,325.013,328.866,323.791,328.866 M167.318,324.442h154.263
		v-54.594l-51.901-20.406l-24.667,22.093c-0.863,0.766-2.175,0.74-3.008-0.058l-22.86-22.008l-51.827,20.379V324.442z"/>
	<path fill="#1D89C2" d="M297.024,328.782h-105.15c-1.222,0-2.22-0.99-2.22-2.218v-36.608c0-1.215,0.998-2.207,2.22-2.207
		c1.212,0,2.209,0.992,2.209,2.207v34.396h100.73v-34.396c0-1.215,0.988-2.207,2.21-2.207s2.21,0.992,2.21,2.207v36.608
		C299.234,327.792,298.246,328.782,297.024,328.782"/>
	<path fill="#1D89C2" d="M270.672,277.104h-52.475c-1.227,0-2.21-0.985-2.21-2.213v-28.001c0-1.225,0.983-2.217,2.21-2.217
		c1.222,0,2.209,0.992,2.209,2.217v25.789h48.051v-25.789c0-1.225,0.998-2.217,2.215-2.217s2.215,0.992,2.215,2.217v28.001
		C272.887,276.119,271.889,277.104,270.672,277.104"/>
	<path fill="#1D89C2" d="M252.315,295.394h-15.772c-1.222,0-2.215-0.995-2.215-2.213v-18.286c0-1.229,0.993-2.215,2.215-2.215
		h15.772c1.228,0,2.215,0.985,2.215,2.215v18.286C254.53,294.398,253.543,295.394,252.315,295.394 M238.753,290.966h11.358v-13.864
		h-11.358V290.966z"/>
	<path fill="#1D89C2" d="M258.756,328.866h-30.253c-0.679,0-1.317-0.307-1.736-0.843c-0.419-0.531-0.574-1.222-0.419-1.886
		l8.041-33.471c0.239-0.997,1.132-1.701,2.155-1.701h15.772c1.067,0,1.976,0.762,2.175,1.797l6.436,33.478
		c0.119,0.648-0.045,1.312-0.465,1.823C260.037,328.575,259.414,328.866,258.756,328.866 M231.306,324.442h24.771l-5.581-29.049
		h-12.211L231.306,324.442z"/>
	<path fill="#1D89C2" d="M245.143,235.496c-22.896,0-41.536-18.653-41.536-41.574c0-22.881,18.641-41.501,41.536-41.501
		c22.906,0,41.541,18.621,41.541,41.501C286.684,216.843,268.049,235.496,245.143,235.496 M245.143,156.845
		c-20.461,0-37.112,16.636-37.112,37.077c0,20.489,16.65,37.146,37.112,37.146c20.467,0,37.122-16.657,37.122-37.146
		C282.265,173.481,265.609,156.845,245.143,156.845"/>
	<path fill="#1D89C2" d="M274.972,187.138c-10.2,0-20.093-3.1-27.115-8.504c-0.974-0.751-1.152-2.135-0.409-3.105
		c0.743-0.965,2.125-1.149,3.103-0.409c8.101,6.228,20.661,8.949,32.338,6.916c1.192-0.19,2.345,0.593,2.554,1.798
		c0.21,1.205-0.594,2.35-1.801,2.559C280.798,186.884,277.875,187.138,274.972,187.138"/>
	<path fill="#1D89C2" d="M224.417,186.385c-6.051,0-11.857-1.033-17.274-3.08c-1.137-0.429-1.716-1.706-1.287-2.846
		c0.434-1.147,1.706-1.716,2.854-1.292c4.908,1.855,10.196,2.798,15.708,2.798c18.162,0,32.927-10.276,32.927-22.908
		c0-1.22,0.998-2.207,2.215-2.207c1.222,0,2.205,0.987,2.205,2.207C261.764,174.132,245.013,186.385,224.417,186.385"/>
	<path fill="#1D89C2" d="M361.91,365.624H126.954c-1.217,0-2.215-0.99-2.215-2.217c0-1.221,0.998-2.213,2.215-2.213H361.91
		c1.212,0,2.209,0.992,2.209,2.213C364.119,364.634,363.122,365.624,361.91,365.624"/>
	<path fill="#1D89C2" d="M361.91,378.618H126.954c-1.217,0-2.215-0.99-2.215-2.217c0-1.221,0.998-2.213,2.215-2.213H361.91
		c1.212,0,2.209,0.992,2.209,2.213C364.119,377.628,363.122,378.618,361.91,378.618"/>
	<path fill="#1D89C2" d="M328.455,178.676h-4.879l-0.064,49.563c0,1.364,1.082,2.441,2.449,2.441l4.758,0.035l-11.852,9.527
		l-11.852-9.527h4.769c1.356,0,2.474-1.112,2.474-2.477v-36.85h-4.918v34.408h-9.277c-0.748,0-1.427,0.313-1.921,0.928
		c-0.838,1.048-0.679,2.597,0.364,3.43l18.785,15.129c0.898,0.716,2.205,0.775,3.123,0.03L339.1,230.28
		c0.628-0.434,1.057-1.212,1.057-2.042c0-1.359-1.077-2.442-2.443-2.442H328.4L328.455,178.676z M179.583,245.844h-4.888
		l-0.065-49.567c0-1.362,1.087-2.447,2.444-2.447l4.798-0.025l-11.882-9.535l-11.847,9.535h4.764c1.362,0,2.474,1.11,2.474,2.472
		v36.847h-4.918v-34.406h-9.288c-0.738,0-1.417-0.307-1.916-0.925c-0.838-1.05-0.668-2.599,0.374-3.437l18.78-15.129
		c0.888-0.741,2.2-0.771,3.123-0.03l18.696,15.037c0.613,0.461,1.042,1.175,1.042,2.043c0,1.334-1.078,2.441-2.439,2.441h-9.318
		L179.583,245.844z"/>
</g>
</svg>
