<?xml version="1.0" encoding="utf-8"?>
<!-- Generator: Adobe Illustrator 16.0.0, SVG Export Plug-In . SVG Version: 6.00 Build 0)  -->
<!DOCTYPE svg PUBLIC "-//W3C//DTD SVG 1.1//EN" "http://www.w3.org/Graphics/SVG/1.1/DTD/svg11.dtd">
<svg version="1.1" id="Layer_1" xmlns="http://www.w3.org/2000/svg" xmlns:xlink="http://www.w3.org/1999/xlink" x="0px" y="0px"
	 width="512px" height="512px" viewBox="0 0 512 512" enable-background="new 0 0 512 512" xml:space="preserve">
<path fill="#1D89C2" d="M267.671,429.25h-23.562c-1.41,0-2.615-1.034-2.821-2.438l-6.475-43.305
	c-7.239-1.245-14.372-3.144-21.265-5.658l-27.27,34.238c-0.875,1.093-2.433,1.398-3.654,0.693l-20.401-11.787
	c-1.222-0.705-1.739-2.197-1.228-3.514l16.018-40.79c-5.529-4.618-10.747-9.836-15.519-15.529l-40.801,16.053
	c-1.316,0.522-2.809-0.006-3.514-1.229l-11.781-20.4c-0.705-1.217-0.412-2.773,0.693-3.654l34.273-27.306
	c-2.544-6.939-4.46-14.061-5.694-21.218l-43.316-6.51c-1.393-0.224-2.427-1.416-2.427-2.826v-23.562c0-1.413,1.028-2.609,2.427-2.82
	l43.316-6.522c1.234-7.119,3.144-14.231,5.694-21.208l-34.273-27.275c-1.105-0.873-1.398-2.43-0.693-3.652l11.781-20.401
	c0.705-1.222,2.209-1.733,3.508-1.234l40.807,16.015c4.707-5.594,9.918-10.806,15.524-15.521l-16.023-40.79
	c-0.511-1.31,0.006-2.809,1.228-3.508l20.401-11.787c1.233-0.717,2.785-0.409,3.66,0.693l27.264,34.271
	c6.992-2.559,14.132-4.471,21.265-5.703l3.784-25.254c0.235-1.557,1.71-2.629,3.249-2.389c1.558,0.229,2.633,1.678,2.392,3.244
	l-4.095,27.311c-0.182,1.231-1.152,2.195-2.386,2.389c-8.091,1.251-16.211,3.428-24.132,6.455c-1.164,0.452-2.474,0.097-3.25-0.885
	l-27.022-33.971l-16.147,9.334l15.876,40.431c0.453,1.158,0.106,2.474-0.858,3.255c-6.458,5.253-12.392,11.188-17.639,17.642
	c-0.781,0.961-2.092,1.313-3.249,0.855l-40.443-15.874l-9.325,16.144l33.974,27.029c0.97,0.775,1.328,2.092,0.881,3.255
	c-3.032,7.909-5.206,16.009-6.452,24.079c-0.188,1.228-1.163,2.195-2.397,2.38l-42.94,6.469v18.656l42.94,6.457
	c1.234,0.183,2.209,1.152,2.397,2.38c1.257,8.138,3.426,16.241,6.452,24.079c0.447,1.163,0.088,2.479-0.881,3.261l-33.974,27.064
	l9.325,16.146l40.438-15.906c1.146-0.464,2.474-0.117,3.255,0.853c5.347,6.575,11.276,12.504,17.633,17.633
	c0.97,0.776,1.322,2.104,0.864,3.256l-15.876,40.437l16.147,9.331l27.028-33.938c0.77-0.976,2.086-1.334,3.25-0.881
	c7.774,2.99,15.894,5.146,24.126,6.416c1.234,0.188,2.204,1.157,2.386,2.397l6.422,42.94h18.649l6.464-42.946
	c0.182-1.234,1.151-2.204,2.386-2.392c8.284-1.281,16.387-3.443,24.078-6.416c1.158-0.436,2.48-0.089,3.256,0.881l27.063,33.938
	l16.146-9.331l-15.917-40.425c-0.459-1.17-0.105-2.491,0.869-3.268c6.44-5.164,12.381-11.093,17.669-17.633
	c0.781-0.964,2.098-1.322,3.255-0.853l40.402,15.871l9.318-16.111l-33.933-27.07c-0.975-0.775-1.327-2.092-0.881-3.255
	c2.979-7.732,5.142-15.829,6.41-24.079c0.194-1.228,1.163-2.197,2.397-2.38l42.94-6.457v-18.656l-42.94-6.469
	c-1.234-0.185-2.203-1.152-2.397-2.38c-1.263-8.179-3.42-16.282-6.41-24.079c-0.446-1.157-0.094-2.474,0.881-3.249l20.707-16.523
	c1.233-0.981,3.02-0.781,4.007,0.444c0.976,1.234,0.781,3.029-0.452,4.007l-19.085,15.242c2.515,6.901,4.413,14.02,5.652,21.208
	l43.311,6.522c1.398,0.211,2.433,1.407,2.433,2.82v23.562c0,1.41-1.034,2.603-2.433,2.826l-43.311,6.51
	c-1.257,7.239-3.144,14.361-5.652,21.218l34.232,27.312c1.11,0.875,1.398,2.432,0.693,3.648l-11.781,20.365
	c-0.711,1.223-2.203,1.751-3.514,1.223l-40.748-16.012c-4.748,5.67-9.972,10.888-15.571,15.535l16.059,40.784
	c0.518,1.316-0.006,2.809-1.228,3.514l-20.407,11.787c-1.222,0.705-2.773,0.405-3.654-0.693l-27.293-34.232
	c-6.84,2.503-13.961,4.401-21.229,5.652l-6.522,43.316C270.28,428.216,269.081,429.25,267.671,429.25 M255.89,325.407
	c-34.779,0-63.077-28.315-63.077-63.118c0-31.814,23.797-58.746,55.344-62.627c1.563-0.173,2.991,0.914,3.179,2.485
	c0.194,1.557-0.917,2.982-2.48,3.176c-28.697,3.531-50.338,28.021-50.338,56.966c0,31.659,25.736,57.412,57.372,57.412
	c31.653,0,57.413-25.753,57.413-57.412c0-12.856-4.189-25.063-12.116-35.299c-0.97-1.246-0.74-3.038,0.505-4.001
	c1.246-0.969,3.038-0.74,4.002,0.505c8.708,11.246,13.314,24.658,13.314,38.795C319.008,297.092,290.692,325.407,255.89,325.407"/>
<path fill="#1D89C2" d="M268.429,252.335c-0.452,0-0.904-0.111-1.315-0.323c-0.946-0.494-1.534-1.469-1.534-2.533v-44.133h-24.161
	c-1.569,0-2.85-1.281-2.85-2.853V84.993c0-1.578,1.281-2.853,2.85-2.853h174.993c1.574,0,2.85,1.275,2.85,2.853v117.501
	c0,1.572-1.275,2.853-2.85,2.853h-79.271l-67.084,46.478C269.569,252.162,269.005,252.335,268.429,252.335 M244.273,199.636h24.155
	c1.581,0,2.856,1.281,2.856,2.858v41.545l63.347-43.893c0.476-0.329,1.034-0.511,1.622-0.511h77.308V87.843H244.273V199.636z"/>
<path fill="#1D89C2" d="M363.358,114.219h-95.899c-1.574,0-2.85-1.281-2.85-2.859c0-1.569,1.275-2.853,2.85-2.853h95.899
	c1.575,0,2.855,1.284,2.855,2.853C366.214,112.938,364.934,114.219,363.358,114.219"/>
<path fill="#1D89C2" d="M390.381,114.219h-14.654c-1.568,0-2.85-1.281-2.85-2.859c0-1.569,1.281-2.853,2.85-2.853h14.654
	c1.569,0,2.844,1.284,2.844,2.853C393.225,112.938,391.95,114.219,390.381,114.219"/>
<path fill="#1D89C2" d="M390.381,130.313h-98.302c-1.575,0-2.855-1.275-2.855-2.859c0-1.568,1.28-2.847,2.855-2.847h98.302
	c1.569,0,2.844,1.278,2.844,2.847C393.225,129.038,391.95,130.313,390.381,130.313"/>
<path fill="#1D89C2" d="M282.102,130.313h-14.643c-1.574,0-2.85-1.275-2.85-2.859c0-1.568,1.275-2.847,2.85-2.847h14.643
	c1.569,0,2.851,1.278,2.851,2.847C284.952,129.038,283.671,130.313,282.102,130.313"/>
<path fill="#1D89C2" d="M354.95,146.36h-87.491c-1.574,0-2.85-1.275-2.85-2.859c0-1.569,1.275-2.853,2.85-2.853h87.491
	c1.575,0,2.85,1.284,2.85,2.853C357.8,145.084,356.525,146.36,354.95,146.36"/>
<path fill="#1D89C2" d="M390.381,146.36h-14.654c-1.568,0-2.85-1.275-2.85-2.859c0-1.569,1.281-2.853,2.85-2.853h14.654
	c1.569,0,2.844,1.284,2.844,2.853C393.225,145.084,391.95,146.36,390.381,146.36"/>
<path fill="#1D89C2" d="M390.381,162.412H290.41c-1.574,0-2.85-1.281-2.85-2.858c0-1.569,1.275-2.853,2.85-2.853h99.971
	c1.569,0,2.844,1.284,2.844,2.853C393.225,161.131,391.95,162.412,390.381,162.412"/>
<path fill="#1D89C2" d="M282.102,162.412h-14.643c-1.574,0-2.85-1.281-2.85-2.858c0-1.569,1.275-2.853,2.85-2.853h14.643
	c1.569,0,2.851,1.284,2.851,2.853C284.952,161.131,283.671,162.412,282.102,162.412"/>
<path fill="#1D89C2" d="M362.036,178.494h-94.577c-1.574,0-2.85-1.275-2.85-2.853c0-1.575,1.275-2.853,2.85-2.853h94.577
	c1.569,0,2.85,1.278,2.85,2.853C364.886,177.219,363.605,178.494,362.036,178.494"/>
<path fill="#1D89C2" d="M390.381,178.494h-14.654c-1.568,0-2.85-1.275-2.85-2.853c0-1.575,1.281-2.853,2.85-2.853h14.654
	c1.569,0,2.844,1.278,2.844,2.853C393.225,177.219,391.95,178.494,390.381,178.494"/>
</svg>
