<?xml version="1.0" encoding="utf-8"?>
<!-- Generator: Adobe Illustrator 16.0.0, SVG Export Plug-In . SVG Version: 6.00 Build 0)  -->
<!DOCTYPE svg PUBLIC "-//W3C//DTD SVG 1.1//EN" "http://www.w3.org/Graphics/SVG/1.1/DTD/svg11.dtd">
<svg version="1.1" id="Layer_1" xmlns="http://www.w3.org/2000/svg" xmlns:xlink="http://www.w3.org/1999/xlink" x="0px" y="0px"
	 width="512px" height="512px" viewBox="0 0 512 512" enable-background="new 0 0 512 512" xml:space="preserve">
<pattern  x="0.5" y="512.5" width="104.017" height="102.82" patternUnits="userSpaceOnUse" id="Unnamed_Pattern_31" viewBox="0 -102.82 104.017 102.82" overflow="visible">
	<g>
		<polygon fill="none" points="0,-102.82 104.017,-102.82 104.017,0 0,0 		"/>
		<g>
			<defs>
				<rect id="SVGID_1_" x="0" y="-102.82" width="104.017" height="102.82"/>
			</defs>
			<clipPath id="SVGID_2_">
				<use xlink:href="#SVGID_1_"  overflow="visible"/>
			</clipPath>
			<polygon clip-path="url(#SVGID_2_)" fill="#1D89C2" points="103.517,-102.32 0.5,-102.32 0.5,-0.5 103.517,-0.5 			"/>
			<polygon clip-path="url(#SVGID_2_)" fill="none" stroke="#1D89C2" stroke-miterlimit="10" points="103.517,-102.32 0.5,-102.32 
				0.5,-0.5 103.517,-0.5 			"/>
		</g>
	</g>
</pattern>
<g display="none">
	<path display="inline" fill="#1D89C2" d="M419.397,332.157H121.827c-1.607,0-2.912-1.304-2.912-2.918v-174.26
		c0-1.607,1.304-2.911,2.912-2.911h297.569c1.607,0,2.924,1.304,2.924,2.911v174.26
		C422.321,330.854,421.005,332.157,419.397,332.157 M124.732,326.331h291.754V157.897H124.732V326.331z"/>
	<path display="inline" fill="#1D89C2" d="M444.857,157.891H96.336c-1.608,0-2.912-1.304-2.912-2.912v-25.08
		c0-1.614,1.304-2.915,2.912-2.915h348.521c1.607,0,2.912,1.301,2.912,2.915v25.08C447.77,156.587,446.465,157.891,444.857,157.891
		 M99.261,152.068h342.678v-19.257H99.261V152.068z"/>
	<path display="inline" fill="#1D89C2" d="M349.449,305.432h-20.89c-1.607,0-2.924-1.304-2.924-2.916V196.406
		c0-1.614,1.315-2.925,2.924-2.925h20.89c1.607,0,2.912,1.311,2.912,2.925v106.107C352.362,304.128,351.058,305.432,349.449,305.432
		 M331.466,299.605h15.071V199.315h-15.071V299.605z"/>
	<path display="inline" fill="#1D89C2" d="M315.25,305.432h-20.897c-1.601,0-2.905-1.304-2.905-2.916v-92.977
		c0-1.615,1.306-2.919,2.905-2.919h20.897c1.606,0,2.909,1.304,2.909,2.919v92.977C318.159,304.128,316.857,305.432,315.25,305.432
		 M297.278,299.605h15.066v-87.149h-15.066V299.605z"/>
	<path display="inline" fill="#1D89C2" d="M281.072,305.432h-20.896c-1.613,0-2.918-1.304-2.918-2.916v-80.168
		c0-1.607,1.305-2.918,2.918-2.918h20.896c1.609,0,2.912,1.311,2.912,2.918v80.168C283.984,304.128,282.682,305.432,281.072,305.432
		 M263.089,299.605h15.059v-74.351h-15.059V299.605z"/>
	<path display="inline" fill="#1D89C2" d="M246.872,305.432h-20.896c-1.621,0-2.911-1.304-2.911-2.916V240.16
		c0-1.607,1.291-2.918,2.911-2.918h20.896c1.607,0,2.905,1.311,2.905,2.918v62.355C249.777,304.128,248.479,305.432,246.872,305.432
		 M228.888,299.605h15.065v-56.53h-15.065V299.605z"/>
	<path display="inline" fill="#1D89C2" d="M212.67,305.432h-20.896c-1.606,0-2.912-1.304-2.912-2.916v-43.8
		c0-1.612,1.306-2.918,2.912-2.918h20.896c1.607,0,2.912,1.306,2.912,2.918v43.8C215.582,304.128,214.278,305.432,212.67,305.432
		 M194.693,299.605h15.054v-37.972h-15.054V299.605z"/>
	<path display="inline" fill="#1D89C2" d="M363.655,318.364H177.576c-1.614,0-2.912-1.304-2.912-2.91
		c0-1.615,1.298-2.916,2.912-2.916h186.078c1.607,0,2.912,1.301,2.912,2.916C366.567,317.063,365.263,318.364,363.655,318.364"/>
	<path display="inline" fill="#1D89C2" d="M191.826,243.113c-1.197,0-2.312-0.738-2.742-1.931c-0.544-1.504,0.241-3.178,1.76-3.723
		c0.778-0.285,78.619-28.618,112.757-68.365c1.057-1.219,2.879-1.361,4.106-0.31c1.217,1.044,1.354,2.89,0.313,4.102
		c-35.146,40.921-111.961,68.884-115.214,70.051C192.49,243.056,192.154,243.113,191.826,243.113"/>
	<path display="inline" fill="#1D89C2" d="M305.406,191.719c-1.614,0-2.919-1.304-2.919-2.918v-14.395l-13.526,0.07h-0.014
		c-1.601,0-2.897-1.289-2.911-2.896c0-1.602,1.291-2.925,2.899-2.931l16.457-0.076c0.898,0.044,1.508,0.304,2.063,0.849
		c0.546,0.544,0.861,1.288,0.861,2.06v17.319C308.317,190.415,307.014,191.719,305.406,191.719"/>
	<path display="inline" fill="#1D89C2" d="M281.928,132.808H259.31c-1.606,0-2.911-1.301-2.911-2.909v-17.73
		c0-7.849,6.368-14.24,14.191-14.24c7.855,0,14.25,6.391,14.25,14.24v17.73C284.84,131.507,283.535,132.808,281.928,132.808
		 M262.223,126.981h16.793v-14.813c0-4.64-3.779-8.419-8.426-8.419c-4.615,0-8.367,3.779-8.367,8.419V126.981z"/>
	<path display="inline" fill="#1D89C2" d="M407.984,442.409c-1.606,0-2.905-1.305-2.905-2.912V426.08
		c0-10.46-8.508-18.964-18.966-18.964h-31.574c-10.456,0-18.964,8.504-18.964,18.964v13.417c0,1.606-1.304,2.912-2.912,2.912
		c-1.606,0-2.911-1.306-2.911-2.912V426.08c0-13.676,11.114-24.797,24.787-24.797h31.574c13.661,0,24.783,11.121,24.783,24.797
		v13.417C410.896,441.104,409.592,442.409,407.984,442.409 M304.419,442.409c-1.621,0-2.919-1.305-2.919-2.912V426.08
		c0-10.46-8.501-18.964-18.958-18.964h-31.569c-10.457,0-18.971,8.504-18.971,18.964v13.417c0,1.606-1.306,2.912-2.912,2.912
		c-1.608,0-2.912-1.306-2.912-2.912V426.08c0-13.676,11.123-24.797,24.795-24.797h31.569c13.673,0,24.787,11.121,24.787,24.797
		v13.417C307.329,441.104,306.026,442.409,304.419,442.409 M208.568,442.409c-1.613,0-2.918-1.305-2.918-2.912V426.08
		c0-10.46-8.501-18.964-18.952-18.964H155.11c-10.45,0-18.958,8.504-18.958,18.964v13.417c0,1.606-1.298,2.912-2.911,2.912
		c-1.608,0-2.912-1.306-2.912-2.912V426.08c0-13.676,11.128-24.797,24.781-24.797h31.587c13.667,0,24.782,11.121,24.782,24.797
		v13.417C211.48,441.104,210.176,442.409,208.568,442.409 M369.77,397.503c-12.919,0-23.44-10.494-23.44-23.396
		c0-12.926,10.521-23.438,23.44-23.438c12.926,0,23.446,10.512,23.446,23.438C393.216,387.009,382.695,397.503,369.77,397.503
		 M352.211,375.592c0.771,8.998,8.354,16.09,17.559,16.09c9.71,0,17.617-7.883,17.617-17.574c0-0.674-0.031-1.322-0.107-1.975
		c-5.166,0.465-10.109-0.816-14.382-3.47C367.649,374.191,359.92,376.876,352.211,375.592 M352.702,369.766
		c6.653,1.278,13.346-1.387,17.357-6.761c0.481-0.644,1.185-1.052,1.969-1.146c0.779-0.11,1.576,0.127,2.189,0.619
		c3.235,2.594,7.438,3.93,11.389,3.916c-2.874-5.857-8.887-9.902-15.838-9.902C361.561,356.491,354.642,362.145,352.702,369.766
		 M266.203,397.503c-12.92,0-23.44-10.494-23.44-23.396c0-12.926,10.521-23.438,23.44-23.438c10.724,0,19.795,7.238,22.566,17.084
		c0.063,0.174,0.114,0.346,0.151,0.525c0.014,0.061,0.024,0.117,0.038,0.187c0.442,1.804,0.684,3.697,0.684,5.642
		C289.644,387.009,279.13,397.503,266.203,397.503 M248.65,375.586c0.753,9.004,8.344,16.096,17.554,16.096
		c9.717,0,17.615-7.883,17.615-17.574c0-0.668-0.035-1.322-0.111-1.975c-5.077,0.452-10.078-0.822-14.339-3.476
		C264.121,374.127,256.36,376.883,248.65,375.586 M249.131,369.758c6.729,1.313,13.452-1.464,17.42-6.753
		c0.462-0.644,1.171-1.052,1.962-1.146c0.747-0.11,1.57,0.127,2.184,0.619c3.261,2.621,7.033,3.916,11.345,3.916
		c-2.867-5.857-8.888-9.902-15.838-9.902C257.981,356.491,251.068,362.137,249.131,369.758 M170.36,397.503
		c-12.926,0-23.445-10.494-23.445-23.396c0-12.926,10.521-23.438,23.445-23.438c12.919,0,23.435,10.512,23.435,23.438
		C193.793,387.009,183.279,397.503,170.36,397.503 M152.8,375.586c0.753,9.004,8.343,16.096,17.56,16.096
		c9.71,0,17.61-7.883,17.61-17.574c0-0.674-0.038-1.322-0.114-1.975c-5.159,0.465-10.114-0.816-14.382-3.47
		C168.246,374.186,160.592,376.876,152.8,375.586 M153.275,369.766c6.762,1.291,13.363-1.398,17.376-6.761
		c0.47-0.644,1.178-1.052,1.95-1.146c0.798-0.11,1.595,0.127,2.203,0.619c3.229,2.594,7.419,3.93,11.381,3.916
		c-2.86-5.857-8.881-9.902-15.825-9.902C162.137,356.491,155.218,362.145,153.275,369.766"/>
</g>
<g display="none">
	<g display="inline">
		<path fill="#1D89C2" d="M386.159,366.742h-42.088c-1.424,0-2.587-1.156-2.587-2.582V150.514c0-1.423,1.163-2.584,2.587-2.584
			h42.088c1.425,0,2.587,1.161,2.587,2.584V364.16C388.746,365.586,387.584,366.742,386.159,366.742 M346.654,361.581h36.931
			v-208.48h-36.931V361.581z"/>
		<path fill="#1D89C2" d="M330.04,366.742h-42.104c-1.424,0-2.582-1.156-2.582-2.582V177c0-1.421,1.158-2.58,2.582-2.58h42.104
			c1.43,0,2.582,1.159,2.582,2.58v187.16C332.622,365.586,331.47,366.742,330.04,366.742 M290.514,361.581h36.939V179.586h-36.939
			V361.581z"/>
		<path fill="#1D89C2" d="M273.9,366.742h-42.098c-1.423,0-2.582-1.156-2.582-2.582V202.742c0-1.421,1.159-2.582,2.582-2.582H273.9
			c1.43,0,2.582,1.161,2.582,2.582V364.16C276.482,365.586,275.329,366.742,273.9,366.742 M234.389,361.581h36.936V205.327h-36.936
			V361.581z"/>
		<path fill="#1D89C2" d="M217.776,366.742h-42.108c-1.423,0-2.577-1.156-2.577-2.582V238.615c0-1.42,1.153-2.574,2.577-2.574
			h42.108c1.424,0,2.576,1.153,2.576,2.574V364.16C220.353,365.586,219.2,366.742,217.776,366.742 M178.249,361.581h36.939V241.202
			h-36.939V361.581z"/>
		<path fill="#1D89C2" d="M161.636,366.742h-42.104c-1.424,0-2.577-1.156-2.577-2.582v-88.133c0-1.426,1.152-2.584,2.577-2.584
			h42.104c1.429,0,2.582,1.158,2.582,2.584v88.133C164.218,365.586,163.064,366.742,161.636,366.742 M122.114,361.581h36.94v-82.974
			h-36.94V361.581z"/>
		<path fill="#1D89C2" d="M407.22,379.988H98.493c-1.43,0-2.582-1.158-2.582-2.579c0-1.431,1.152-2.584,2.582-2.584H407.22
			c1.424,0,2.577,1.153,2.577,2.584C409.797,378.83,408.644,379.988,407.22,379.988"/>
		<path fill="#1D89C2" d="M110.94,244.727c-1.06,0-2.047-0.655-2.421-1.707c-0.488-1.343,0.208-2.821,1.548-3.299
			c1.388-0.501,138.867-50.514,199.282-120.901c0.939-1.091,2.562-1.208,3.637-0.281c1.086,0.925,1.205,2.556,0.281,3.642
			c-61.31,71.431-200.063,121.891-201.455,122.392C111.527,244.675,111.236,244.727,110.94,244.727"/>
	</g>
	<path display="inline" fill="#1D89C2" d="M310.597,154.358h-0.011c-1.418-0.005-2.57-1.159-2.57-2.58l0.03-27.862l-26.332,0.12
		h-0.011c-1.418,0-2.576-1.148-2.576-2.574c-0.011-1.421,1.143-2.58,2.565-2.59l28.914-0.127c0.551-0.055,1.352,0.265,1.839,0.75
		c0.483,0.488,0.759,1.143,0.759,1.829l-0.03,30.459C313.168,153.205,312.016,154.358,310.597,154.358"/>
</g>
<g display="none">
	<path display="inline" fill="#1D89C2" d="M408.654,422.47H89.513c-0.986,0-1.896-0.521-2.4-1.354
		c-5.323-8.819-8.141-18.956-8.141-29.346c0-3.215,0.285-6.537,0.849-9.889c4.797-27.3,28.389-47.1,56.11-47.1
		c7.41,0,14.577,1.382,21.346,4.123c5.788-18.006,22.451-30.31,41.615-30.31c16.366,0,31.157,9.056,38.682,23.384
		c7.796-6.365,17.47-9.82,27.627-9.82c11.309,0,22.219,4.431,30.349,12.257c13.62-13.399,32.143-21.019,51.261-21.019
		c40.271,0,73.034,32.758,73.034,73.024c0,12.069-3.021,24.031-8.725,34.573C410.626,421.898,409.694,422.47,408.654,422.47
		 M91.119,416.859h315.848c4.759-9.365,7.267-19.848,7.267-30.438c0-37.183-30.241-67.435-67.424-67.435
		c-18.554,0-36.494,7.785-49.217,21.357c-0.529,0.568-1.272,0.889-2.044,0.889h-0.02c-0.783-0.012-1.525-0.346-2.057-0.924
		c-7.243-7.983-17.542-12.564-28.273-12.564c-9.983,0-19.438,3.848-26.609,10.816c-0.667,0.654-1.605,0.929-2.516,0.737
		c-0.908-0.181-1.662-0.808-2.019-1.667c-5.961-14.232-19.765-23.439-35.163-23.439c-17.679,0-32.922,12.024-37.063,29.233
		c-0.196,0.815-0.756,1.505-1.516,1.872c-0.767,0.355-1.651,0.355-2.413,0c-6.894-3.27-14.286-4.915-21.97-4.915
		c-24.994,0-46.269,17.847-50.583,42.437c-0.511,3.031-0.767,6.037-0.767,8.949C84.581,400.613,86.833,409.254,91.119,416.859"/>
	<path display="inline" fill="#1D89C2" d="M320.162,385.148H82.584c-1.545,0-2.799-1.26-2.799-2.805
		c0-1.556,1.254-2.805,2.799-2.805h237.578c1.552,0,2.806,1.249,2.806,2.805C322.968,383.891,321.714,385.148,320.162,385.148"/>
	<path display="inline" fill="#1D89C2" d="M285.904,293.676c-9.877,0-20.578-1.138-31.799-3.381
		c-1.111-0.227-1.979-1.091-2.199-2.199c-7.943-39.724-1.87-70.963,17.562-90.354c13.881-13.879,33.576-20.918,58.54-20.918
		c9.87,0,20.566,1.129,31.815,3.364c1.112,0.226,1.975,1.091,2.199,2.199c7.88,39.735,1.807,70.969-17.561,90.352
		C330.568,286.631,310.863,293.676,285.904,293.676 M257.035,285.156c10.195,1.93,19.896,2.916,28.868,2.916
		c23.419,0,41.794-6.492,54.594-19.295c17.691-17.703,23.35-46.522,16.385-83.446c-10.202-1.928-19.908-2.903-28.875-2.903
		c-23.427,0-41.782,6.486-54.583,19.278C255.674,219.42,250.022,248.245,257.035,285.156"/>
	<path display="inline" fill="#1D89C2" d="M225.569,294.396h-0.006c-17.363,0-31.074-4.914-40.735-14.621
		c-13.508-13.482-17.75-35.159-12.277-62.658c0.22-1.114,1.087-1.991,2.199-2.208c7.743-1.533,15.124-2.321,21.934-2.321
		c17.34,0,31.044,4.9,40.726,14.568c13.524,13.516,17.773,35.197,12.3,62.726c-0.22,1.109-1.094,1.978-2.205,2.197
		C239.765,293.62,232.379,294.396,225.569,294.396 M177.689,220.056c-4.552,24.695-0.73,43.955,11.107,55.771
		c8.575,8.61,20.948,12.973,36.767,12.979h0.006c5.907,0,12.29-0.631,18.998-1.867c4.56-24.711,0.726-43.982-11.111-55.817
		C221.641,219.343,202.328,215.528,177.689,220.056"/>
	<path display="inline" fill="#1D89C2" d="M254.659,290.346c-0.703,0-1.397-0.263-1.95-0.771c-1.105-1.076-1.147-2.848-0.072-3.963
		l70.104-73.119c1.063-1.12,2.841-1.138,3.952-0.086c1.117,1.073,1.158,2.849,0.09,3.97l-70.115,73.104
		C256.125,290.061,255.389,290.346,254.659,290.346"/>
	<path display="inline" fill="#1D89C2" d="M250.059,328.907c-1.552,0-2.805-1.255-2.805-2.806V164.909
		c0-1.545,1.253-2.799,2.805-2.799c1.545,0,2.8,1.254,2.8,2.799v161.192C252.858,327.652,251.604,328.907,250.059,328.907"/>
	<path display="inline" fill="#1D89C2" d="M298.044,245.085c-1.444,0-2.661-1.12-2.787-2.578l-3.27-39.999
		c-0.124-1.54,1.022-2.895,2.567-3.02c1.528-0.145,2.896,1.022,3.014,2.564l3.27,40.002c0.124,1.539-1.018,2.897-2.563,3.024
		C298.198,245.08,298.12,245.085,298.044,245.085"/>
	<path display="inline" fill="#1D89C2" d="M271.237,273.094c-1.354,0-2.544-0.98-2.764-2.359c-0.243-1.525,0.797-2.965,2.323-3.202
		l43.023-6.81c1.492-0.244,2.966,0.799,3.198,2.332c0.243,1.526-0.797,2.956-2.324,3.205l-43.019,6.799
		C271.529,273.082,271.38,273.094,271.237,273.094"/>
	<path display="inline" fill="#1D89C2" d="M246.963,292.141c-0.737,0-1.476-0.291-2.022-0.871l-48.377-50.415
		c-1.069-1.114-1.034-2.885,0.077-3.963c1.117-1.063,2.895-1.034,3.963,0.086l48.378,50.417c1.07,1.115,1.034,2.887-0.083,3.961
		C248.354,291.872,247.657,292.141,246.963,292.141"/>
	<path display="inline" fill="#1D89C2" d="M193.277,263.057c-1.135,0-2.192-0.686-2.614-1.812c-0.559-1.445,0.178-3.065,1.623-3.617
		l17.845-6.753c1.457-0.553,3.061,0.189,3.613,1.637c0.547,1.441-0.186,3.066-1.629,3.601l-17.845,6.771
		C193.943,262.997,193.609,263.057,193.277,263.057"/>
	<path display="inline" fill="#1D89C2" d="M230.941,275.424c-0.065,0-0.131,0-0.189-0.006c-1.539-0.1-2.723-1.429-2.609-2.969
		l1.742-26.79c0.095-1.551,1.432-2.712,2.972-2.603c1.545,0.092,2.715,1.428,2.614,2.969l-1.74,26.784
		C233.632,274.285,232.403,275.424,230.941,275.424"/>
	<path display="inline" fill="#1D89C2" d="M250.059,167.708c-22.309,0-40.457-18.143-40.457-40.463
		c0-22.33,18.148-40.499,40.457-40.499c22.314,0,40.468,18.169,40.468,40.499C290.526,149.565,272.373,167.708,250.059,167.708
		 M250.059,92.344c-19.218,0-34.854,15.659-34.854,34.901c0,19.227,15.635,34.865,34.854,34.865
		c19.226,0,34.859-15.638,34.859-34.865C284.918,108.003,269.283,92.344,250.059,92.344"/>
	<path display="inline" fill="#1D89C2" d="M144.815,188.16c-7.101,0-12.877-5.792-12.877-12.916c0-7.102,5.776-12.878,12.877-12.878
		c7.12,0,12.926,5.776,12.926,12.878C157.74,182.368,151.935,188.16,144.815,188.16 M144.815,167.975
		c-4.017,0-7.278,3.263-7.278,7.269c0,4.026,3.263,7.312,7.278,7.312c4.029,0,7.315-3.286,7.315-7.312
		C152.13,171.238,148.844,167.975,144.815,167.975"/>
	<path display="inline" fill="#1D89C2" d="M351.486,145.391c-7.102,0-12.883-5.791-12.883-12.91c0-7.101,5.781-12.872,12.883-12.872
		c7.118,0,12.925,5.771,12.925,12.872C364.41,139.6,358.604,145.391,351.486,145.391 M351.486,125.207
		c-4.018,0-7.28,3.262-7.28,7.273c0,4.026,3.264,7.306,7.28,7.306c4.035,0,7.315-3.28,7.315-7.306
		C358.802,128.469,355.521,125.207,351.486,125.207"/>
</g>
<g display="none">
	<path display="inline" fill="#1D89C2" d="M298.557,352.48h-98.381c-1.485,0-2.681-1.205-2.681-2.688V285.16
		c-23.36-16.76-37.266-43.754-37.266-72.496c0-49.181,39.997-89.19,89.166-89.19c49.149,0,89.134,40.009,89.134,89.19
		c0,28.729-13.904,55.719-37.291,72.496v64.632C301.237,351.275,300.034,352.48,298.557,352.48 M202.857,347.109h93.019v-63.344
		c0-0.875,0.434-1.699,1.151-2.203c22.629-15.695,36.138-41.466,36.138-68.898c0-46.222-37.578-83.821-83.771-83.821
		c-46.21,0-83.803,37.599-83.803,83.821c0,27.452,13.502,53.203,36.113,68.898c0.718,0.504,1.151,1.328,1.151,2.203L202.857,347.109
		L202.857,347.109z"/>
	<path display="inline" fill="#1D89C2" d="M244.125,114.872c-1.479,0-2.683-1.199-2.683-2.682V82.9c0-1.482,1.203-2.681,2.683-2.681
		c1.474,0,2.683,1.199,2.683,2.681v29.29C246.808,113.673,245.599,114.872,244.125,114.872"/>
	<path display="inline" fill="#1D89C2" d="M279.193,118.214c-0.231,0-0.472-0.031-0.705-0.088c-1.429-0.391-2.271-1.863-1.888-3.289
		l7.585-28.279c0.384-1.435,1.89-2.266,3.291-1.901c1.431,0.387,2.286,1.863,1.902,3.295l-7.599,28.27
		C281.453,117.434,280.377,118.214,279.193,118.214"/>
	<path display="inline" fill="#1D89C2" d="M312.229,130.546c-0.447,0-0.906-0.123-1.341-0.352c-1.278-0.749-1.712-2.386-0.982-3.664
		l14.629-25.396c0.743-1.281,2.388-1.722,3.67-0.991c1.285,0.746,1.72,2.385,0.989,3.666l-14.629,25.39
		C314.054,130.062,313.159,130.546,312.229,130.546"/>
	<path display="inline" fill="#1D89C2" d="M340.927,150.985c-0.681,0-1.379-0.258-1.901-0.787c-1.039-1.045-1.039-2.745,0-3.795
		l20.729-20.723c1.045-1.039,2.743-1.039,3.79,0c1.051,1.051,1.051,2.751,0,3.802l-20.718,20.716
		C342.306,150.727,341.625,150.985,340.927,150.985"/>
	<path display="inline" fill="#1D89C2" d="M150.095,157.809c-0.687,0-1.367-0.258-1.889-0.781l-20.691-20.729
		c-1.051-1.039-1.051-2.745,0-3.783c1.045-1.051,2.745-1.051,3.803,0l20.69,20.723c1.039,1.044,1.039,2.745,0,3.789
		C151.473,157.557,150.781,157.809,150.095,157.809"/>
	<path display="inline" fill="#1D89C2" d="M177.288,135.349c-0.919,0-1.813-0.479-2.311-1.335l-14.661-25.358
		c-0.735-1.281-0.302-2.924,0.977-3.66c1.297-0.756,2.921-0.309,3.664,0.972l14.653,25.358c0.749,1.278,0.314,2.928-0.969,3.664
		C178.219,135.232,177.747,135.349,177.288,135.349"/>
	<path display="inline" fill="#1D89C2" d="M209.366,120.726c-1.178,0-2.261-0.793-2.582-1.986l-7.598-28.271
		c-0.391-1.438,0.465-2.915,1.896-3.295c1.417-0.372,2.908,0.466,3.278,1.895l7.604,28.279c0.384,1.432-0.466,2.892-1.889,3.283
		C209.838,120.695,209.605,120.726,209.366,120.726"/>
	<path display="inline" fill="#1D89C2" d="M192.924,257.41c-0.919,0-1.813-0.484-2.311-1.34l-4.903-8.463
		c-0.673-1.145-0.396-2.616,0.629-3.448l13.377-10.637c-0.77-2.247-1.392-4.577-1.852-6.969l-16.9-2.543
		c-1.303-0.195-2.285-1.322-2.285-2.65v-9.741c0-1.341,0.982-2.455,2.285-2.663l16.9-2.521c0.473-2.417,1.083-4.756,1.839-6.981
		l-13.364-10.635c-1.026-0.831-1.303-2.294-0.643-3.439l4.916-8.479c0.661-1.139,2.064-1.63,3.306-1.146l15.881,6.26
		c1.542-1.778,3.242-3.475,5.104-5.093l-6.244-15.903c-0.498-1.237,0-2.634,1.14-3.311l8.473-4.875
		c1.14-0.664,2.606-0.381,3.438,0.658l10.632,13.344c2.197-0.768,4.532-1.394,6.943-1.863l2.53-16.902
		c0.2-1.315,1.327-2.282,2.644-2.282h9.788c1.327,0,2.462,0.966,2.655,2.282l2.551,16.902c2.404,0.469,4.727,1.095,6.963,1.863
		l10.605-13.344c0.831-1.039,2.284-1.322,3.443-0.658l8.466,4.875c1.152,0.677,1.63,2.074,1.152,3.311l-6.257,15.903
		c1.837,1.612,3.55,3.314,5.104,5.093l15.919-6.26c1.24-0.491,2.632,0,3.305,1.162l4.867,8.463c0.66,1.152,0.383,2.615-0.643,3.439
		l-13.352,10.629c0.779,2.304,1.403,4.649,1.85,6.987l16.878,2.521c1.314,0.208,2.283,1.321,2.283,2.662v9.742
		c0,1.328-0.969,2.455-2.283,2.65l-16.878,2.537c-0.445,2.315-1.069,4.654-1.861,6.975l13.363,10.637
		c1.024,0.832,1.303,2.293,0.643,3.448l-4.867,8.457c-0.673,1.155-2.063,1.655-3.305,1.155l-17.731-6.964
		c-1.365-0.54-2.053-2.108-1.517-3.479c0.547-1.38,2.103-2.063,3.493-1.508l15.565,6.108l2.563-4.447l-13.062-10.396
		c-0.906-0.743-1.246-1.98-0.838-3.074c1.247-3.212,2.115-6.466,2.575-9.657c0.17-1.174,1.089-2.096,2.259-2.263l16.52-2.489v-5.13
		l-16.52-2.468c-1.17-0.177-2.089-1.102-2.259-2.263c-0.473-3.242-1.328-6.49-2.575-9.656c-0.421-1.101-0.081-2.344,0.838-3.075
		l13.062-10.402l-2.563-4.466l-15.565,6.122c-1.108,0.444-2.349,0.098-3.085-0.818c-2.008-2.515-4.395-4.9-7.075-7.072
		c-0.919-0.734-1.24-1.983-0.817-3.072l6.131-15.542l-4.47-2.575l-10.354,13.068c-0.749,0.929-2.002,1.262-3.097,0.825
		c-3.017-1.187-6.259-2.055-9.655-2.584c-1.172-0.189-2.065-1.099-2.241-2.263l-2.494-16.514h-5.161l-2.474,16.514
		c-0.177,1.165-1.069,2.074-2.233,2.263c-3.432,0.535-6.674,1.397-9.626,2.577c-1.083,0.438-2.348,0.117-3.097-0.812l-10.393-13.074
		l-4.47,2.575l6.125,15.542c0.421,1.089,0.095,2.338-0.812,3.072c-2.707,2.184-5.08,4.563-7.076,7.066
		c-0.736,0.922-1.989,1.268-3.078,0.824l-15.548-6.122l-2.587,4.473l13.055,10.396c0.919,0.73,1.253,1.974,0.831,3.075
		c-1.171,2.984-2.026,6.254-2.567,9.675c-0.177,1.162-1.097,2.068-2.255,2.244l-16.523,2.468v5.13l16.523,2.489
		c1.158,0.167,2.078,1.07,2.255,2.231c0.528,3.383,1.396,6.645,2.567,9.689c0.422,1.094,0.088,2.331-0.831,3.074l-13.055,10.39
		l2.587,4.453l15.548-6.108c1.378-0.554,2.927,0.128,3.476,1.508c0.547,1.371-0.14,2.939-1.518,3.479l-17.682,6.963
		C193.591,257.348,193.258,257.41,192.924,257.41"/>
	<path display="inline" fill="#1D89C2" d="M311.234,301.952H187.498c-1.479,0-2.683-1.199-2.683-2.683
		c0-1.482,1.202-2.682,2.683-2.682h123.735c1.473,0,2.668,1.199,2.668,2.682C313.902,300.753,312.706,301.952,311.234,301.952"/>
	<path display="inline" fill="#1D89C2" d="M311.234,320.063H187.498c-1.479,0-2.683-1.205-2.683-2.688
		c0-1.477,1.202-2.682,2.683-2.682h123.735c1.473,0,2.668,1.205,2.668,2.682C313.902,318.857,312.706,320.063,311.234,320.063"/>
	<path display="inline" fill="#1D89C2" d="M311.234,336.561H187.498c-1.479,0-2.683-1.205-2.683-2.682
		c0-1.482,1.202-2.688,2.683-2.688h123.735c1.473,0,2.668,1.205,2.668,2.688C313.902,335.355,312.706,336.561,311.234,336.561"/>
	<path display="inline" fill="#1D89C2" d="M281.415,381.557h-64.111c-1.479,0-2.682-1.195-2.682-2.682v-29.079
		c0-1.489,1.202-2.683,2.682-2.683h64.111c1.479,0,2.688,1.193,2.688,2.683v29.079C284.104,380.359,282.896,381.557,281.415,381.557
		 M219.985,376.193h58.748v-23.717h-58.748V376.193z"/>
	<path display="inline" fill="#1D89C2" d="M259.661,406.738h-20.591c-1.479,0-2.682-1.205-2.682-2.682v-25.183
		c0-1.485,1.203-2.683,2.682-2.683h20.591c1.479,0,2.682,1.197,2.682,2.683v25.183C262.343,405.533,261.141,406.738,259.661,406.738
		 M241.752,401.368h15.222v-19.806h-15.222V401.368z"/>
</g>
<g display="none">
	<path display="inline" fill="#1D89C2" d="M129.501,422.053c-6.222,0-11.282-5.074-11.282-11.326c0-0.814,0.081-1.635,0.264-2.488
		c1.205-5.209,5.728-8.801,11.019-8.801c6.226,0,11.287,5.061,11.287,11.289c0,0.287,0,0.711-0.112,1.222
		C140.35,417.436,135.409,422.053,129.501,422.053 M129.501,405.023c-2.68,0-4.971,1.813-5.569,4.406
		c-0.08,0.424-0.134,0.858-0.134,1.295c0,3.223,2.509,5.748,5.704,5.748c3.031,0,5.469-2.277,5.667-5.301l2.831-0.447h-2.788
		C135.21,407.583,132.65,405.023,129.501,405.023"/>
	<path display="inline" fill="#1D89C2" d="M129.501,422.053c-6.222,0-11.282-5.074-11.282-11.326c0-0.814,0.081-1.635,0.264-2.488
		c1.205-5.209,5.728-8.801,11.019-8.801c6.226,0,11.287,5.061,11.287,11.289c0,0.287,0,0.711-0.112,1.222
		C140.35,417.436,135.409,422.053,129.501,422.053 M129.501,405.023c-2.68,0-4.971,1.813-5.569,4.406
		c-0.08,0.424-0.134,0.858-0.134,1.295c0,3.223,2.509,5.748,5.704,5.748c3.031,0,5.469-2.277,5.667-5.301l2.831-0.447h-2.788
		C135.21,407.583,132.65,405.023,129.501,405.023"/>
	<g display="inline">
		<path fill="#1D89C2" d="M382.842,414.178c-29.979,0-74.769-14.017-122.896-38.462c-0.936-0.47-1.525-1.438-1.521-2.487
			c0-1.057,0.597-2.021,1.526-2.49c9.263-4.68,18.283-9.557,26.817-14.499c24.824-14.341,48.328-30.423,67.978-46.532
			c1.193-0.964,2.949-0.792,3.925,0.385l0.446,0.551c16.438,13.523,29.849,26.676,39.862,39.069
			c0.477,0.585,0.693,1.343,0.597,2.088c-0.081,0.753-0.481,1.44-1.079,1.894c-1.422,1.066-2.241,2.719-2.241,4.509
			c0,4.278,5.007,7.282,8.981,4.76c0.637-0.401,1.395-0.539,2.127-0.366c0.725,0.166,1.354,0.618,1.744,1.262
			c9.464,15.395,11.725,28.275,6.538,37.259C410.613,409.785,399.567,414.178,382.842,414.178 M267.397,373.204
			c44.892,22.219,87.747,35.388,115.444,35.388c10.038,0,23.046-1.777,27.967-10.277c3.877-6.711,2.088-16.852-5.161-29.395
			c-1.182,0.406-2.396,0.613-3.637,0.613c-6.252,0-11.333-5.082-11.333-11.333c0-2.569,0.843-4.974,2.374-6.925
			c-9.43-11.338-21.762-23.324-36.696-35.68c-19.466,15.762-42.511,31.453-66.791,45.482
			C282.459,365.189,275.025,369.258,267.397,373.204"/>
		<path fill="#1D89C2" d="M402.011,369.527c-6.252,0-11.333-5.076-11.333-11.322c0-3.561,1.623-6.83,4.462-8.977
			c1.973-1.508,4.353-2.316,6.871-2.316c6.239,0,11.327,5.07,11.327,11.293c0,3.779-1.888,7.302-5.041,9.424
			C406.295,368.902,404.2,369.527,402.011,369.527 M402.011,352.498c-1.273,0-2.489,0.413-3.505,1.182
			c-1.429,1.079-2.248,2.73-2.248,4.525c0,4.273,5.007,7.277,8.977,4.755c1.554-1.043,2.522-2.834,2.522-4.755
			C407.757,355.059,405.177,352.498,402.011,352.498"/>
		<path fill="#1D89C2" d="M387.906,224.005c-6.246,0-11.328-5.064-11.328-11.282c0.048-6.274,5.129-11.299,11.328-11.299
			c6.225,0,11.282,5.07,11.282,11.299c0,0.448-0.034,0.849-0.092,1.291C398.413,219.767,393.602,224.005,387.906,224.005
			 M387.906,207.011c-3.147,0-5.729,2.536-5.752,5.644c0,3.212,2.58,5.759,5.752,5.759c2.874,0,5.294-2.123,5.64-4.939
			c0.033-0.315,0.067-0.516,0.067-0.751C393.613,209.575,391.05,207.011,387.906,207.011"/>
		<path fill="#1D89C2" d="M299.253,243.306h-70.6c-1.543,0-2.796-1.25-2.796-2.793v-9.733
			c-16.802-12.24-26.788-31.751-26.788-52.503c0-35.79,29.113-64.903,64.897-64.903c35.789,0,64.902,29.113,64.902,64.903
			c0,20.763-9.997,40.275-26.824,52.503v9.733C302.046,242.055,300.802,243.306,299.253,243.306 M231.444,237.719h65.021v-8.385
			c0-0.918,0.447-1.772,1.197-2.289c16.043-11.121,25.627-29.349,25.627-48.769c0-32.709-26.612-59.317-59.321-59.317
			c-32.704,0-59.317,26.607-59.317,59.317c0,19.409,9.567,37.648,25.596,48.769c0.746,0.517,1.197,1.371,1.197,2.289V237.719
			L231.444,237.719z"/>
		<path fill="#1D89C2" d="M299.253,279.543h-70.603c-1.537,0-2.791-1.251-2.791-2.788V265.33c0-1.548,1.253-2.793,2.791-2.793
			h70.603c1.549,0,2.799,1.245,2.799,2.793v11.425C302.052,278.292,300.802,279.543,299.253,279.543 M231.442,273.956h65.023v-5.839
			h-65.023V273.956L231.442,273.956z"/>
		<path fill="#1D89C2" d="M299.253,268.117h-70.603c-1.537,0-2.791-1.25-2.791-2.787v-11.884c0-1.549,1.253-2.799,2.791-2.799
			h70.603c1.549,0,2.799,1.25,2.799,2.799v11.884C302.052,266.867,300.802,268.117,299.253,268.117 M231.442,262.537h65.023v-6.298
			h-65.023V262.537L231.442,262.537z"/>
		<path fill="#1D89C2" d="M299.253,256.233h-70.603c-1.537,0-2.791-1.25-2.791-2.787v-12.934c0-1.543,1.253-2.794,2.791-2.794
			h70.603c1.549,0,2.799,1.25,2.799,2.794v12.934C302.052,254.983,300.802,256.233,299.253,256.233 M231.442,250.647h65.023v-7.342
			h-65.023V250.647L231.442,250.647z"/>
		<path fill="#1D89C2" d="M286.99,300.386h-46.033c-1.548,0-2.787-1.25-2.787-2.794v-20.837c0-1.549,1.239-2.799,2.787-2.799h46.033
			c1.537,0,2.787,1.25,2.787,2.799v20.837C289.777,299.136,288.527,300.386,286.99,300.386 M243.744,294.799h40.459v-15.256h-40.459
			V294.799z"/>
		<path fill="#1D89C2" d="M271.383,318.51h-14.814c-1.536,0-2.788-1.251-2.788-2.787v-18.131c0-1.537,1.252-2.793,2.788-2.793
			h14.814c1.544,0,2.795,1.256,2.795,2.793v18.131C274.178,317.259,272.927,318.51,271.383,318.51 M259.356,312.924h9.233v-12.537
			h-9.233V312.924z"/>
		<path fill="#1D89C2" d="M166.019,314.771c-0.623,0-1.239-0.201-1.747-0.619c-46.874-38.325-68.344-72.476-57.443-91.322
			c4.97-8.66,15.962-13.042,32.678-13.042c6.132,0,13.04,0.607,20.533,1.807c0.739,0.12,1.396,0.533,1.833,1.141
			c0.428,0.608,0.604,1.365,0.476,2.099c-0.065,0.345-0.089,0.688-0.089,1.067c0,3.167,2.579,5.748,5.75,5.748
			c2.688,0,4.992-1.847,5.609-4.491c0.162-0.728,0.616-1.359,1.25-1.749c0.639-0.396,1.41-0.517,2.133-0.333
			c15.804,3.877,32.981,9.683,51.078,17.247h0.575c1.537,0,2.787,1.25,2.787,2.793v33.727c0,1.41-1.043,2.579-2.399,2.764
			c-22.718,13.559-43.304,27.863-61.192,42.507C167.327,314.547,166.67,314.771,166.019,314.771 M139.506,215.362
			c-10.021,0-22.978,1.783-27.843,10.254c-9.011,15.578,12.309,47.96,54.396,82.776c17.742-14.363,37.788-28.23,59.801-41.389
			v-29.561c-16.885-7.055-32.947-12.55-47.791-16.342c-1.906,3.706-5.731,6.132-10.06,6.132c-5.974,0-10.878-4.646-11.305-10.502
			C150.45,215.821,144.674,215.362,139.506,215.362"/>
		<path fill="#1D89C2" d="M168.006,227.234c-6.249,0-11.33-5.082-11.33-11.333c0-0.716,0.06-1.365,0.172-2.03
			c1.021-5.403,5.715-9.303,11.158-9.303c6.243,0,11.331,5.082,11.331,11.333c0,0.77-0.089,1.572-0.273,2.449
			C177.849,223.598,173.309,227.234,168.006,227.234 M168.006,210.155c-2.768,0-5.151,1.984-5.667,4.719
			c-0.054,0.299-0.083,0.648-0.083,1.027c0,3.172,2.579,5.748,5.75,5.748c2.689,0,4.999-1.847,5.608-4.497
			c0.09-0.436,0.141-0.86,0.141-1.25C173.756,212.724,171.172,210.155,168.006,210.155"/>
		<path fill="#1D89C2" d="M299.253,279.543H286.99c-1.543,0-2.786-1.251-2.786-2.793c0-1.538,1.243-2.794,2.786-2.794h9.476v-44.622
			c0-0.918,0.453-1.778,1.197-2.289c16.043-11.121,25.622-29.354,25.622-48.769c0-32.709-26.603-59.317-59.316-59.317
			c-32.707,0-59.312,26.607-59.312,59.317c0,19.409,9.562,37.648,25.589,48.769c0.746,0.517,1.197,1.371,1.197,2.289v44.622h9.514
			c1.537,0,2.788,1.256,2.788,2.794c0,1.542-1.25,2.793-2.788,2.793h-12.304c-1.546,0-2.796-1.251-2.796-2.793v-45.971
			c-16.802-12.24-26.788-31.751-26.788-52.503c0-35.79,29.113-64.903,64.897-64.903c35.789,0,64.902,29.113,64.902,64.903
			c0,20.763-10.003,40.275-26.818,52.503v45.971C302.052,278.292,300.802,279.543,299.253,279.543"/>
		<path fill="#1D89C2" d="M121.173,411.598c-0.304,0-0.616-0.058-0.929-0.16c-6.272-2.203-10.789-5.689-13.431-10.348
			c-10.866-18.736,10.61-52.857,57.456-91.252c18.313-14.992,39.335-29.584,62.532-43.395c1.322-0.781,3.031-0.356,3.826,0.975
			c0.791,1.318,0.354,3.04-0.97,3.825c-22.959,13.668-43.757,28.093-61.804,42.873c-43.264,35.452-65.305,68.487-56.196,84.198
			c1.968,3.475,5.475,6.113,10.438,7.846c1.454,0.516,2.226,2.109,1.709,3.566C123.404,410.875,122.323,411.598,121.173,411.598"/>
		<path fill="#1D89C2" d="M139.613,414.167c-0.564,0-1.115-0.013-1.669-0.022c-1.536-0.021-2.764-1.303-2.734-2.84
			c0.027-1.52,1.272-2.734,2.79-2.734h0.051c28.598,0.344,74.173-13.611,121.897-37.838c9.264-4.67,18.29-9.551,26.824-14.487
			c24.824-14.347,48.328-30.429,67.979-46.532c43.153-35.331,65.155-68.334,56.06-84.089c-2.615-4.491-7.663-7.542-15.016-9.073
			c-1.521-0.327-2.483-1.795-2.168-3.31c0.315-1.514,1.795-2.455,3.304-2.167c8.959,1.881,15.257,5.827,18.709,11.747
			c10.869,18.824-10.575,52.916-57.354,91.218c-19.868,16.289-43.636,32.555-68.719,47.043c-8.625,4.988-17.738,9.917-27.089,14.637
			C214.877,399.874,169.159,414.167,139.613,414.167"/>
		<path fill="#1D89C2" d="M299.924,235.815c-1.106,0-2.15-0.666-2.587-1.754c-0.579-1.424,0.114-3.052,1.538-3.626
			c31.511-12.71,59.31-19.822,80.388-20.59c1.411,0.012,2.84,1.141,2.892,2.685c0.059,1.537-1.146,2.839-2.685,2.891
			c-20.144,0.733-48.022,7.903-78.502,20.188C300.629,235.746,300.272,235.815,299.924,235.815"/>
		<path fill="#1D89C2" d="M396.813,354.254c-0.813,0-1.617-0.361-2.168-1.044c-9.818-12.147-23.033-25.076-39.282-38.429
			c-1.192-0.986-1.358-2.741-0.385-3.934c0.976-1.193,2.742-1.365,3.924-0.38c16.541,13.589,30.03,26.79,40.08,39.242
			c0.975,1.199,0.78,2.953-0.413,3.923C398.053,354.047,397.433,354.254,396.813,354.254"/>
		<path fill="#1D89C2" d="M382.475,414.201c-29.021,0-73.024-13.342-122.521-38.485c-9.338-4.714-18.458-9.642-27.096-14.637
			c-25.158-14.539-48.875-30.767-68.586-46.929c-46.868-38.33-68.347-72.475-57.446-91.321c6.809-11.849,25.208-15.738,53.211-11.23
			c1.528,0.241,2.561,1.675,2.313,3.189c-0.241,1.531-1.704,2.581-3.193,2.317c-25.163-4.038-42.025-1.01-47.497,8.517
			c-9.134,15.79,12.907,48.851,56.153,84.209c19.481,15.974,42.939,32.021,67.832,46.405c8.558,4.949,17.574,9.83,26.825,14.5
			c72.371,36.746,136.133,48.615,148.338,27.576c4.096-7.088,1.87-18.004-6.446-31.545c-0.814-1.309-0.401-3.029,0.918-3.832
			c1.301-0.813,3.028-0.401,3.831,0.918c9.464,15.395,11.718,28.275,6.532,37.258C410.522,409.928,398.89,414.201,382.475,414.201"
			/>
		<path fill="#1D89C2" d="M227.518,237.902c-0.357,0-0.728-0.068-1.081-0.217c-18.012-7.56-35.098-13.341-50.772-17.195
			c-1.491-0.356-2.41-1.87-2.036-3.374c0.36-1.49,1.86-2.42,3.369-2.042c15.959,3.924,33.317,9.797,51.603,17.459
			c1.42,0.597,2.091,2.237,1.498,3.659C229.643,237.261,228.611,237.902,227.518,237.902"/>
		<path fill="#1D89C2" d="M260.165,108.911c-1.543,0-2.794-1.25-2.794-2.799V85.107c0-1.542,1.251-2.787,2.794-2.787
			s2.793,1.245,2.793,2.787v21.004C262.958,107.66,261.708,108.911,260.165,108.911"/>
		<path fill="#1D89C2" d="M285.407,111.342c-0.229,0-0.472-0.035-0.712-0.104c-1.49-0.39-2.381-1.915-1.984-3.407l5.393-20.349
			c0.396-1.48,1.938-2.386,3.418-1.973c1.49,0.39,2.374,1.921,1.984,3.413l-5.402,20.338
			C287.77,110.511,286.646,111.342,285.407,111.342"/>
		<path fill="#1D89C2" d="M309.135,120.209c-0.472,0-0.946-0.12-1.382-0.367c-1.344-0.762-1.803-2.472-1.038-3.808l10.455-18.25
			c0.769-1.343,2.473-1.79,3.809-1.033c1.343,0.757,1.807,2.467,1.032,3.808l-10.449,18.251
			C311.045,119.705,310.104,120.209,309.135,120.209"/>
		<path fill="#1D89C2" d="M212.201,123.651c-0.964,0-1.903-0.505-2.421-1.399l-10.501-18.216c-0.769-1.33-0.31-3.04,1.024-3.808
			c1.333-0.769,3.042-0.311,3.817,1.021l10.502,18.205c0.763,1.342,0.31,3.051-1.029,3.82
			C213.159,123.525,212.678,123.651,212.201,123.651"/>
		<path fill="#1D89C2" d="M235.215,113.143c-1.233,0-2.36-0.832-2.695-2.082l-5.396-20.297c-0.394-1.486,0.486-3.018,1.979-3.414
			c1.486-0.396,3.021,0.488,3.419,1.979l5.393,20.303c0.396,1.48-0.488,3.017-1.979,3.407
			C235.697,113.109,235.451,113.143,235.215,113.143"/>
		<path fill="#1D89C2" d="M223.42,211.244c-0.977,0-1.916-0.516-2.426-1.405l-3.465-6.068c-0.688-1.205-0.393-2.712,0.684-3.573
			l9.102-7.245c-0.43-1.313-0.779-2.627-1.058-3.928l-11.534-1.71c-1.368-0.201-2.378-1.382-2.378-2.764v-7.032
			c0-1.382,1.004-2.559,2.372-2.754l11.54-1.754c0.278-1.307,0.628-2.627,1.058-3.924l-9.102-7.25
			c-1.075-0.865-1.371-2.374-0.684-3.573l3.465-6.074c0.693-1.205,2.168-1.71,3.44-1.216l10.877,4.268
			c0.917-1.021,1.87-1.961,2.856-2.851l-4.256-10.846c-0.496-1.296,0.011-2.753,1.204-3.441l6.073-3.51
			c1.199-0.7,2.713-0.413,3.579,0.666l7.268,9.097c1.238-0.39,2.547-0.735,3.945-1.039l1.71-11.534
			c0.206-1.365,1.382-2.386,2.771-2.386h7.024c1.391,0,2.56,1.021,2.767,2.386l1.714,11.511c1.326,0.282,2.649,0.637,3.947,1.05
			l7.271-9.085c0.866-1.079,2.393-1.343,3.584-0.666l6.058,3.51c1.192,0.688,1.697,2.156,1.198,3.441l-4.25,10.84
			c0.999,0.896,1.939,1.835,2.846,2.845l10.853-4.256c1.278-0.505,2.741,0,3.43,1.205l3.516,6.08
			c0.688,1.193,0.396,2.713-0.683,3.579l-9.107,7.25c0.412,1.262,0.757,2.576,1.026,3.924l11.579,1.754
			c1.366,0.195,2.375,1.372,2.375,2.754v6.997c0,1.376-1.009,2.547-2.375,2.753l-11.579,1.755c-0.271,1.342-0.614,2.65-1.026,3.928
			l9.107,7.245c1.077,0.861,1.376,2.38,0.683,3.579l-3.516,6.074c-0.684,1.187-2.141,1.704-3.43,1.199l-12.722-4.978
			c-1.439-0.562-2.146-2.179-1.59-3.613c0.568-1.434,2.191-2.134,3.619-1.59l10.49,4.113l1.105-1.915l-8.785-6.986
			c-0.965-0.769-1.314-2.077-0.86-3.212c0.826-2.088,1.41-4.348,1.76-6.711c0.185-1.222,1.138-2.173,2.348-2.362l11.194-1.687
			v-2.179l-11.194-1.698c-1.21-0.183-2.163-1.141-2.348-2.351c-0.35-2.374-0.934-4.634-1.76-6.71
			c-0.454-1.141-0.104-2.443,0.86-3.212l8.785-6.992l-1.105-1.915l-10.484,4.113c-1.142,0.458-2.448,0.091-3.213-0.872
			c-1.433-1.818-3.067-3.453-4.853-4.841c-0.969-0.769-1.324-2.077-0.876-3.223l4.105-10.496l-1.903-1.102l-7.009,8.752
			c-0.752,0.94-2.03,1.29-3.161,0.861c-2.214-0.826-4.515-1.446-6.824-1.813c-1.199-0.201-2.141-1.148-2.313-2.353l-1.656-11.086
			h-2.221l-1.646,11.086c-0.178,1.182-1.095,2.129-2.265,2.341c-2.621,0.47-4.875,1.078-6.895,1.824
			c-1.13,0.429-2.404,0.068-3.167-0.861l-6.986-8.752l-1.921,1.113l4.112,10.484c0.448,1.146,0.092,2.455-0.872,3.211
			c-1.755,1.376-3.407,3.022-4.921,4.887c-0.757,0.94-2.048,1.284-3.178,0.838l-10.481-4.113l-1.087,1.909l8.792,6.998
			c0.958,0.769,1.308,2.065,0.864,3.2c-0.864,2.226-1.475,4.485-1.805,6.722c-0.176,1.21-1.133,2.168-2.343,2.351l-11.146,1.687
			v2.225l11.135,1.652c1.222,0.183,2.179,1.141,2.354,2.362c0.33,2.22,0.94,4.485,1.805,6.723c0.443,1.135,0.094,2.432-0.864,3.2
			l-8.792,6.992l1.082,1.903l10.487-4.107c1.417-0.544,3.051,0.156,3.612,1.59c0.563,1.434-0.148,3.051-1.583,3.613l-12.724,4.978
			C224.103,211.176,223.761,211.244,223.42,211.244"/>
		<path fill="#1D89C2" d="M308.383,243.306h-88.814c-1.536,0-2.791-1.25-2.791-2.799c0-1.538,1.253-2.788,2.791-2.788h88.814
			c1.538,0,2.789,1.25,2.789,2.788C311.172,242.055,309.921,243.306,308.383,243.306"/>
		<path fill="#1D89C2" d="M308.383,256.233h-88.814c-1.536,0-2.791-1.25-2.791-2.793c0-1.538,1.253-2.793,2.791-2.793h88.814
			c1.538,0,2.789,1.255,2.789,2.793C311.172,254.983,309.921,256.233,308.383,256.233"/>
		<path fill="#1D89C2" d="M308.383,268.117h-88.814c-1.536,0-2.791-1.25-2.791-2.793c0-1.537,1.253-2.793,2.791-2.793h88.814
			c1.538,0,2.789,1.256,2.789,2.793C311.172,266.867,309.921,268.117,308.383,268.117"/>
		<path fill="#1D89C2" d="M286.99,300.386h-15.606c-1.536,0-2.787-1.25-2.787-2.794c0-1.537,1.251-2.793,2.787-2.793h12.82v-15.256
			h-40.459v15.256h12.823c1.543,0,2.788,1.256,2.788,2.793c0,1.544-1.245,2.794-2.788,2.794h-15.611
			c-1.548,0-2.787-1.25-2.787-2.794v-20.837c0-1.549,1.239-2.799,2.787-2.799h46.033c1.537,0,2.787,1.25,2.787,2.799v20.837
			C289.777,299.136,288.527,300.386,286.99,300.386"/>
		<path fill="#1D89C2" d="M271.383,318.51h-14.814c-1.536,0-2.788-1.251-2.788-2.787v-18.131c0-1.537,1.252-2.793,2.788-2.793
			h14.814c1.544,0,2.795,1.256,2.795,2.793v18.131C274.178,317.259,272.927,318.51,271.383,318.51 M259.356,312.924h9.233v-12.537
			h-9.233V312.924z"/>
		<path fill="#1D89C2" d="M168.006,227.234c-6.249,0-11.33-5.082-11.33-11.333c0-0.716,0.06-1.365,0.172-2.03
			c1.021-5.403,5.715-9.303,11.158-9.303c6.243,0,11.331,5.082,11.331,11.333c0,0.77-0.089,1.572-0.273,2.449
			C177.849,223.598,173.309,227.234,168.006,227.234 M168.006,210.155c-2.768,0-5.151,1.984-5.667,4.719
			c-0.054,0.299-0.083,0.648-0.083,1.027c0,3.172,2.579,5.748,5.75,5.748c2.689,0,4.999-1.847,5.608-4.497
			c0.09-0.436,0.141-0.86,0.141-1.25C173.756,212.724,171.172,210.155,168.006,210.155"/>
		<path fill="#1D89C2" d="M402.011,369.527c-6.252,0-11.333-5.076-11.333-11.322c0-3.561,1.623-6.83,4.462-8.977
			c1.973-1.508,4.353-2.316,6.871-2.316c6.239,0,11.327,5.07,11.327,11.293c0,3.779-1.888,7.302-5.041,9.424
			C406.295,368.902,404.2,369.527,402.011,369.527 M402.011,352.498c-1.273,0-2.489,0.413-3.505,1.182
			c-1.429,1.079-2.248,2.73-2.248,4.525c0,4.273,5.007,7.277,8.977,4.755c1.554-1.043,2.522-2.834,2.522-4.755
			C407.757,355.059,405.177,352.498,402.011,352.498"/>
		<path fill="#1D89C2" d="M387.906,224.005c-6.246,0-11.328-5.064-11.328-11.282c0.048-6.274,5.129-11.299,11.328-11.299
			c6.225,0,11.282,5.07,11.282,11.299c0,0.448-0.034,0.849-0.092,1.291C398.413,219.767,393.602,224.005,387.906,224.005
			 M387.906,207.011c-3.147,0-5.729,2.536-5.752,5.644c0,3.212,2.58,5.759,5.752,5.759c2.874,0,5.294-2.123,5.64-4.939
			c0.033-0.315,0.067-0.516,0.067-0.751C393.613,209.575,391.05,207.011,387.906,207.011"/>
	</g>
</g>
<g display="none">
	<path display="inline" fill="#1D89C2" d="M315.465,350.432H173.393c-0.429,0-0.857-0.132-1.217-0.369
		c-36.848-24.386-58.85-65.287-58.85-109.417c0-72.308,58.814-131.138,131.098-131.138c72.317,0,131.138,58.83,131.138,131.138
		c0,44.116-22.008,85.021-58.875,109.417C316.323,350.3,315.904,350.432,315.465,350.432 M174.062,346.006h140.745
		c35.287-23.619,56.342-62.96,56.342-105.36c0-69.868-56.846-126.71-126.724-126.71c-69.844,0-126.669,56.842-126.669,126.71
		C117.755,283.061,138.791,322.4,174.062,346.006"/>
	<path display="inline" fill="#1D89C2" d="M323.79,328.866H165.103c-1.217,0-2.21-0.987-2.21-2.212v-58.316
		c0-0.916,0.554-1.727,1.402-2.059l54.545-21.443c0.803-0.327,1.721-0.137,2.344,0.459l22.412,21.571l24.142-21.621
		c0.624-0.557,1.508-0.711,2.285-0.414l54.575,21.444c0.849,0.336,1.4,1.146,1.4,2.063v58.316
		C326,327.879,325.013,328.866,323.79,328.866 M167.318,324.441H321.58v-54.594l-51.9-20.406l-24.667,22.093
		c-0.863,0.766-2.175,0.74-3.008-0.059l-22.86-22.008l-51.827,20.379V324.441L167.318,324.441z"/>
	<path display="inline" fill="#1D89C2" d="M297.024,328.782H191.874c-1.223,0-2.221-0.99-2.221-2.218v-36.608
		c0-1.215,0.998-2.207,2.221-2.207c1.212,0,2.209,0.992,2.209,2.207v34.396h100.729v-34.396c0-1.215,0.988-2.207,2.21-2.207
		s2.21,0.992,2.21,2.207v36.608C299.234,327.792,298.245,328.782,297.024,328.782"/>
	<path display="inline" fill="#1D89C2" d="M270.672,277.104h-52.476c-1.227,0-2.21-0.984-2.21-2.213v-28
		c0-1.225,0.983-2.217,2.21-2.217c1.223,0,2.209,0.992,2.209,2.217v25.79h48.052v-25.79c0-1.225,0.998-2.217,2.215-2.217
		s2.215,0.992,2.215,2.217v28C272.887,276.119,271.889,277.104,270.672,277.104"/>
	<path display="inline" fill="#1D89C2" d="M252.315,295.395h-15.771c-1.223,0-2.215-0.996-2.215-2.213v-18.287
		c0-1.229,0.992-2.215,2.215-2.215h15.771c1.229,0,2.215,0.985,2.215,2.215v18.287C254.53,294.398,253.543,295.395,252.315,295.395
		 M238.753,290.966h11.357v-13.864h-11.357V290.966z"/>
	<path display="inline" fill="#1D89C2" d="M258.756,328.866h-30.253c-0.679,0-1.317-0.308-1.736-0.843
		c-0.419-0.531-0.574-1.223-0.419-1.887l8.041-33.471c0.239-0.997,1.132-1.701,2.155-1.701h15.771c1.067,0,1.977,0.762,2.176,1.797
		l6.436,33.479c0.119,0.648-0.045,1.313-0.465,1.822C260.037,328.575,259.414,328.866,258.756,328.866 M231.306,324.441h24.771
		l-5.581-29.049h-12.211L231.306,324.441z"/>
	<path display="inline" fill="#1D89C2" d="M245.143,235.496c-22.896,0-41.536-18.653-41.536-41.574
		c0-22.881,18.642-41.501,41.536-41.501c22.906,0,41.541,18.621,41.541,41.501C286.684,216.843,268.049,235.496,245.143,235.496
		 M245.143,156.845c-20.461,0-37.112,16.636-37.112,37.077c0,20.489,16.65,37.146,37.112,37.146
		c20.467,0,37.122-16.657,37.122-37.146C282.265,173.481,265.609,156.845,245.143,156.845"/>
	<path display="inline" fill="#1D89C2" d="M274.972,187.138c-10.2,0-20.093-3.1-27.115-8.504c-0.974-0.751-1.151-2.135-0.409-3.105
		c0.743-0.965,2.125-1.149,3.104-0.409c8.101,6.228,20.661,8.949,32.338,6.916c1.192-0.19,2.345,0.593,2.554,1.798
		c0.21,1.205-0.594,2.35-1.801,2.559C280.798,186.884,277.875,187.138,274.972,187.138"/>
	<path display="inline" fill="#1D89C2" d="M224.417,186.385c-6.051,0-11.857-1.033-17.274-3.08
		c-1.137-0.429-1.716-1.706-1.287-2.846c0.435-1.147,1.706-1.716,2.854-1.292c4.908,1.855,10.195,2.798,15.708,2.798
		c18.162,0,32.927-10.276,32.927-22.908c0-1.22,0.998-2.207,2.215-2.207c1.222,0,2.205,0.987,2.205,2.207
		C261.764,174.132,245.013,186.385,224.417,186.385"/>
	<path display="inline" fill="#1D89C2" d="M361.909,365.624H126.954c-1.218,0-2.216-0.99-2.216-2.217
		c0-1.222,0.998-2.214,2.216-2.214h234.955c1.212,0,2.209,0.992,2.209,2.214C364.118,364.634,363.121,365.624,361.909,365.624"/>
	<path display="inline" fill="#1D89C2" d="M361.909,378.618H126.954c-1.218,0-2.216-0.99-2.216-2.218
		c0-1.221,0.998-2.213,2.216-2.213h234.955c1.212,0,2.209,0.992,2.209,2.213C364.118,377.628,363.121,378.618,361.909,378.618"/>
	<path display="inline" fill="#1D89C2" d="M328.454,178.676h-4.879l-0.063,49.563c0,1.364,1.082,2.441,2.449,2.441l4.758,0.035
		l-11.853,9.527l-11.852-9.527h4.769c1.356,0,2.475-1.112,2.475-2.477v-36.85h-4.918v34.408h-9.277
		c-0.748,0-1.427,0.313-1.921,0.928c-0.838,1.048-0.679,2.597,0.364,3.43l18.785,15.129c0.897,0.716,2.204,0.775,3.122,0.03
		L339.1,230.28c0.628-0.434,1.057-1.212,1.057-2.042c0-1.359-1.077-2.442-2.442-2.442H328.4L328.454,178.676z M179.583,245.844
		h-4.889l-0.064-49.567c0-1.362,1.087-2.447,2.444-2.447l4.798-0.025l-11.883-9.535l-11.847,9.535h4.764
		c1.362,0,2.475,1.11,2.475,2.472v36.847h-4.918v-34.406h-9.288c-0.738,0-1.417-0.307-1.916-0.925
		c-0.838-1.05-0.668-2.599,0.374-3.437l18.78-15.129c0.888-0.741,2.199-0.771,3.123-0.03l18.695,15.037
		c0.613,0.461,1.042,1.175,1.042,2.043c0,1.334-1.078,2.441-2.438,2.441h-9.318L179.583,245.844z"/>
</g>
<g display="none">
	<path display="inline" fill="#1D89C2" d="M326.702,239.802H185.701c-1.541,0-2.789-1.243-2.789-2.789v-51.864
		c0-1.142,0.701-2.176,1.766-2.581l48.444-19.039c1.011-0.405,2.17-0.179,2.956,0.57l19.385,18.647l20.896-18.707
		c0.778-0.702,1.892-0.904,2.878-0.511l48.485,19.039c1.068,0.405,1.771,1.439,1.771,2.581v51.864
		C329.491,238.559,328.242,239.802,326.702,239.802 M188.489,234.223h135.419v-47.166l-45.112-17.713l-21.549,19.277
		c-1.077,0.969-2.735,0.939-3.788-0.065l-19.961-19.188l-45.007,17.69v47.165H188.489z"/>
	<path display="inline" fill="#1D89C2" d="M302.947,239.694H209.45c-1.541,0-2.79-1.249-2.79-2.789v-32.521
		c0-1.534,1.249-2.782,2.79-2.782c1.546,0,2.794,1.248,2.794,2.782v29.727h87.915v-29.727c0-1.534,1.248-2.782,2.787-2.782
		c1.547,0,2.797,1.248,2.797,2.782v32.521C305.743,238.445,304.493,239.694,302.947,239.694"/>
	<path display="inline" fill="#1D89C2" d="M279.521,193.788h-46.653c-1.534,0-2.789-1.249-2.789-2.788v-24.885
		c0-1.541,1.255-2.783,2.789-2.783c1.546,0,2.794,1.243,2.794,2.783v22.09h41.07v-22.09c0-1.541,1.255-2.783,2.789-2.783
		c1.546,0,2.795,1.243,2.795,2.783V191C282.315,192.539,281.066,193.788,279.521,193.788"/>
	<path display="inline" fill="#1D89C2" d="M263.216,210.028h-14.021c-1.546,0-2.795-1.249-2.795-2.795V191
		c0-1.546,1.249-2.795,2.795-2.795h14.021c1.54,0,2.788,1.249,2.788,2.795v16.232C266.004,208.779,264.756,210.028,263.216,210.028
		 M251.983,204.451h8.443v-10.657h-8.443V204.451z"/>
	<path display="inline" fill="#1D89C2" d="M268.936,239.802H242c-0.856,0-1.653-0.387-2.188-1.059
		c-0.528-0.672-0.725-1.558-0.522-2.386l7.194-29.778c0.305-1.255,1.421-2.141,2.712-2.141h14.021c1.331,0,2.479,0.951,2.741,2.259
		l5.721,29.786c0.154,0.82-0.061,1.67-0.596,2.3C270.553,239.426,269.769,239.802,268.936,239.802 M245.543,234.223h20.009
		l-4.645-24.208h-9.521L245.543,234.223z"/>
	<path display="inline" fill="#1D89C2" d="M256.817,156.785c-20.806,0-37.734-16.935-37.734-37.735
		c0-20.8,16.929-37.729,37.734-37.729c20.83,0,37.777,16.929,37.777,37.729C294.594,139.85,277.647,156.785,256.817,156.785
		 M256.817,86.904c-17.73,0-32.15,14.42-32.15,32.146c0,17.72,14.419,32.157,32.15,32.157c17.75,0,32.193-14.438,32.193-32.157
		C289.011,101.324,274.567,86.904,256.817,86.904"/>
	<path display="inline" fill="#1D89C2" d="M283.338,113.829c-9.396,0-18.137-2.753-24.629-7.753c-1.221-0.946-1.445-2.7-0.5-3.914
		c0.938-1.218,2.688-1.439,3.912-0.505c7,5.405,18.006,7.76,28.113,6.005c1.528-0.244,2.961,0.755,3.229,2.272
		c0.262,1.516-0.754,2.967-2.271,3.229C288.619,113.603,285.973,113.829,283.338,113.829"/>
	<path display="inline" fill="#1D89C2" d="M238.414,113.157c-5.572,0-10.847-0.934-15.668-2.801
		c-1.439-0.559-2.152-2.165-1.601-3.609c0.56-1.438,2.17-2.159,3.609-1.587c4.186,1.605,8.776,2.426,13.659,2.426
		c15.668,0,28.404-8.753,28.404-19.51c0-1.54,1.249-2.794,2.788-2.794c1.541,0,2.795,1.254,2.795,2.794
		C272.402,101.907,257.156,113.157,238.414,113.157"/>
	<path display="inline" fill="#1D89C2" d="M389.858,420.799c-1.547,0-2.794-1.249-2.794-2.787v-13.054
		c0-10.192-8.296-18.469-18.499-18.469h-30.714c-10.203,0-18.502,8.276-18.502,18.469v13.054c0,1.538-1.25,2.787-2.789,2.787
		c-1.547,0-2.79-1.249-2.79-2.787v-13.054c0-13.261,10.798-24.047,24.081-24.047h30.714c13.277,0,24.082,10.786,24.082,24.047
		v13.054C392.647,419.55,391.398,420.799,389.858,420.799 M289.101,420.799c-1.547,0-2.789-1.249-2.789-2.787v-13.054
		c0-10.192-8.296-18.469-18.486-18.469H237.1c-10.197,0-18.493,8.276-18.493,18.469v13.054c0,1.538-1.249,2.787-2.789,2.787
		c-1.541,0-2.795-1.249-2.795-2.787v-13.054c0-13.261,10.805-24.047,24.076-24.047h30.726c13.266,0,24.063,10.786,24.063,24.047
		v13.054C291.889,419.55,290.646,420.799,289.101,420.799 M195.833,420.799c-1.54,0-2.789-1.249-2.789-2.787v-13.054
		c0-10.192-8.289-18.469-18.493-18.469h-30.725c-10.197,0-18.493,8.276-18.493,18.469v13.054c0,1.538-1.249,2.787-2.789,2.787
		c-1.534,0-2.789-1.249-2.789-2.787v-13.054c0-13.261,10.798-24.047,24.07-24.047h30.725c13.278,0,24.07,10.786,24.07,24.047v13.054
		C198.622,419.55,197.379,420.799,195.833,420.799 M352.67,377.143c-12.563,0-22.779-10.217-22.779-22.774
		c0-12.528,10.216-22.72,22.779-22.72c12.553,0,22.764,10.19,22.764,22.72C375.434,366.926,365.223,377.143,352.67,377.143
		 M335.532,355.807c0.731,8.813,8.136,15.758,17.138,15.758c9.474,0,17.18-7.713,17.18-17.196c0-0.653-0.035-1.296-0.107-1.927
		c-4.841,0.416-9.912-0.785-14.04-3.365C350.554,354.468,342.835,357.037,335.532,355.807 M335.979,350.229
		c1.059,0.203,2.146,0.311,3.252,0.311c5.459,0,10.484-2.51,13.789-6.898c0.459-0.6,1.149-0.998,1.897-1.088
		c0.743-0.076,1.505,0.137,2.093,0.606c3.087,2.521,7.208,3.848,11.145,3.788c-2.783-5.743-8.677-9.717-15.484-9.717
		C344.618,337.23,337.847,342.771,335.979,350.229 M251.918,377.143c-12.559,0-22.78-10.217-22.78-22.774
		c0-12.528,10.222-22.72,22.78-22.72c12.553,0,22.768,10.19,22.768,22.72C274.686,366.926,264.471,377.143,251.918,377.143
		 M234.781,355.807c0.732,8.813,8.136,15.758,17.138,15.758c9.479,0,17.19-7.713,17.19-17.196c0-0.653-0.037-1.296-0.106-1.927
		c-4.752,0.404-9.896-0.778-14.034-3.365C249.836,354.428,241.976,356.995,234.781,355.807 M235.227,350.223
		c1.064,0.209,2.17,0.315,3.294,0.315c5.388,0,10.525-2.574,13.742-6.886c0.451-0.606,1.136-1.006,1.891-1.102
		c0.756-0.076,1.517,0.125,2.104,0.602c3.104,2.533,7.207,3.89,11.156,3.793c-2.783-5.742-8.683-9.715-15.496-9.715
		C243.873,337.23,237.094,342.771,235.227,350.223 M158.645,377.143c-12.558,0-22.773-10.217-22.773-22.774
		c0-12.528,10.216-22.72,22.773-22.72c12.56,0,22.763,10.19,22.763,22.72C181.407,366.926,171.204,377.143,158.645,377.143
		 M141.514,355.807c0.731,8.813,8.135,15.758,17.131,15.758c9.484,0,17.196-7.713,17.196-17.196c0-0.653-0.042-1.296-0.107-1.927
		c-4.78,0.428-9.871-0.75-14.026-3.365c-4.27,4.501-10.126,7.033-16.453,7.033C143.976,356.109,142.739,356.009,141.514,355.807
		 M141.96,350.223c1.076,0.209,2.164,0.315,3.294,0.315c5.458,0,10.471-2.509,13.741-6.886c0.451-0.606,1.13-1,1.885-1.102
		c0.749-0.102,1.511,0.125,2.093,0.596c3.188,2.563,7.16,3.883,11.167,3.799c-2.783-5.742-8.682-9.715-15.496-9.715
		C150.6,337.23,143.827,342.761,141.96,350.223"/>
	<path display="inline" fill="#1D89C2" d="M353.901,326.301c-1.546,0-2.789-1.249-2.789-2.789v-38.363l-189.814-2.101v39.567
		c0,1.533-1.254,2.781-2.794,2.781c-1.534,0-2.783-1.248-2.783-2.781v-42.387c0-0.748,0.292-1.463,0.827-1.985
		c0.529-0.522,1.284-0.761,1.992-0.81l195.394,2.17c1.527,0.02,2.758,1.256,2.758,2.789v41.119
		C356.689,325.052,355.442,326.301,353.901,326.301"/>
	<path display="inline" fill="#1D89C2" d="M255.462,304.634c-1.54,0-2.789-1.249-2.789-2.782v-64.838
		c0-1.547,1.249-2.783,2.789-2.783c1.546,0,2.794,1.236,2.794,2.783v64.838C258.256,303.385,257.008,304.634,255.462,304.634"/>
</g>
<g display="none">
	<path display="inline" fill="#1D89C2" d="M336.107,431.02h-227.75c-1.549,0-2.799-1.235-2.799-2.784V107.489
		c0-1.546,1.25-2.796,2.799-2.796h227.75c1.549,0,2.8,1.25,2.8,2.796v320.745C338.906,429.783,337.656,431.02,336.107,431.02
		 M111.156,425.441H333.31V110.285H111.156V425.441z"/>
	<path display="inline" fill="#1D89C2" d="M381.653,426.264c-1.073,0-2.052-0.61-2.525-1.568l-25.465-52.463
		c-0.184-0.387-0.285-0.795-0.285-1.229V189.939c0-1.535,1.25-2.792,2.806-2.792h50.935c1.542,0,2.8,1.257,2.8,2.792v181.064
		c0,0.435-0.103,0.843-0.285,1.229l-25.464,52.463C383.698,425.652,382.72,426.264,381.653,426.264 M358.976,370.363l22.678,46.701
		l22.671-46.701V192.732h-45.349V370.363z"/>
	<path display="inline" fill="#1D89C2" d="M381.653,426.264c-1.073,0-2.052-0.618-2.52-1.568l-7.256-14.939
		c-0.368-0.773-0.375-1.672,0-2.432c0.365-0.775,1.06-1.333,1.895-1.522c4.852-1.106,10.884-1.106,15.735,0
		c0.836,0.189,1.533,0.747,1.901,1.522c0.366,0.76,0.366,1.656,0,2.418l-7.243,14.953
		C383.704,425.639,382.72,426.264,381.653,426.264 M378.562,410.705l3.085,6.359l3.085-6.359
		C382.74,410.516,380.546,410.516,378.562,410.705"/>
	<path display="inline" fill="#1D89C2" d="M407.716,373.87c-0.489,0-0.974-0.123-1.421-0.382l-8.201-4.863l-5.211,4.497
		c-0.978,0.851-2.418,0.896-3.457,0.149l-8.193-5.903l-5.652,5.659c-0.529,0.517-1.242,0.814-1.983,0.814
		c-0.739,0-1.453-0.299-1.983-0.828l-5.604-5.64l-8.192,5.896c-1.271,0.91-3.01,0.625-3.906-0.639
		c-0.896-1.243-0.611-2.988,0.639-3.893l10.13-7.291c1.114-0.809,2.656-0.692,3.621,0.3l5.313,5.327l5.341-5.342
		c0.979-0.979,2.499-1.094,3.614-0.285l8.336,5.992l5.054-4.36c0.919-0.788,2.229-0.896,3.256-0.286l9.933,5.885
		c1.324,0.788,1.767,2.499,0.985,3.825C409.597,373.395,408.673,373.87,407.716,373.87"/>
	<path display="inline" fill="#1D89C2" d="M367.59,367.266c-1.542,0-2.8-1.248-2.8-2.785V189.946c0-1.549,1.258-2.799,2.8-2.799
		c1.549,0,2.8,1.25,2.8,2.799V364.48C370.39,366.018,369.139,367.266,367.59,367.266"/>
	<path display="inline" fill="#1D89C2" d="M380.729,368.107c-1.542,0-2.799-1.235-2.806-2.784l-0.795-175.364
		c0-1.549,1.243-2.799,2.785-2.813h0.015c1.535,0,2.784,1.25,2.791,2.792l0.802,175.371c0.007,1.521-1.229,2.799-2.785,2.799
		H380.729L380.729,368.107z"/>
	<path display="inline" fill="#1D89C2" d="M394.025,370.159c-1.549,0-2.8-1.249-2.8-2.798V189.946c0-1.549,1.251-2.799,2.8-2.799
		c1.542,0,2.799,1.25,2.799,2.799v177.416C396.823,368.91,395.567,370.159,394.025,370.159"/>
	<path display="inline" fill="#1D89C2" d="M407.116,192.738h-50.935c-1.556,0-2.806-1.243-2.806-2.799v-13.2
		c0-8.839,7.188-16.021,16.014-16.021h24.505c8.839,0,16.021,7.181,16.021,16.021v13.2
		C409.915,191.495,408.658,192.738,407.116,192.738 M358.976,187.147h45.349v-10.408c0-5.748-4.674-10.437-10.429-10.437h-24.505
		c-5.741,0-10.415,4.688-10.415,10.437V187.147z"/>
	<path display="inline" fill="#1D89C2" d="M297.838,195.137H146.654c-1.556,0-2.806-1.243-2.806-2.786v-36.49
		c0-1.542,1.25-2.792,2.806-2.792h151.185c1.549,0,2.8,1.25,2.8,2.792v36.49C300.638,193.894,299.387,195.137,297.838,195.137
		 M149.446,189.552h145.594v-30.898H149.446V189.552z"/>
	<path display="inline" fill="#1D89C2" d="M295.025,219.16H149.453c-1.542,0-2.8-1.25-2.8-2.785c0-1.549,1.258-2.786,2.8-2.786
		h145.571c1.557,0,2.799,1.236,2.799,2.786C297.823,217.91,296.581,219.16,295.025,219.16"/>
	<path display="inline" fill="#1D89C2" d="M295.025,242.042H149.453c-1.542,0-2.8-1.25-2.8-2.792s1.258-2.792,2.8-2.792h145.571
		c1.557,0,2.799,1.25,2.799,2.792S296.581,242.042,295.025,242.042"/>
	<path display="inline" fill="#1D89C2" d="M295.025,264.896H194.822c-1.542,0-2.799-1.25-2.799-2.787
		c0-1.534,1.257-2.799,2.799-2.799h100.203c1.557,0,2.799,1.265,2.799,2.799C297.823,263.646,296.581,264.896,295.025,264.896"/>
	<path display="inline" fill="#1D89C2" d="M258.583,287.736h-109.13c-1.542,0-2.8-1.25-2.8-2.791c0-1.543,1.258-2.793,2.8-2.793
		h109.13c1.549,0,2.798,1.25,2.798,2.793C261.381,286.486,260.132,287.736,258.583,287.736"/>
	<path display="inline" fill="#1D89C2" d="M295.025,310.604H149.453c-1.542,0-2.8-1.264-2.8-2.797c0-1.537,1.258-2.801,2.8-2.801
		h145.571c1.557,0,2.799,1.264,2.799,2.801C297.823,309.341,296.581,310.604,295.025,310.604"/>
	<path display="inline" fill="#1D89C2" d="M295.025,333.473H180.012c-1.549,0-2.799-1.248-2.799-2.791
		c0-1.556,1.25-2.807,2.799-2.807h115.014c1.557,0,2.799,1.251,2.799,2.807C297.823,332.225,296.581,333.473,295.025,333.473"/>
	<path display="inline" fill="#1D89C2" d="M295.025,356.301H149.453c-1.542,0-2.8-1.264-2.8-2.8c0-1.549,1.258-2.798,2.8-2.798
		h145.571c1.557,0,2.799,1.249,2.799,2.798C297.823,355.037,296.581,356.301,295.025,356.301"/>
	<path display="inline" fill="#1D89C2" d="M312.444,124.3c-1.549,0-2.792-1.256-2.792-2.795V93.46c0-1.536,1.243-2.79,2.792-2.79
		s2.808,1.254,2.808,2.79v28.045C315.251,123.044,313.992,124.3,312.444,124.3 M282.362,124.3c-1.542,0-2.794-1.256-2.794-2.795
		V93.46c0-1.536,1.252-2.79,2.794-2.79c1.549,0,2.799,1.254,2.799,2.79v28.045C285.16,123.044,283.91,124.3,282.362,124.3
		 M252.292,124.3c-1.549,0-2.799-1.256-2.799-2.795V93.46c0-1.536,1.25-2.79,2.799-2.79s2.799,1.254,2.799,2.79v28.045
		C255.091,123.044,253.841,124.3,252.292,124.3 M222.215,124.3c-1.542,0-2.799-1.256-2.799-2.795V93.46
		c0-1.536,1.257-2.79,2.799-2.79c1.549,0,2.799,1.254,2.799,2.79v28.045C225.015,123.044,223.765,124.3,222.215,124.3
		 M192.139,124.3c-1.542,0-2.792-1.256-2.792-2.795V93.46c0-1.536,1.25-2.79,2.792-2.79c1.549,0,2.806,1.254,2.806,2.79v28.045
		C194.945,123.044,193.688,124.3,192.139,124.3 M162.063,124.3c-1.536,0-2.792-1.256-2.792-2.795V93.46
		c0-1.536,1.256-2.79,2.792-2.79c1.557,0,2.799,1.254,2.799,2.79v28.045C164.862,123.044,163.618,124.3,162.063,124.3
		 M131.986,124.3c-1.549,0-2.799-1.256-2.799-2.795V93.46c0-1.536,1.25-2.79,2.799-2.79c1.542,0,2.8,1.254,2.8,2.79v28.045
		C134.785,123.044,133.528,124.3,131.986,124.3"/>
</g>
<g display="none">
	<path display="inline" fill="#1D89C2" d="M145.557,125.012c-17.004,0-30.838-13.817-30.838-30.795
		c0-17.004,13.833-30.833,30.838-30.833c17.009,0,30.843,13.829,30.843,30.833C176.4,111.195,162.567,125.012,145.557,125.012
		 M145.557,69.754c-13.492,0-24.467,10.971-24.467,24.463c0,13.468,10.976,24.422,24.467,24.422
		c13.497,0,24.473-10.955,24.473-24.422C170.03,80.726,159.054,69.754,145.557,69.754"/>
	<path display="inline" fill="#1D89C2" d="M187.826,220.085c-6.837,0-12.401-5.548-12.401-12.36v-11.127
		c0-1.758,1.425-3.183,3.185-3.183c1.763,0,3.188,1.425,3.188,3.183v11.127c0,3.247,2.757,5.99,6.028,5.99
		c3.58,0,5.749-3.14,6.038-6.25l-0.015-43.244c0-14.475-11.789-26.259-26.285-26.259h-42.508c-14.496,0-26.29,11.784-26.29,26.259
		v43.538c0,3.288,2.705,5.957,6.028,5.957c3.271,0,6.028-2.743,6.028-5.99v-11.127c0-1.758,1.425-3.183,3.188-3.183
		c1.76,0,3.186,1.425,3.186,3.183v11.127c0,6.813-5.565,12.36-12.401,12.36c-6.837,0-12.394-5.529-12.394-12.327V164.22
		c0-17.987,14.646-32.625,32.655-32.625h42.508c18.009,0,32.655,14.637,32.655,32.625v43.538
		C199.555,215.025,194.344,220.085,187.826,220.085"/>
	<path display="inline" fill="#1D89C2" d="M178.61,237.441h-64.596c-1.762,0-3.188-1.425-3.188-3.183v-49.459
		c0-1.757,1.425-3.183,3.188-3.183c1.758,0,3.183,1.425,3.183,3.183v46.271h58.23v-46.271c0-1.757,1.425-3.183,3.183-3.183
		c1.758,0,3.183,1.425,3.183,3.183v49.459C181.793,236.016,180.367,237.441,178.61,237.441"/>
	<path display="inline" fill="#1D89C2" d="M146.303,193.106c-1.757,0-3.183-1.425-3.183-3.183v-37.936h-7.303
		c-1.757,0-3.183-1.425-3.183-3.183c0-1.758,1.425-3.183,3.183-3.183h20.986c1.758,0,3.183,1.425,3.183,3.183
		c0,1.757-1.425,3.183-3.183,3.183h-7.317v37.936C149.487,191.681,148.061,193.106,146.303,193.106"/>
	<path display="inline" fill="#1D89C2" d="M326.112,338.384c-17.002,0-30.828-13.812-30.828-30.79
		c0-17.007,13.826-30.838,30.828-30.838c17.007,0,30.838,13.831,30.838,30.838C356.949,324.572,343.118,338.384,326.112,338.384
		 M326.112,283.126c-13.487,0-24.458,10.972-24.458,24.468c0,13.468,10.971,24.42,24.458,24.42c13.496,0,24.468-10.952,24.468-24.42
		C350.579,294.098,339.608,283.126,326.112,283.126"/>
	<path display="inline" fill="#1D89C2" d="M307.517,309.268c-3.4,0-6.743-0.555-9.929-1.645c-1.664-0.564-2.554-2.373-1.989-4.037
		c0.574-1.664,2.382-2.554,4.046-1.984c2.516,0.855,5.175,1.296,7.872,1.296c7.824,0,14.96-3.567,19.58-9.795
		c0.517-0.693,1.291-1.147,2.152-1.263c0.846-0.114,1.722,0.135,2.396,0.67c5.744,4.605,13.453,6.37,20.57,4.897
		c1.727-0.33,3.405,0.746,3.764,2.468c0.349,1.727-0.751,3.405-2.473,3.769c-7.93,1.646-16.467,0.096-23.301-4.323
		C324.438,305.595,316.173,309.268,307.517,309.268"/>
	<path display="inline" fill="#1D89C2" d="M368.342,433.452c-6.82,0-12.363-5.567-12.363-12.396V409.97
		c0-1.76,1.425-3.186,3.181-3.186c1.76,0,3.185,1.426,3.185,3.186v11.086c0,3.319,2.688,6.026,5.998,6.026
		c3.744,0,5.768-3.243,6.05-6.256l-0.015-43.229c0-14.478-11.774-26.262-26.256-26.262H305.58
		c-14.478,0-26.262,11.784-26.262,26.262v43.53c0,3.286,2.688,5.955,5.988,5.955c3.333,0,6.03-2.707,6.03-6.026V409.97
		c0-1.76,1.426-3.186,3.19-3.186c1.76,0,3.185,1.426,3.185,3.186v11.086c0,6.829-5.566,12.396-12.405,12.396
		c-6.815,0-12.358-5.528-12.358-12.325v-43.53c0-17.987,14.645-32.627,32.632-32.627h42.541c17.991,0,32.626,14.64,32.626,32.627
		v43.53C380.064,428.393,374.846,433.452,368.342,433.452"/>
	<path display="inline" fill="#1D89C2" d="M359.159,450.813h-64.632c-1.765,0-3.19-1.425-3.19-3.18v-49.467
		c0-1.76,1.426-3.185,3.19-3.185c1.76,0,3.185,1.425,3.185,3.185v46.276h58.267v-46.276c0-1.76,1.425-3.185,3.181-3.185
		c1.76,0,3.185,1.425,3.185,3.185v49.467C362.344,449.388,360.919,450.813,359.159,450.813"/>
	<path display="inline" fill="#1D89C2" d="M326.829,406.479c-1.756,0-3.181-1.426-3.181-3.181v-37.936h-7.265
		c-1.76,0-3.186-1.425-3.186-3.18c0-1.761,1.426-3.186,3.186-3.186h20.933c1.756,0,3.181,1.425,3.181,3.186
		c0,1.755-1.425,3.18-3.181,3.18h-7.303v37.936C330.014,405.053,328.589,406.479,326.829,406.479"/>
	<path display="inline" fill="#1D89C2" d="M261.676,266.885c-0.531,0-1.066-0.139-1.555-0.406c-1.157-0.646-1.788-1.938-1.597-3.238
		l6.433-43.916h-28.385c-1.762,0-3.188-1.425-3.188-3.188V99.703c0-1.757,1.425-3.183,3.188-3.183h180.561
		c1.761,0,3.186,1.425,3.186,3.183v116.434c0,1.763-1.425,3.188-3.186,3.188h-97.688l-55.722,46.81
		C263.13,266.627,262.407,266.885,261.676,266.885 M239.755,212.954h28.88c0.928,0,1.808,0.402,2.415,1.107
		c0.603,0.695,0.87,1.626,0.741,2.537l-5.759,39.276L316.24,213.7c0.574-0.476,1.301-0.746,2.047-0.746h95.656V102.886H239.755
		V212.954z"/>
	<path display="inline" fill="#1D89C2" d="M348.475,122.473h-79.563c-1.761,0-3.186-1.425-3.186-3.183
		c0-1.763,1.425-3.188,3.186-3.188h79.563c1.76,0,3.186,1.425,3.186,3.188C351.66,121.047,350.235,122.473,348.475,122.473"/>
	<path display="inline" fill="#1D89C2" d="M384.823,122.473h-20.02c-1.761,0-3.181-1.425-3.181-3.183
		c0-1.763,1.42-3.188,3.181-3.188h20.02c1.76,0,3.186,1.425,3.186,3.188C388.008,121.047,386.582,122.473,384.823,122.473"/>
	<path display="inline" fill="#1D89C2" d="M127.355,95.896c-3.403,0-6.744-0.552-9.922-1.646c-1.667-0.574-2.551-2.379-1.984-4.046
		c0.579-1.665,2.381-2.54,4.051-1.978c2.513,0.863,5.158,1.298,7.855,1.298c7.781,0,14.921-3.57,19.584-9.804
		c0.514-0.686,1.293-1.138,2.145-1.25c0.892-0.112,1.714,0.134,2.389,0.672c4.438,3.539,9.756,5.411,15.369,5.411
		c1.813,0,3.532-0.177,5.122-0.519c1.686-0.388,3.419,0.715,3.785,2.434c0.373,1.717-0.72,3.408-2.432,3.786
		c-2.033,0.44-4.214,0.665-6.476,0.665c-5.931,0-11.794-1.748-16.799-4.976C144.221,92.307,136.112,95.896,127.355,95.896"/>
	<path display="inline" fill="#1D89C2" d="M243.72,409.539H142.262c-1.76,0-3.186-1.425-3.186-3.185V247.372
		c0-1.763,1.425-3.188,3.186-3.188c1.762,0,3.188,1.425,3.188,3.188v155.797h98.27c1.757,0,3.183,1.425,3.183,3.186
		C246.903,408.114,245.477,409.539,243.72,409.539"/>
	<path display="inline" fill="#1D89C2" d="M384.823,140.708h-79.602c-1.76,0-3.185-1.425-3.185-3.183
		c0-1.763,1.425-3.188,3.185-3.188h79.602c1.76,0,3.186,1.425,3.186,3.188C388.008,139.283,386.582,140.708,384.823,140.708"/>
	<path display="inline" fill="#1D89C2" d="M288.932,140.708h-20.02c-1.761,0-3.186-1.425-3.186-3.183
		c0-1.763,1.425-3.188,3.186-3.188h20.02c1.755,0,3.181,1.425,3.181,3.188C292.113,139.283,290.687,140.708,288.932,140.708"/>
	<path display="inline" fill="#1D89C2" d="M348.475,158.978h-79.563c-1.761,0-3.186-1.425-3.186-3.183
		c0-1.762,1.425-3.188,3.186-3.188h79.563c1.76,0,3.186,1.425,3.186,3.188C351.66,157.553,350.235,158.978,348.475,158.978"/>
	<path display="inline" fill="#1D89C2" d="M384.823,158.978h-20.02c-1.761,0-3.181-1.425-3.181-3.183
		c0-1.762,1.42-3.188,3.181-3.188h20.02c1.76,0,3.186,1.425,3.186,3.188C388.008,157.553,386.582,158.978,384.823,158.978"/>
	<path display="inline" fill="#1D89C2" d="M384.823,177.214h-79.602c-1.76,0-3.185-1.425-3.185-3.183
		c0-1.763,1.425-3.188,3.185-3.188h79.602c1.76,0,3.186,1.425,3.186,3.188C388.008,175.789,386.582,177.214,384.823,177.214"/>
	<path display="inline" fill="#1D89C2" d="M288.932,177.214h-20.02c-1.761,0-3.186-1.425-3.186-3.183
		c0-1.763,1.425-3.188,3.186-3.188h20.02c1.755,0,3.181,1.425,3.181,3.188C292.113,175.789,290.687,177.214,288.932,177.214"/>
	<path display="inline" fill="#1D89C2" d="M348.475,195.45h-79.563c-1.761,0-3.186-1.425-3.186-3.183
		c0-1.762,1.425-3.188,3.186-3.188h79.563c1.76,0,3.186,1.425,3.186,3.188C351.66,194.024,350.235,195.45,348.475,195.45"/>
	<path display="inline" fill="#1D89C2" d="M384.823,195.45h-20.02c-1.761,0-3.181-1.425-3.181-3.183c0-1.762,1.42-3.188,3.181-3.188
		h20.02c1.76,0,3.186,1.425,3.186,3.188C388.008,194.024,386.582,195.45,384.823,195.45"/>
</g>
<g>
	<pattern  id="SVGID_3_" xlink:href="#Unnamed_Pattern_31" patternTransform="matrix(1 0 0 -1 0 -719.751)">
	</pattern>
	<path fill="none" stroke="url(#SVGID_3_)" stroke-width="3" stroke-miterlimit="10" d="M271.21,333.919
		c1.091-3.195,2.771-7.23,10.603-7.438c10.69-0.182,44.24,8.564,55.314,13.023c5.282,2.122,8.746,4.542,9.872,7.62
		c2.251,5.889-14.067,44.404-16.747,54.492c-1.126,4.364-1.779,6.667-5.75,4.719c-15.244-7.533-30.172-29.433-46.971-39.521
		c-5.278-3.16-10.604-5.325-12.027-9.352c-0.213-0.563-0.308-1.251-0.308-2.026C265.197,349.809,269.608,338.643,271.21,333.919z
		 M315.661,355.394c-1.991,2.502-1.554,6.187,0.962,8.179c2.502,2.034,6.187,1.598,8.169-0.909c2.04-2.516,1.646-6.239-0.904-8.23
		C321.333,352.449,317.697,352.883,315.661,355.394z"/>
	<pattern  id="SVGID_4_" xlink:href="#Unnamed_Pattern_31" patternTransform="matrix(1 0 0 -1 0 -719.751)">
	</pattern>
	<path fill="none" stroke="url(#SVGID_4_)" stroke-width="3" stroke-miterlimit="10" d="M195.897,355.394
		c-1.989-2.511-5.661-2.944-8.178-0.961c-2.514,1.996-2.94,5.715-0.948,8.226c2.039,2.512,5.674,2.944,8.22,0.909
		C197.543,361.585,197.893,357.9,195.897,355.394z M181.357,401.616c-2.635-10.084-19.002-48.604-16.794-54.492
		c1.214-3.074,4.637-5.498,9.917-7.62c11.075-4.459,44.625-13.201,55.316-13.023c7.83,0.212,9.475,4.243,10.601,7.438
		c1.556,4.719,5.968,15.933,5.968,21.553c0,0.788-0.076,1.48-0.262,1.991c-1.383,4.026-6.789,6.191-12.027,9.352
		c-16.831,10.088-31.727,31.987-47,39.517C183.134,408.283,182.528,405.98,181.357,401.616z"/>
	<pattern  id="SVGID_5_" xlink:href="#Unnamed_Pattern_31" patternTransform="matrix(1 0 0 -1 0 -719.751)">
	</pattern>
	<path fill="none" stroke="url(#SVGID_5_)" stroke-width="3" stroke-miterlimit="10" d="M300.551,276.059
		c7.278-10.867,33.806-34.074,55.15-42.382c9.01-3.507,17.093-4.371,22.38-0.513c2.025,1.468,3.329,3.072,4.021,4.801h0.039
		c1.603-15.491,12.119-41.763,21.773-54.496c4.624-6.185,13.287-13.976,20.816-7.44c12.075,10.428-9.3,88.037-23.111,104.005
		c-23.539,27.406-45.356,15.885-64.493,59.476c-11.074-4.46-44.62-13.21-55.318-13.028
		C285.536,312.626,292.55,288.043,300.551,276.059z"/>
	<pattern  id="SVGID_6_" xlink:href="#Unnamed_Pattern_31" patternTransform="matrix(1 0 0 -1 0 -719.751)">
	</pattern>
	<path fill="none" stroke="url(#SVGID_6_)" stroke-width="3" stroke-miterlimit="10" d="M174.479,339.504
		c-19.169-43.581-40.943-32.064-64.539-59.471c-13.766-15.972-35.096-93.575-23.062-104.007c7.527-6.533,16.186,1.255,20.814,7.445
		c9.657,12.731,20.128,38.951,21.812,54.446c0.652-1.684,1.946-3.284,3.985-4.752c7.703-5.587,21.299-1.219,35.1,6.782
		c18.089,10.53,36.533,27.322,42.417,36.107c8.046,11.988,15.015,36.571,18.788,50.426
		C219.102,326.299,185.558,335.045,174.479,339.504z"/>
	<pattern  id="SVGID_7_" xlink:href="#Unnamed_Pattern_31" patternTransform="matrix(1 0 0 -1 0 -719.751)">
	</pattern>
	<path fill="none" stroke="url(#SVGID_7_)" stroke-width="3" stroke-miterlimit="10" d="M343.578,179.702v25.626H317.96
		C317.96,191.221,329.473,179.702,343.578,179.702z"/>
	<pattern  id="SVGID_8_" xlink:href="#Unnamed_Pattern_31" patternTransform="matrix(1 0 0 -1 0 -719.751)">
	</pattern>
	<path fill="none" stroke="url(#SVGID_8_)" stroke-width="3" stroke-miterlimit="10" d="M343.578,106.563v25.618
		c-14.105,0-25.618-11.471-25.618-25.618H343.578z"/>
	<pattern  id="SVGID_9_" xlink:href="#Unnamed_Pattern_31" patternTransform="matrix(1 0 0 -1 0 -719.751)">
	</pattern>
	<path fill="none" stroke="url(#SVGID_9_)" stroke-width="3" stroke-miterlimit="10" d="M257.496,166.597v-8.575
		c1.344,0.387,2.288,0.909,2.851,1.645c0.563,0.69,0.866,1.557,0.866,2.509c0,1.126-0.347,2.031-1.039,2.816
		C259.482,165.813,258.622,166.33,257.496,166.597z"/>
	<pattern  id="SVGID_10_" xlink:href="#Unnamed_Pattern_31" patternTransform="matrix(1 0 0 -1 0 -719.751)">
	</pattern>
	<path fill="none" stroke="url(#SVGID_10_)" stroke-width="3" stroke-miterlimit="10" d="M254.336,143.312v7.568
		c-0.957-0.39-1.646-0.905-2.085-1.596c-0.47-0.656-0.686-1.392-0.686-2.124c0-0.866,0.262-1.645,0.732-2.342
		C252.816,144.128,253.472,143.604,254.336,143.312z"/>
	<pattern  id="SVGID_11_" xlink:href="#Unnamed_Pattern_31" patternTransform="matrix(1 0 0 -1 0 -719.751)">
	</pattern>
	<path fill="none" stroke="url(#SVGID_11_)" stroke-width="3" stroke-miterlimit="10" d="M257.496,158.024v8.573
		c1.126-0.264,1.98-0.784,2.682-1.604c0.688-0.786,1.035-1.688,1.035-2.816c0-0.952-0.303-1.816-0.866-2.513
		C259.784,158.927,258.838,158.409,257.496,158.024z M252.294,144.819c-0.47,0.697-0.731,1.477-0.731,2.342
		c0,0.731,0.218,1.468,0.688,2.124c0.439,0.69,1.126,1.206,2.083,1.596v-7.568C253.469,143.606,252.814,144.128,252.294,144.819z
		 M250.867,161.401c0.262,1.167,0.695,2.161,1.338,2.983c0.652,0.866,1.349,1.472,2.128,1.861v-9.135
		c-2.814-0.812-4.929-2.03-6.236-3.719c-1.295-1.645-2.026-3.637-2.026-6.018c0-2.381,0.779-4.366,2.288-5.97
		c1.515-1.646,3.511-2.593,5.975-2.816v-2.167h3.163v2.167c2.331,0.262,4.188,1.083,5.587,2.386
		c1.382,1.253,2.208,3.024,2.589,5.236l-5.541,0.69c-0.347-1.729-1.217-2.855-2.635-3.465v8.533c3.544,0.905,5.925,2.12,7.181,3.635
		c1.251,1.509,1.904,3.459,1.904,5.799c0,2.594-0.779,4.845-2.372,6.664c-1.654,1.779-3.818,2.896-6.713,3.379v4.07h-3.163v-4.031
		c-2.509-0.344-4.548-1.253-6.144-2.81c-1.565-1.561-2.559-3.773-2.983-6.624L250.867,161.401z"/>
	<pattern  id="SVGID_12_" xlink:href="#Unnamed_Pattern_31" patternTransform="matrix(1 0 0 -1 0 -719.751)">
	</pattern>
	<path fill="none" stroke="url(#SVGID_12_)" stroke-width="3" stroke-miterlimit="10" d="M252.205,164.386
		c-0.643-0.825-1.076-1.818-1.338-2.985l-5.663,0.645c0.431,2.854,1.42,5.066,2.985,6.622c1.596,1.561,3.635,2.47,6.144,2.816v4.024
		h3.161v-4.07c2.9-0.478,5.061-1.595,6.715-3.375c1.593-1.816,2.372-4.07,2.372-6.664c0-2.34-0.649-4.291-1.904-5.797
		c-1.256-1.521-3.637-2.732-7.183-3.637v-8.533c1.424,0.61,2.29,1.738,2.637,3.463l5.541-0.688
		c-0.381-2.212-1.203-3.981-2.589-5.241c-1.394-1.299-3.251-2.12-5.589-2.379v-2.169h-3.161v2.169
		c-2.463,0.221-4.455,1.169-5.975,2.814c-1.509,1.6-2.288,3.591-2.288,5.97c0,2.381,0.731,4.373,2.026,6.018
		c1.307,1.689,3.427,2.903,6.236,3.719v9.138C253.558,165.858,252.857,165.25,252.205,164.386z M255.89,126.644
		c16.182,0,29.344,13.114,29.344,29.3c0,16.236-13.162,29.346-29.344,29.346c-16.186,0-29.3-13.11-29.3-29.346
		C226.59,139.757,239.704,126.644,255.89,126.644z"/>
	<pattern  id="SVGID_13_" xlink:href="#Unnamed_Pattern_31" patternTransform="matrix(1 0 0 -1 0 -719.751)">
	</pattern>
	<path fill="none" stroke="url(#SVGID_13_)" stroke-width="3" stroke-miterlimit="10" d="M168.197,106.563h25.635
		c0,14.146-11.476,25.618-25.635,25.618V106.563z"/>
	<pattern  id="SVGID_14_" xlink:href="#Unnamed_Pattern_31" patternTransform="matrix(1 0 0 -1 0 -719.751)">
	</pattern>
	<path fill="none" stroke="url(#SVGID_14_)" stroke-width="3" stroke-miterlimit="10" d="M255.89,185.29
		c16.182,0,29.344-13.114,29.344-29.344c0-16.188-13.162-29.302-29.344-29.302c-16.19,0-29.305,13.114-29.305,29.302
		C226.585,172.175,239.699,185.29,255.89,185.29z M168.197,132.181c14.16,0,25.635-11.469,25.635-25.616h124.124
		c0,14.147,11.517,25.616,25.622,25.616v47.523c-14.105,0-25.622,11.512-25.622,25.625H193.832
		c0-14.112-11.476-25.625-25.635-25.625V132.181z"/>
	<pattern  id="SVGID_15_" xlink:href="#Unnamed_Pattern_31" patternTransform="matrix(1 0 0 -1 0 -719.751)">
	</pattern>
	<path fill="none" stroke="url(#SVGID_15_)" stroke-width="3" stroke-miterlimit="10" d="M168.197,179.702
		c14.16,0,25.635,11.519,25.635,25.626h-25.241h-0.394V179.702z"/>
	<pattern  id="SVGID_16_" xlink:href="#Unnamed_Pattern_31" patternTransform="matrix(1 0 0 -1 0 -719.751)">
	</pattern>
	<path fill="none" stroke="url(#SVGID_16_)" stroke-width="3" stroke-miterlimit="10" d="M281.813,326.48
		c3.724-13.854,10.737-38.438,18.743-50.422c7.27-10.867,33.805-34.074,55.146-42.38c9.006-3.507,17.089-4.373,22.384-0.515
		c2.026,1.468,3.325,3.072,4.018,4.801c5.75,14.11-31.116,34.154-38.438,38.44"/>
	<pattern  id="SVGID_17_" xlink:href="#Unnamed_Pattern_31" patternTransform="matrix(1 0 0 -1 0 -719.751)">
	</pattern>
	<path fill="none" stroke="url(#SVGID_17_)" stroke-width="3" stroke-miterlimit="10" d="M337.127,339.504
		c19.137-43.581,40.954-32.064,64.493-59.471c13.812-15.972,35.187-93.575,23.111-104.007c-7.529-6.533-16.192,1.255-20.816,7.445
		c-9.654,12.731-20.171,39.005-21.773,54.496"/>
	<pattern  id="SVGID_18_" xlink:href="#Unnamed_Pattern_31" patternTransform="matrix(1 0 0 -1 0 -719.751)">
	</pattern>
	<path fill="none" stroke="url(#SVGID_18_)" stroke-width="3" stroke-miterlimit="10" d="M337.127,339.504
		c5.278,2.122,8.75,4.542,9.876,7.62c2.247,5.889-14.071,44.404-16.751,54.492c-1.13,4.364-1.783,6.667-5.754,4.719
		c-15.244-7.533-30.164-29.433-46.963-39.521c-5.282-3.16-10.607-5.325-12.031-9.352c-0.213-0.563-0.308-1.251-0.308-2.026
		c0-5.628,4.416-16.794,6.009-21.518c1.092-3.195,2.771-7.23,10.604-7.438C292.507,326.299,326.053,335.045,337.127,339.504z"/>
	<pattern  id="SVGID_19_" xlink:href="#Unnamed_Pattern_31" patternTransform="matrix(1 0 0 -1 0 -719.751)">
	</pattern>
	<path fill="none" stroke="url(#SVGID_19_)" stroke-width="3" stroke-miterlimit="10" d="M315.661,355.394
		c2.035-2.511,5.672-2.944,8.227-0.961c2.55,1.991,2.944,5.715,0.904,8.23c-1.982,2.507-5.667,2.943-8.169,0.909
		C314.108,361.58,313.67,357.896,315.661,355.394z"/>
	<pattern  id="SVGID_20_" xlink:href="#Unnamed_Pattern_31" patternTransform="matrix(1 0 0 -1 0 -719.751)">
	</pattern>
	<path fill="none" stroke="url(#SVGID_20_)" stroke-width="3" stroke-miterlimit="10" d="M129.508,237.965
		c-5.674,14.151,31.078,34.154,38.386,38.44"/>
	<pattern  id="SVGID_21_" xlink:href="#Unnamed_Pattern_31" patternTransform="matrix(1 0 0 -1 0 -719.751)">
	</pattern>
	<path fill="none" stroke="url(#SVGID_21_)" stroke-width="3" stroke-miterlimit="10" d="M229.796,326.48
		c-3.773-13.854-10.742-38.438-18.788-50.422c-5.884-8.789-24.328-25.583-42.417-36.113c-13.801-7.997-27.397-12.37-35.1-6.782
		c-2.039,1.468-3.333,3.072-3.985,4.751"/>
	<pattern  id="SVGID_22_" xlink:href="#Unnamed_Pattern_31" patternTransform="matrix(1 0 0 -1 0 -719.751)">
	</pattern>
	<path fill="none" stroke="url(#SVGID_22_)" stroke-width="3" stroke-miterlimit="10" d="M174.479,339.504
		c-19.169-43.581-40.943-32.064-64.539-59.471c-13.766-15.972-35.096-93.575-23.062-104.007c7.527-6.533,16.186,1.255,20.814,7.445
		c9.657,12.731,20.128,38.951,21.812,54.446v0.05"/>
	<pattern  id="SVGID_23_" xlink:href="#Unnamed_Pattern_31" patternTransform="matrix(1 0 0 -1 0 -719.751)">
	</pattern>
	<path fill="none" stroke="url(#SVGID_23_)" stroke-width="3" stroke-miterlimit="10" d="M174.479,339.504
		c-5.28,2.122-8.703,4.542-9.917,7.62c-2.208,5.889,14.16,44.404,16.794,54.492c1.169,4.364,1.781,6.667,5.717,4.719
		c15.279-7.533,30.17-29.433,47-39.521c5.245-3.16,10.646-5.325,12.034-9.352c0.182-0.511,0.255-1.203,0.255-1.987
		c0-5.624-4.41-16.833-5.961-21.557c-1.126-3.195-2.771-7.23-10.605-7.438C219.102,326.299,185.558,335.045,174.479,339.504z"/>
	<pattern  id="SVGID_24_" xlink:href="#Unnamed_Pattern_31" patternTransform="matrix(1 0 0 -1 0 -719.751)">
	</pattern>
	<path fill="none" stroke="url(#SVGID_24_)" stroke-width="3" stroke-miterlimit="10" d="M195.9,355.394
		c-1.992-2.511-5.661-2.944-8.185-0.961c-2.509,1.991-2.934,5.715-0.944,8.23c2.035,2.507,5.676,2.943,8.215,0.909
		C197.545,361.58,197.895,357.896,195.9,355.394z"/>
	<pattern  id="SVGID_25_" xlink:href="#Unnamed_Pattern_31" patternTransform="matrix(1 0 0 -1 0 -719.751)">
	</pattern>
	
		<line fill="none" stroke="url(#SVGID_25_)" stroke-width="3" stroke-miterlimit="10" x1="168.197" y1="179.702" x2="168.197" y2="132.181"/>
	<pattern  id="SVGID_26_" xlink:href="#Unnamed_Pattern_31" patternTransform="matrix(1 0 0 -1 0 -719.751)">
	</pattern>
	
		<line fill="none" stroke="url(#SVGID_26_)" stroke-width="3" stroke-miterlimit="10" x1="317.956" y1="205.329" x2="193.83" y2="205.329"/>
	<pattern  id="SVGID_27_" xlink:href="#Unnamed_Pattern_31" patternTransform="matrix(1 0 0 -1 0 -719.751)">
	</pattern>
	
		<line fill="none" stroke="url(#SVGID_27_)" stroke-width="3" stroke-miterlimit="10" x1="343.578" y1="132.181" x2="343.578" y2="179.704"/>
	<pattern  id="SVGID_28_" xlink:href="#Unnamed_Pattern_31" patternTransform="matrix(1 0 0 -1 0 -719.751)">
	</pattern>
	<path fill="none" stroke="url(#SVGID_28_)" stroke-width="3" stroke-miterlimit="10" d="M317.956,106.563h25.622v25.618
		C329.478,132.181,317.956,120.709,317.956,106.563z"/>
	<pattern  id="SVGID_29_" xlink:href="#Unnamed_Pattern_31" patternTransform="matrix(1 0 0 -1 0 -719.751)">
	</pattern>
	<path fill="none" stroke="url(#SVGID_29_)" stroke-width="3" stroke-miterlimit="10" d="M193.83,106.563h-25.635v25.618
		C182.361,132.181,193.83,120.709,193.83,106.563z"/>
	<pattern  id="SVGID_30_" xlink:href="#Unnamed_Pattern_31" patternTransform="matrix(1 0 0 -1 0 -719.751)">
	</pattern>
	<path fill="none" stroke="url(#SVGID_30_)" stroke-width="3" stroke-miterlimit="10" d="M193.83,205.329h-25.239h-0.396v-25.625
		C182.361,179.704,193.83,191.216,193.83,205.329z"/>
	<pattern  id="SVGID_31_" xlink:href="#Unnamed_Pattern_31" patternTransform="matrix(1 0 0 -1 0 -719.751)">
	</pattern>
	<path fill="none" stroke="url(#SVGID_31_)" stroke-width="3" stroke-miterlimit="10" d="M317.956,205.329h25.622v-25.625
		C329.478,179.704,317.956,191.216,317.956,205.329z"/>
	<pattern  id="SVGID_32_" xlink:href="#Unnamed_Pattern_31" patternTransform="matrix(1 0 0 -1 0 -719.751)">
	</pattern>
	<path fill="none" stroke="url(#SVGID_32_)" stroke-width="3" stroke-miterlimit="10" d="M255.89,126.644
		c16.182,0,29.344,13.114,29.344,29.3c0,16.236-13.162,29.346-29.344,29.346c-16.186,0-29.3-13.11-29.3-29.346
		C226.59,139.757,239.704,126.644,255.89,126.644z"/>
</g>
</svg>
